<svg width="32" height="32" viewBox="0 0 32 32" fill="none" xmlns="http://www.w3.org/2000/svg">
<path d="M30.4808 18.3758L31.2096 17.7199C31.4575 17.5071 31.6565 17.2433 31.7929 16.9464C31.9294 16.6496 32 16.3267 32 16C32 15.6733 31.9294 15.3504 31.7929 15.0536C31.6565 14.7567 31.4575 14.4929 31.2096 14.2801L30.4444 13.6315C30.3067 13.5128 30.2126 13.3516 30.177 13.1733C30.1413 12.9951 30.1662 12.8101 30.2476 12.6476L30.7068 11.7585C30.8532 11.4661 30.9354 11.1458 30.948 10.819C30.9605 10.4922 30.9032 10.1665 30.7796 9.86368C30.6538 9.5622 30.4642 9.29148 30.224 9.07009C29.9837 8.84871 29.6984 8.68187 29.3877 8.58103L28.433 8.26766C28.2617 8.21002 28.1144 8.09718 28.0142 7.94683C27.9139 7.79647 27.8664 7.61711 27.8791 7.43685L27.9593 6.43842C27.9844 6.11236 27.9387 5.78471 27.8253 5.47797C27.7118 5.17124 27.5334 4.89268 27.3021 4.66143C27.0709 4.43018 26.7923 4.25171 26.4856 4.13828C26.1789 4.02485 25.8512 3.97915 25.5251 4.0043L24.5267 4.08447C24.346 4.09974 24.1654 4.05328 24.0145 3.95268C23.8636 3.85208 23.7513 3.70328 23.6959 3.5306L23.3825 2.5759C23.282 2.26549 23.1154 1.98054 22.8942 1.74067C22.673 1.50079 22.4024 1.31167 22.1012 1.18632C21.7999 1.06097 21.4751 1.00237 21.149 1.01453C20.823 1.0267 20.5034 1.10935 20.2123 1.25681L19.3524 1.71594C19.1913 1.7981 19.0071 1.82338 18.8298 1.78765C18.6525 1.75193 18.4925 1.65731 18.3758 1.51917L17.7199 0.790388C17.5071 0.542467 17.2433 0.343478 16.9464 0.207055C16.6496 0.0706316 16.3267 0 16 0C15.6733 0 15.3504 0.0706316 15.0536 0.207055C14.7567 0.343478 14.4929 0.542467 14.2801 0.790388L13.6315 1.51917C13.5128 1.65682 13.3516 1.75093 13.1733 1.78657C12.9951 1.82221 12.8101 1.79736 12.6476 1.71594L11.7585 1.25681C11.4661 1.1104 11.1458 1.02815 10.819 1.01558C10.4922 1.00302 10.1665 1.06041 9.86368 1.18393C9.5622 1.30979 9.29148 1.49935 9.07009 1.73961C8.84871 1.97986 8.68187 2.26514 8.58103 2.5759L8.26766 3.5306C8.21225 3.70328 8.09992 3.85208 7.94902 3.95268C7.79812 4.05328 7.61757 4.09974 7.43685 4.08447L6.43842 4.0043C6.11236 3.97915 5.78471 4.02485 5.47797 4.13828C5.17124 4.25171 4.89268 4.43018 4.66143 4.66143C4.43018 4.89268 4.25171 5.17124 4.13828 5.47797C4.02485 5.78471 3.97915 6.11236 4.0043 6.43842L4.08447 7.43685C4.09974 7.61757 4.05328 7.79812 3.95268 7.94902C3.85208 8.09992 3.70328 8.21225 3.5306 8.26766L2.5759 8.57375C2.26533 8.6771 1.98045 8.84566 1.74038 9.06814C1.5003 9.29062 1.31058 9.56187 1.18393 9.86368C1.05978 10.1653 1.00266 10.4904 1.0165 10.8163C1.03034 11.1422 1.11482 11.4612 1.26409 11.7512L1.71594 12.6476C1.7981 12.8087 1.82338 12.9929 1.78765 13.1702C1.75193 13.3475 1.65731 13.5075 1.51917 13.6242L0.790388 14.2801C0.542467 14.4929 0.343478 14.7567 0.207055 15.0536C0.0706316 15.3504 0 15.6733 0 16C0 16.3267 0.0706316 16.6496 0.207055 16.9464C0.343478 17.2433 0.542467 17.5071 0.790388 17.7199L1.51917 18.3685C1.65682 18.4872 1.75093 18.6484 1.78657 18.8267C1.82221 19.0049 1.79736 19.1899 1.71594 19.3524L1.25681 20.2415C1.1104 20.5339 1.02815 20.8542 1.01558 21.181C1.00302 21.5078 1.06041 21.8335 1.18393 22.1363C1.30979 22.4378 1.49935 22.7085 1.73961 22.9299C1.97986 23.1513 2.26514 23.3181 2.5759 23.419L3.5306 23.7323C3.70186 23.79 3.84915 23.9028 3.94939 24.0532C4.04962 24.2035 4.09713 24.3829 4.08447 24.5632L4.0043 25.5616C3.97915 25.8876 4.02485 26.2153 4.13828 26.522C4.25171 26.8288 4.43018 27.1073 4.66143 27.3386C4.89268 27.5698 5.17124 27.7483 5.47797 27.8617C5.78471 27.9751 6.11236 28.0209 6.43842 27.9957L7.43685 27.9155C7.61734 27.9016 7.79729 27.9486 7.94791 28.049C8.09853 28.1494 8.21112 28.2974 8.26766 28.4694L8.58103 29.4241C8.68264 29.7338 8.84984 30.0179 9.07122 30.2571C9.2926 30.4963 9.56296 30.6849 9.86387 30.8101C10.1648 30.9353 10.4891 30.9941 10.8148 30.9826C11.1405 30.971 11.4599 30.8894 11.7512 30.7432L12.6476 30.2841C12.8087 30.2019 12.9929 30.1766 13.1702 30.2123C13.3475 30.2481 13.5075 30.3427 13.6242 30.4808L14.2801 31.2096C14.4929 31.4575 14.7567 31.6565 15.0536 31.7929C15.3504 31.9294 15.6733 32 16 32C16.3267 32 16.6496 31.9294 16.9464 31.7929C17.2433 31.6565 17.5071 31.4575 17.7199 31.2096L18.3685 30.4444C18.4872 30.3067 18.6484 30.2126 18.8267 30.177C19.0049 30.1413 19.1899 30.1662 19.3524 30.2476L20.2415 30.7068C20.5339 30.8532 20.8542 30.9354 21.181 30.948C21.5078 30.9605 21.8335 30.9032 22.1363 30.7796C22.4378 30.6538 22.7085 30.4642 22.9299 30.224C23.1513 29.9837 23.3181 29.6984 23.419 29.3877L23.7323 28.433C23.7889 28.261 23.9015 28.113 24.0521 28.0126C24.2027 27.9121 24.3827 27.8651 24.5632 27.8791L25.5616 27.9593C25.8876 27.9844 26.2153 27.9387 26.522 27.8253C26.8288 27.7118 27.1073 27.5334 27.3386 27.3021C27.5698 27.0709 27.7483 26.7923 27.8617 26.4856C27.9751 26.1789 28.0209 25.8512 27.9957 25.5251L27.9155 24.5267C27.9003 24.346 27.9467 24.1654 28.0473 24.0145C28.1479 23.8636 28.2967 23.7513 28.4694 23.6959L29.4241 23.3898C29.7347 23.2865 30.0195 23.1179 30.2596 22.8954C30.4997 22.6729 30.6894 22.4017 30.8161 22.0999C30.9402 21.7982 30.9973 21.4732 30.9835 21.1473C30.9697 20.8214 30.8852 20.5024 30.7359 20.2123L30.2841 19.3524C30.2019 19.1913 30.1766 19.0071 30.2123 18.8298C30.2481 18.6525 30.3427 18.4925 30.4808 18.3758Z" fill="#EBDA5C"/>
<path d="M16 26.2029C21.6349 26.2029 26.2029 21.6349 26.2029 16C26.2029 10.3651 21.6349 5.79712 16 5.79712C10.3651 5.79712 5.79712 10.3651 5.79712 16C5.79712 21.6349 10.3651 26.2029 16 26.2029Z" fill="#A39134"/>
<path d="M22.2164 12.4655C22.1056 12.4015 21.9799 12.3678 21.852 12.3678C21.7241 12.3678 21.5984 12.4015 21.4876 12.4655L19.1483 13.6315L16.5902 9.79812C16.5236 9.69892 16.4335 9.61763 16.328 9.56143C16.2226 9.50523 16.1049 9.47583 15.9854 9.47583C15.8658 9.47583 15.7481 9.50523 15.6427 9.56143C15.5372 9.61763 15.4471 9.69892 15.3805 9.79812L12.8225 13.6315L10.4831 12.4655C10.3749 12.4137 10.2556 12.3895 10.1358 12.3949C10.016 12.4003 9.89941 12.4352 9.79633 12.4965C9.69325 12.5577 9.60688 12.6435 9.54488 12.7462C9.48289 12.8488 9.44718 12.9652 9.44092 13.0849V18.1864C9.44092 18.3797 9.5177 18.565 9.65437 18.7017C9.79105 18.8384 9.97641 18.9151 10.1697 18.9151H21.8302C22.0234 18.9151 22.2088 18.8384 22.3455 18.7017C22.4822 18.565 22.5589 18.3797 22.5589 18.1864V13.0849C22.5592 12.9611 22.5279 12.8392 22.4679 12.7308C22.408 12.6224 22.3214 12.5311 22.2164 12.4655Z" fill="#EBDA5C"/>
<path d="M21.8302 19.6439H10.1697C9.97641 19.6439 9.79104 19.7207 9.65437 19.8574C9.5177 19.994 9.44092 20.1794 9.44092 20.3727C9.44092 20.566 9.5177 20.7514 9.65437 20.888C9.79104 21.0247 9.97641 21.1015 10.1697 21.1015H21.8302C22.0234 21.1015 22.2088 21.0247 22.3455 20.888C22.4822 20.7514 22.5589 20.566 22.5589 20.3727C22.5589 20.1794 22.4822 19.994 22.3455 19.8574C22.2088 19.7207 22.0234 19.6439 21.8302 19.6439Z" fill="#EBDA5C"/>
</svg>
