<svg width="12" height="17" viewBox="0 0 12 17" fill="none" xmlns="http://www.w3.org/2000/svg">
<path d="M11.25 4.03438V1.25C11.25 0.918479 11.1183 0.600537 10.8839 0.366116C10.6495 0.131696 10.3315 0 10 0H1.25C0.918479 0 0.600537 0.131696 0.366116 0.366116C0.131696 0.600537 0 0.918479 0 1.25V4.0625C0.000422258 4.25648 0.045789 4.44773 0.13254 4.62123C0.219292 4.79473 0.345068 4.94577 0.5 5.0625L4.58359 8.125L0.5 11.1875C0.345068 11.3042 0.219292 11.4553 0.13254 11.6288C0.045789 11.8023 0.000422258 11.9935 0 12.1875V15C0 15.3315 0.131696 15.6495 0.366116 15.8839C0.600537 16.1183 0.918479 16.25 1.25 16.25H10C10.3315 16.25 10.6495 16.1183 10.8839 15.8839C11.1183 15.6495 11.25 15.3315 11.25 15V12.2156C11.2495 12.0225 11.2045 11.8321 11.1184 11.6592C11.0324 11.4863 10.9077 11.3356 10.7539 11.2188L6.66172 8.125L10.7539 5.03203C10.9077 4.91506 11.0325 4.7642 11.1185 4.59117C11.2046 4.41814 11.2496 4.22761 11.25 4.03438ZM9.54922 11.875H1.66641L5.625 8.90625L9.54922 11.875ZM10 4.03438L5.625 7.34375L1.25 4.0625V1.25H10V4.03438Z" fill="black"/>
</svg>
