<svg width="20" height="20" viewBox="0 0 20 20" fill="none" xmlns="http://www.w3.org/2000/svg">
<g clip-path="url(#clip0_91_65)">
<path fill-rule="evenodd" clipRule="evenodd" d="M10 5.83334C12.6987 5.83334 14.898 7.97132 14.9966 10.6459L15 10.8333V16.6667H15.8334C16.2936 16.6667 16.6667 17.0398 16.6667 17.5C16.6667 17.9274 16.345 18.2796 15.9306 18.3277L15.8334 18.3333H4.16671C3.70648 18.3333 3.33338 17.9603 3.33338 17.5C3.33338 17.0726 3.65508 16.7204 4.06953 16.6723L4.16671 16.6667H5.00004V10.8333C5.00004 8.07191 7.23862 5.83334 10 5.83334ZM9.28546 9.98792L8.04304 12.0587C7.70644 12.6197 8.11054 13.3333 8.76479 13.3333H9.77821L9.28546 14.1546C9.04871 14.5493 9.17663 15.0611 9.57129 15.2979C9.96596 15.5347 10.4778 15.4068 10.7146 15.0121L11.957 12.9413C12.2936 12.3804 11.8895 11.6667 11.2353 11.6667H10.2219L10.7146 10.8454C10.9514 10.4508 10.8235 9.93892 10.4288 9.70209C10.0341 9.46534 9.52229 9.59326 9.28546 9.98792ZM4.61825 4.28222L4.69676 4.35155L5.28602 4.9408C5.61145 5.26624 5.61145 5.79387 5.28602 6.11931C4.98561 6.41971 4.51292 6.44282 4.18601 6.18864L4.1075 6.11931L3.51825 5.53006C3.19281 5.20462 3.19281 4.67698 3.51825 4.35155C3.81865 4.05114 4.29135 4.02803 4.61825 4.28222ZM16.4819 4.35155C16.8073 4.67698 16.8073 5.20462 16.4819 5.53006L15.8925 6.11931C15.5671 6.44475 15.0395 6.44475 14.714 6.11931C14.3886 5.79387 14.3886 5.26624 14.714 4.9408L15.3033 4.35155C15.6288 4.0261 16.1564 4.0261 16.4819 4.35155ZM10 1.66667C10.4603 1.66667 10.8334 2.03977 10.8334 2.50001V3.33334C10.8334 3.79357 10.4603 4.16667 10 4.16667C9.53979 4.16667 9.16671 3.79357 9.16671 3.33334V2.50001C9.16671 2.03977 9.53979 1.66667 10 1.66667Z" fill="#C1282D"/>
</g>
<defs>
<clipPath id="clip0_91_65">
<rect width="20" height="20" fill="white"/>
</clipPath>
</defs>
</svg>
