<svg width="58" height="82" viewBox="0 0 58 82" fill="none" xmlns="http://www.w3.org/2000/svg">
<path d="M15.4048 63.8505C15.2783 63.8505 15.1792 63.8174 15.1075 63.7512C15.0358 63.685 15 63.6012 15 63.5C15 63.3949 15.0401 63.3072 15.1202 63.2371C15.2045 63.1632 15.3078 63.1262 15.4301 63.1262C15.5524 63.1262 15.6473 63.1651 15.7147 63.243C15.7864 63.317 15.8223 63.3929 15.8223 63.4708C15.8223 63.5954 15.7801 63.6908 15.6958 63.757C15.6156 63.8193 15.5187 63.8505 15.4048 63.8505Z" fill="black"/>
<path d="M16.3454 61.035C16.4128 61.0389 16.4972 61.0428 16.5984 61.0467C16.7038 61.0467 16.8134 61.0487 16.9273 61.0526C17.0454 61.0526 17.155 61.0526 17.2562 61.0526C17.3616 61.0526 17.446 61.0526 17.5092 61.0526V64.1484C17.5092 64.2963 17.524 64.4112 17.5535 64.493C17.583 64.5748 17.6399 64.6312 17.7243 64.6624C17.8086 64.6935 17.9246 64.7091 18.0721 64.7091L18.0342 65.0012C17.9161 65.0012 17.777 65.0012 17.6167 65.0012C17.4607 65.0012 17.2984 65.0012 17.1297 65.0012C16.9652 65.0051 16.8134 65.007 16.6743 65.007C16.5351 65.0109 16.4255 65.0148 16.3454 65.0187C16.3454 64.9603 16.3475 64.9077 16.3517 64.861C16.3559 64.8104 16.3644 64.7695 16.377 64.7383C16.4909 64.7305 16.5794 64.7111 16.6427 64.6799C16.7059 64.6449 16.7502 64.5864 16.7755 64.5047C16.8008 64.4229 16.8134 64.3041 16.8134 64.1484V61.847C16.8134 61.7068 16.8008 61.6016 16.7755 61.5315C16.7502 61.4576 16.7059 61.405 16.6427 61.3738C16.5794 61.3427 16.4909 61.3232 16.377 61.3154C16.3644 61.2804 16.3559 61.2375 16.3517 61.1869C16.3475 61.1363 16.3454 61.0857 16.3454 61.035ZM19.2929 63.9673C19.3688 63.9829 19.4321 64.0023 19.4827 64.0257C19.5375 64.0491 19.586 64.0783 19.6281 64.1133C19.5817 64.2457 19.5417 64.3937 19.508 64.5572C19.4784 64.7169 19.4531 64.8688 19.4321 65.0129C19.3435 65.009 19.2254 65.007 19.0778 65.007C18.9345 65.007 18.7721 65.0051 18.5908 65.0012C18.4137 65.0012 18.2282 65.0012 18.0342 65.0012L18.0721 64.7091H18.1227C18.4011 64.7091 18.6119 64.6819 18.7553 64.6273C18.9028 64.5689 19.0146 64.4852 19.0905 64.3762C19.1664 64.2671 19.2339 64.1308 19.2929 63.9673ZM18.8628 62.3668C18.8586 62.4642 18.8544 62.5693 18.8501 62.6822C18.8501 62.7913 18.8501 62.9003 18.8501 63.0093C18.8501 63.1223 18.8501 63.2391 18.8501 63.3598C18.8544 63.4805 18.8586 63.5915 18.8628 63.6928C18.7995 63.6928 18.7405 63.6908 18.6857 63.6869C18.6351 63.6791 18.5845 63.6694 18.5339 63.6577C18.517 63.463 18.4601 63.3306 18.3631 63.2605C18.2703 63.1904 18.0996 63.1554 17.8508 63.1554H17.408V62.875H17.8508C18.1038 62.875 18.2767 62.8438 18.3694 62.7815C18.4664 62.7192 18.517 62.5966 18.5212 62.4136C18.5803 62.3941 18.6372 62.3824 18.692 62.3785C18.7468 62.3707 18.8038 62.3668 18.8628 62.3668ZM19.2739 61.035C19.2824 61.1207 19.2929 61.222 19.3056 61.3388C19.3182 61.4556 19.333 61.5705 19.3498 61.6834C19.3667 61.7924 19.3857 61.8898 19.4068 61.9755C19.3688 62.0027 19.3203 62.0222 19.2613 62.0339C19.2065 62.0456 19.1432 62.0514 19.0715 62.0514C19.0589 61.9268 19.023 61.81 18.964 61.7009C18.905 61.588 18.8038 61.4965 18.6604 61.4264C18.5212 61.3524 18.3209 61.3154 18.0595 61.3154H17.3574L17.5029 61.0526C17.8318 61.0526 18.1143 61.0526 18.3505 61.0526C18.5866 61.0487 18.7806 61.0448 18.9324 61.0409C19.0842 61.037 19.198 61.035 19.2739 61.035Z" fill="black"/>
<path d="M21.5788 65.0537C21.3174 65.0537 21.0833 65.0206 20.8767 64.9544C20.6701 64.8882 20.4635 64.7987 20.2568 64.6857C20.2821 64.5378 20.299 64.3879 20.3074 64.236C20.3159 64.0841 20.3201 63.9498 20.3201 63.8329C20.3749 63.8174 20.4403 63.8076 20.5162 63.8037C20.5921 63.796 20.6617 63.7921 20.7249 63.7921C20.7418 63.9984 20.7797 64.1717 20.8388 64.3119C20.902 64.4521 20.999 64.5592 21.1297 64.6332C21.2647 64.7072 21.4396 64.7442 21.6547 64.7442C21.933 64.7442 22.1312 64.6877 22.2493 64.5748C22.3716 64.4618 22.4327 64.3255 22.4327 64.1659C22.4327 64.0062 22.3821 63.8738 22.2809 63.7687C22.1797 63.6636 22.049 63.574 21.8887 63.5C21.7285 63.4221 21.5598 63.3462 21.3827 63.2722C21.2056 63.1982 21.0369 63.1125 20.8767 63.0152C20.7165 62.9139 20.5858 62.7893 20.4845 62.6414C20.3833 62.4934 20.3327 62.3045 20.3327 62.0748C20.3327 61.845 20.3876 61.6503 20.4972 61.4907C20.6068 61.331 20.7586 61.2103 20.9526 61.1285C21.1508 61.0428 21.3827 61 21.6484 61C21.796 61 21.9393 61.0117 22.0785 61.035C22.2176 61.0584 22.3441 61.0896 22.458 61.1285C22.5761 61.1674 22.6709 61.2103 22.7426 61.257C22.7426 61.3777 22.7447 61.514 22.749 61.6659C22.7532 61.8178 22.7637 61.9443 22.7806 62.0456C22.73 62.065 22.6646 62.0806 22.5845 62.0923C22.5086 62.104 22.4369 62.1098 22.3694 62.1098C22.3273 61.8879 22.2725 61.7185 22.205 61.6016C22.1375 61.4848 22.0553 61.405 21.9583 61.3621C21.8655 61.3154 21.7559 61.2921 21.6294 61.2921C21.4186 61.2921 21.252 61.3388 21.1297 61.4322C21.0116 61.5257 20.9526 61.6581 20.9526 61.8294C20.9526 61.993 21.0032 62.1293 21.1044 62.2383C21.2056 62.3474 21.3363 62.4408 21.4966 62.5187C21.6568 62.5966 21.8255 62.6745 22.0026 62.7523C22.1839 62.8302 22.3547 62.9178 22.5149 63.0152C22.6794 63.1125 22.8122 63.2333 22.9134 63.3773C23.0146 63.5214 23.0652 63.7025 23.0652 63.9206C23.0652 64.1231 23.0125 64.3119 22.9071 64.4871C22.8017 64.6585 22.6393 64.7967 22.42 64.9019C22.205 65.0031 21.9246 65.0537 21.5788 65.0537Z" fill="black"/>
<path d="M24.4416 61.3388C24.2476 61.3388 24.0979 61.368 23.9925 61.4264C23.8913 61.4848 23.8154 61.5685 23.7648 61.6776C23.7184 61.7827 23.6804 61.9093 23.6509 62.0572C23.5919 62.0572 23.5286 62.0533 23.4612 62.0456C23.3937 62.0378 23.3368 62.0222 23.2904 61.9988C23.3241 61.8353 23.3494 61.6678 23.3663 61.4965C23.3874 61.3252 23.3979 61.1713 23.3979 61.035C23.5286 61.0389 23.6783 61.0428 23.847 61.0467C24.0199 61.0506 24.2075 61.0526 24.4099 61.0526C24.6166 61.0526 24.8358 61.0526 25.0678 61.0526C25.2997 61.0526 25.519 61.0526 25.7256 61.0526C25.9322 61.0526 26.122 61.0506 26.2948 61.0467C26.4719 61.0428 26.6216 61.0389 26.7439 61.035C26.7397 61.1791 26.7418 61.3291 26.7503 61.4848C26.7629 61.6406 26.7798 61.8119 26.8009 61.9988C26.7503 62.0183 26.6933 62.0339 26.6301 62.0456C26.571 62.0572 26.5057 62.0611 26.434 62.0572C26.4213 61.8197 26.3581 61.6406 26.2442 61.5199C26.1346 61.3991 25.9596 61.3388 25.7193 61.3388H24.4416ZM24.7136 61.2161H25.4156V64.2068C25.4156 64.3431 25.4283 64.4482 25.4536 64.5222C25.4789 64.5962 25.5274 64.6488 25.5991 64.6799C25.675 64.7111 25.7846 64.7305 25.928 64.7383C25.9406 64.7695 25.9491 64.8104 25.9533 64.861C25.9617 64.9077 25.9659 64.9603 25.9659 65.0187C25.831 65.0109 25.6876 65.0051 25.5358 65.0012C25.384 65.0012 25.2301 65.0012 25.0741 65.0012C24.9687 65.0012 24.859 65.0012 24.7452 65.0012C24.6355 65.0051 24.528 65.007 24.4226 65.007C24.3214 65.0109 24.2286 65.0148 24.1443 65.0187C24.1443 64.9603 24.1464 64.9077 24.1506 64.861C24.159 64.8104 24.1696 64.7695 24.1822 64.7383C24.3256 64.7305 24.4352 64.7111 24.5112 64.6799C24.5871 64.6488 24.6398 64.5962 24.6693 64.5222C24.6988 64.4482 24.7136 64.3431 24.7136 64.2068V61.2161Z" fill="black"/>
<path d="M29.6179 64.2009C29.6179 64.3411 29.6284 64.4502 29.6495 64.528C29.6748 64.602 29.7191 64.6546 29.7823 64.6857C29.8498 64.7169 29.9405 64.7344 30.0543 64.7383C30.067 64.7812 30.0754 64.8259 30.0796 64.8727C30.0838 64.9194 30.0859 64.9681 30.0859 65.0187C30.0227 65.0148 29.9531 65.0109 29.8772 65.007C29.8055 65.007 29.7317 65.0051 29.6558 65.0012C29.5799 65.0012 29.5082 65.0012 29.4408 65.0012C29.3733 65.0012 29.3206 65.0012 29.2826 65.0012C29.2278 65.0012 29.1646 65.0012 29.0929 65.0012C29.0254 65.0012 28.9537 65.0012 28.8778 65.0012C28.8061 65.0051 28.7366 65.007 28.6691 65.007C28.6016 65.0109 28.5384 65.0148 28.4793 65.0187C28.4793 64.9681 28.4815 64.9194 28.4857 64.8727C28.4899 64.822 28.4983 64.7773 28.511 64.7383C28.6206 64.7305 28.707 64.7111 28.7703 64.6799C28.8336 64.6488 28.8778 64.5962 28.9031 64.5222C28.9326 64.4482 28.9474 64.3431 28.9474 64.2068V62.875C28.9474 62.7387 28.9348 62.6336 28.9095 62.5596C28.8842 62.4856 28.8399 62.433 28.7766 62.4019C28.7176 62.3668 28.629 62.3474 28.511 62.3435C28.5025 62.3045 28.4941 62.2617 28.4857 62.215C28.4815 62.1643 28.4793 62.1137 28.4793 62.0631C28.5299 62.067 28.589 62.0709 28.6564 62.0748C28.7281 62.0748 28.8019 62.0767 28.8778 62.0806C28.9579 62.0806 29.0317 62.0806 29.0992 62.0806C29.1709 62.0806 29.232 62.0806 29.2826 62.0806C29.3712 62.0806 29.464 62.0806 29.5609 62.0806C29.6621 62.0767 29.757 62.0748 29.8456 62.0748C29.9383 62.0709 30.0185 62.067 30.0859 62.0631C30.0859 62.1176 30.0817 62.1682 30.0733 62.215C30.0691 62.2617 30.0627 62.3045 30.0543 62.3435C29.9405 62.3474 29.8519 62.3668 29.7886 62.4019C29.7254 62.433 29.6811 62.4856 29.6558 62.5596C29.6305 62.6336 29.6179 62.7387 29.6179 62.875V64.2009Z" fill="black"/>
<path d="M33.0499 64.09C32.8855 64.2224 32.7231 64.3178 32.5629 64.3762C32.4069 64.4307 32.2403 64.4579 32.0632 64.4579C31.8186 64.4579 31.5972 64.4112 31.399 64.3178C31.2051 64.2243 31.0491 64.0958 30.931 63.9322C30.8171 63.7648 30.7602 63.5701 30.7602 63.3481C30.7602 63.1301 30.7982 62.9393 30.8741 62.7757C30.9542 62.6121 31.0617 62.4778 31.1966 62.3727C31.3316 62.2636 31.4855 62.1819 31.6584 62.1273C31.8355 62.0728 32.0189 62.0456 32.2087 62.0456C32.5334 62.0456 32.8011 62.102 33.012 62.215C33.227 62.3279 33.3873 62.4992 33.4927 62.729C33.5981 62.9548 33.6508 63.2371 33.6508 63.5759C33.6508 63.8914 33.5939 64.1737 33.48 64.4229C33.3662 64.6682 33.2165 64.8843 33.0309 65.0713C32.8454 65.2621 32.6388 65.4217 32.4111 65.5502C32.1876 65.6787 31.962 65.778 31.7343 65.8481C31.5066 65.9221 31.2957 65.9708 31.1018 65.9942C31.0722 65.9591 31.0533 65.9221 31.0448 65.8832C31.0364 65.8442 31.0322 65.7995 31.0322 65.7488C31.4749 65.6048 31.8376 65.4334 32.1201 65.2348C32.4068 65.0362 32.6198 64.8045 32.7589 64.5397C32.8981 64.2749 32.9677 63.9712 32.9677 63.6285C32.9677 63.1729 32.8918 62.8438 32.74 62.6414C32.5882 62.4389 32.3858 62.3376 32.1328 62.3376C31.9978 62.3376 31.8776 62.3746 31.7722 62.4486C31.671 62.5187 31.5909 62.616 31.5319 62.7407C31.4771 62.8653 31.4496 63.0016 31.4496 63.1495C31.4496 63.3403 31.4792 63.4961 31.5382 63.6168C31.5972 63.7375 31.6731 63.831 31.7659 63.8972C31.8629 63.9634 31.9662 64.0101 32.0758 64.0374C32.1855 64.0607 32.2909 64.0724 32.3921 64.0724C32.5144 64.0724 32.6346 64.051 32.7526 64.0082C32.8707 63.9653 32.9719 63.9011 33.0562 63.8154L33.0499 64.09Z" fill="black"/>
<path d="M35.7375 62.3668C35.5519 62.3668 35.3959 62.4136 35.2694 62.507C35.1471 62.6005 35.0522 62.727 34.9848 62.8867C34.9173 63.0463 34.8836 63.2235 34.8836 63.4182C34.8836 63.5584 34.911 63.7044 34.9658 63.8563C35.0206 64.0082 35.0986 64.1484 35.1998 64.2769C35.301 64.4015 35.4233 64.5027 35.5667 64.5806C35.7143 64.6585 35.8787 64.6974 36.06 64.6974C36.254 64.6974 36.41 64.6507 36.5281 64.5572C36.6462 64.4599 36.7326 64.3314 36.7874 64.1717C36.8422 64.0082 36.8697 63.8329 36.8697 63.646C36.8697 63.5136 36.8444 63.3734 36.7938 63.2255C36.7474 63.0775 36.6757 62.9393 36.5787 62.8107C36.4817 62.6783 36.3615 62.5713 36.2182 62.4895C36.079 62.4077 35.9188 62.3668 35.7375 62.3668ZM35.9082 62.0456C36.195 62.0456 36.4648 62.102 36.7179 62.215C36.9709 62.3279 37.1733 62.4934 37.3251 62.7114C37.4811 62.9295 37.5591 63.1963 37.5591 63.5117C37.5591 63.8271 37.4832 64.0997 37.3314 64.3294C37.1796 64.5592 36.9793 64.7383 36.7305 64.8668C36.4817 64.9914 36.2076 65.0537 35.9082 65.0537C35.6088 65.0537 35.3305 64.9914 35.0733 64.8668C34.8161 64.7383 34.6074 64.5592 34.4471 64.3294C34.2911 64.0997 34.2131 63.8271 34.2131 63.5117C34.2131 63.278 34.2616 63.0697 34.3586 62.8867C34.4556 62.6998 34.5842 62.546 34.7444 62.4252C34.9046 62.3006 35.086 62.2072 35.2884 62.1449C35.4908 62.0787 35.6974 62.0456 35.9082 62.0456Z" fill="black"/>
<path d="M38.5689 62.0689C38.7165 62.0728 38.8494 62.0767 38.9674 62.0806C39.0855 62.0806 39.2015 62.0806 39.3153 62.0806C39.4334 62.0806 39.5599 62.0806 39.6948 62.0806C39.8129 62.0806 39.8972 62.0533 39.9478 61.9988C39.9984 61.9443 40.0237 61.8762 40.0237 61.7944C40.0659 61.7788 40.1165 61.7691 40.1755 61.7652C40.2388 61.7613 40.2957 61.7593 40.3463 61.7593C40.3294 61.8762 40.3189 62.0027 40.3147 62.139C40.3105 62.2714 40.3084 62.4097 40.3084 62.5537C40.2873 62.5888 40.2535 62.616 40.2072 62.6355C40.165 62.655 40.1017 62.6647 40.0174 62.6647C39.9331 62.6647 39.8298 62.6647 39.7075 62.6647C39.5852 62.6647 39.4587 62.6667 39.328 62.6706C39.2015 62.6706 39.0855 62.6725 38.9801 62.6764C38.8747 62.6764 38.7988 62.6803 38.7524 62.6881L38.6132 63.2313C39.0012 63.3014 39.3322 63.3949 39.6063 63.5117C39.8804 63.6246 40.0891 63.7726 40.2325 63.9556C40.3758 64.1347 40.4475 64.3586 40.4475 64.6273C40.4475 64.8532 40.399 65.0498 40.302 65.2173C40.2051 65.3886 40.0764 65.5327 39.9162 65.6495C39.756 65.7664 39.5831 65.854 39.3975 65.9124C39.212 65.9708 39.0307 66 38.8536 66C38.6849 66 38.5352 65.9825 38.4045 65.9474C38.2738 65.9124 38.1726 65.8695 38.1009 65.8189C38.1009 65.78 38.1072 65.741 38.1199 65.7021C38.1367 65.6671 38.1599 65.632 38.1894 65.597C38.2443 65.6125 38.3265 65.6301 38.4361 65.6495C38.5458 65.669 38.6659 65.6787 38.7967 65.6787C38.9653 65.6787 39.1192 65.6417 39.2584 65.5678C39.4018 65.4977 39.5156 65.3964 39.5999 65.264C39.6843 65.1316 39.7265 64.9739 39.7265 64.7909C39.7265 64.639 39.6864 64.5047 39.6063 64.3879C39.5262 64.2671 39.4186 64.1659 39.2837 64.0841C39.1488 64.0023 38.9948 63.9361 38.822 63.8855C38.6533 63.8349 38.4804 63.7998 38.3033 63.7804C38.2653 63.7531 38.2358 63.72 38.2147 63.6811C38.1937 63.6421 38.1831 63.6032 38.1831 63.5643L38.5689 62.0689Z" fill="black"/>
<path d="M41.5825 63.8505C41.456 63.8505 41.3569 63.8174 41.2853 63.7512C41.2136 63.685 41.1777 63.6012 41.1777 63.5C41.1777 63.3949 41.2178 63.3072 41.2979 63.2371C41.3822 63.1632 41.4856 63.1262 41.6078 63.1262C41.7301 63.1262 41.825 63.1651 41.8925 63.243C41.9642 63.317 42 63.3929 42 63.4708C42 63.5954 41.9578 63.6908 41.8735 63.757C41.7934 63.8193 41.6964 63.8505 41.5825 63.8505Z" fill="black"/>
<path d="M0 16.6643V56.3269L0.428598 57.1815C0.7423 57.8096 8.33956 72.6375 27.3495 81.1249L29 81.8614L30.6505 81.1249C49.6591 72.6381 57.2577 57.8096 57.5714 57.1828L58 56.3269V16.6643H0ZM55.7918 55.8047L55.5969 56.1946C55.2967 56.7923 48.0461 70.9386 29.7507 79.109L29 79.4434L28.25 79.109C9.95326 70.9386 2.70326 56.7923 2.40311 56.1946L2.20818 55.8047V18.8738H55.7918V55.8047Z" fill="#EE3300"/>
<path d="M53.7593 20.7147V55.3697C53.7593 55.3697 46.7132 69.4314 28.8077 77.4282C10.9015 69.4314 3.85742 55.3697 3.85742 55.3697V20.7147H53.7593Z" stroke="#EE3300" stroke-miterlimit="10"/>
<path d="M33.1665 3.96645L28.9999 1.68599L24.834 3.96645L17.5879 0V15.1029H40.412V0L33.1665 3.96645ZM38.564 13.2536H19.4378V3.11765L24.834 6.07394L28.9999 3.79346L33.1665 6.07394L38.5633 3.11765V13.2536H38.564Z" fill="black"/>
<path d="M33.1666 7.47977L29 5.19931L24.8341 7.47977L20.6682 5.19931V12.022H37.3325V5.19931L33.1666 7.47977Z" fill="#EE3300"/>
<path d="M48.534 5.20707L49.7501 7.6715L52.4688 8.0646L50.5014 9.9836L50.9661 12.6914L48.534 11.4133L46.1012 12.6914L46.5666 9.9836L44.5985 8.0646L47.3173 7.6715L48.534 5.20707Z" fill="#EE3300"/>
<path d="M9.46645 5.20706L10.6832 7.67149L13.4019 8.06459L11.4345 9.98359L11.8986 12.6914L9.46645 11.4133L7.03493 12.6914L7.49903 9.98359L5.53162 8.06459L8.25037 7.67149L9.46645 5.20706Z" fill="#EE3300"/>
<path d="M22.7128 29.5832H27.6014V31.7036H26.5695L23.9406 41.2727H20.6866L18.9616 33.9783L17.199 41.2727H13.9751L11.3011 31.7036H10.1486V29.5832H15.0447V31.7036H13.8546L15.5343 38.0034L17.5606 29.6063H20.3627L22.3513 38.0034L24.0385 31.7036H22.7128V29.5832Z" fill="black"/>
<path d="M28.6108 29.5832H37.695V33.5697H35.2394V31.9118H32.3092V34.2174H34.5765V36.4535H32.3092V39.16H35.2394V37.0858H37.695V41.2727H28.6108V39.16H29.8085V31.9118H28.6108V29.5832Z" fill="black"/>
<path d="M44.4969 32.8757C44.4717 32.6958 44.409 32.5261 44.3085 32.3668C44.2131 32.2074 44.0876 32.0712 43.9319 31.9581C43.7813 31.8399 43.608 31.7473 43.4122 31.6805C43.2214 31.6137 43.0205 31.5803 42.8096 31.5803C42.6188 31.5803 42.4405 31.6008 42.2748 31.642C42.1091 31.6831 41.9634 31.7473 41.8379 31.8347C41.7174 31.917 41.6194 32.0249 41.5441 32.1586C41.4738 32.2922 41.4387 32.4516 41.4387 32.6367C41.4387 32.868 41.4864 33.053 41.5818 33.1918C41.6822 33.3255 41.8078 33.436 41.9584 33.5234C42.1141 33.6108 42.2848 33.6802 42.4706 33.7316C42.6564 33.783 42.8372 33.8395 43.013 33.9012L45.0844 34.6106C45.3706 34.7134 45.6393 34.8548 45.8904 35.0347C46.1415 35.2146 46.3574 35.4331 46.5382 35.6901C46.724 35.9471 46.8696 36.2427 46.9751 36.5769C47.0805 36.911 47.1332 37.2862 47.1332 37.7026C47.1332 38.2681 47.0303 38.7847 46.8244 39.2525C46.6235 39.7203 46.3398 40.1212 45.9732 40.4554C45.6066 40.7895 45.1673 41.0491 44.655 41.2342C44.1428 41.4192 43.5754 41.5118 42.9527 41.5118C42.5158 41.5118 42.1015 41.4603 41.7098 41.3575C41.3232 41.2599 40.9691 41.1159 40.6477 40.9257C40.3264 40.7355 40.0451 40.5094 39.8041 40.2472C39.5631 39.9799 39.3747 39.6792 39.2392 39.345H38.4633V37.0241H41.1901V37.5021C41.1901 37.7335 41.2252 37.9468 41.2955 38.1421C41.3709 38.3375 41.4813 38.5071 41.627 38.6511C41.7726 38.795 41.9559 38.9081 42.1768 38.9903C42.3978 39.0674 42.6564 39.106 42.9527 39.106C43.4046 39.106 43.7486 39.0006 43.9846 38.7898C44.2207 38.5739 44.3387 38.2758 44.3387 37.8954C44.3387 37.7001 44.296 37.5381 44.2106 37.4096C44.1303 37.276 44.0248 37.1654 43.8943 37.0781C43.7637 36.9855 43.6181 36.9084 43.4574 36.8467C43.2967 36.785 43.1385 36.7285 42.9828 36.6771L41.2579 36.1065C40.9315 36.0037 40.6151 35.8598 40.3088 35.6747C40.0075 35.4896 39.7388 35.2583 39.5028 34.9807C39.2718 34.7031 39.086 34.3793 38.9454 34.0092C38.8098 33.6339 38.742 33.2072 38.742 32.7292C38.742 32.174 38.8425 31.6805 39.0433 31.2487C39.2442 30.8118 39.5254 30.4442 39.887 30.1461C40.2485 29.8479 40.6779 29.6217 41.175 29.4675C41.6722 29.3133 42.217 29.2362 42.8096 29.2362C43.2766 29.2362 43.7085 29.2927 44.1052 29.4058C44.5019 29.5138 44.8559 29.6603 45.1673 29.8454C45.4836 30.0304 45.7498 30.2437 45.9657 30.4853C46.1867 30.7218 46.3549 30.9686 46.4704 31.2256H47.2236V33.5542H44.4969V32.8757Z" fill="black"/>
<path d="M14.8338 47.1749C14.5526 46.7636 14.299 46.4732 14.073 46.3036C13.8471 46.1288 13.6035 46.0054 13.3424 45.9335C13.0813 45.8563 12.8076 45.8178 12.5213 45.8178C12.0995 45.8178 11.7078 45.9155 11.3463 46.1108C10.9847 46.301 10.6708 46.5632 10.4047 46.8973C10.1436 47.2263 9.93768 47.6118 9.78703 48.0539C9.63638 48.4909 9.56105 48.9561 9.56105 49.4496C9.56105 49.9482 9.63387 50.4186 9.7795 50.8606C9.93015 51.2976 10.136 51.6805 10.3972 52.0095C10.6583 52.3385 10.9696 52.6007 11.3312 52.796C11.6928 52.9862 12.0895 53.0813 12.5213 53.0813C12.8226 53.0813 13.1038 53.0325 13.365 52.9348C13.6261 52.832 13.8621 52.6984 14.073 52.5339C14.289 52.3694 14.4773 52.1817 14.638 51.971C14.7987 51.7551 14.9242 51.5315 15.0146 51.3001L17.4401 51.9941C17.2844 52.4979 17.0559 52.9657 16.7546 53.3975C16.4533 53.8241 16.0892 54.1943 15.6624 54.5078C15.2406 54.8214 14.7635 55.0681 14.2312 55.2481C13.7039 55.428 13.134 55.5179 12.5213 55.5179C12.0041 55.5179 11.5095 55.446 11.0374 55.302C10.5654 55.1581 10.1235 54.9551 9.71171 54.6929C9.30495 54.4307 8.93335 54.1146 8.59689 53.7445C8.26546 53.3743 7.98174 52.9657 7.74572 52.5184C7.5097 52.0661 7.32641 51.5829 7.19585 51.0688C7.06528 50.5496 7 50.0099 7 49.4496C7 48.6117 7.14312 47.8277 7.42935 47.0978C7.71559 46.3627 8.10728 45.7227 8.60443 45.1778C9.10157 44.6278 9.68409 44.196 10.352 43.8824C11.0249 43.5637 11.748 43.4043 12.5213 43.4043C13.139 43.4043 13.6587 43.484 14.0806 43.6434C14.5024 43.7976 14.9669 44.106 15.4741 44.5686H17.1614V47.1749H14.8338Z" fill="black"/>
<path d="M24.2269 55.5179C23.7096 55.5179 23.215 55.446 22.743 55.302C22.2709 55.1581 21.829 54.9551 21.4172 54.6929C21.0105 54.4307 20.6389 54.1171 20.3024 53.7522C19.971 53.3821 19.6873 52.9734 19.4512 52.5262C19.2152 52.0738 19.0319 51.5906 18.9014 51.0765C18.7708 50.5625 18.7055 50.0253 18.7055 49.465C18.7055 48.9047 18.7708 48.3675 18.9014 47.8534C19.0319 47.3342 19.2152 46.851 19.4512 46.4038C19.6873 45.9514 19.971 45.5428 20.3024 45.1778C20.6389 44.8077 21.0105 44.4915 21.4172 44.2294C21.829 43.9672 22.2709 43.7642 22.743 43.6202C23.215 43.4763 23.7096 43.4043 24.2269 43.4043C24.7441 43.4043 25.2387 43.4763 25.7108 43.6202C26.1878 43.7642 26.6297 43.9672 27.0365 44.2294C27.4483 44.4915 27.8199 44.8077 28.1513 45.1778C28.4878 45.5428 28.774 45.9514 29.01 46.4038C29.251 46.851 29.4368 47.3342 29.5674 47.8534C29.698 48.3675 29.7633 48.9047 29.7633 49.465C29.7633 50.0202 29.698 50.5573 29.5674 51.0765C29.4368 51.5906 29.251 52.0738 29.01 52.5262C28.774 52.9734 28.4878 53.3821 28.1513 53.7522C27.8199 54.1171 27.4483 54.4307 27.0365 54.6929C26.6297 54.9551 26.1878 55.1581 25.7108 55.302C25.2387 55.446 24.7441 55.5179 24.2269 55.5179ZM24.2269 53.0968C24.6637 53.0968 25.063 53.0017 25.4245 52.8115C25.7911 52.6161 26.105 52.354 26.3661 52.025C26.6272 51.6908 26.8281 51.3053 26.9687 50.8683C27.1143 50.4263 27.1871 49.9585 27.1871 49.465C27.1871 48.9664 27.1143 48.496 26.9687 48.0539C26.8231 47.6118 26.6172 47.2263 26.351 46.8973C26.0899 46.5632 25.7786 46.301 25.417 46.1108C25.0554 45.9155 24.6587 45.8178 24.2269 45.8178C23.795 45.8178 23.3983 45.9155 23.0367 46.1108C22.6752 46.301 22.3638 46.5632 22.1027 46.8973C21.8416 47.2263 21.6357 47.6118 21.485 48.0539C21.3394 48.496 21.2666 48.9664 21.2666 49.465C21.2666 49.9585 21.3394 50.4263 21.485 50.8683C21.6357 51.3053 21.8416 51.6908 22.1027 52.025C22.3638 52.354 22.6752 52.6161 23.0367 52.8115C23.3983 53.0017 23.795 53.0968 24.2269 53.0968Z" fill="black"/>
<path d="M36.7534 46.9127C36.7283 46.7328 36.6656 46.5632 36.5651 46.4038C36.4697 46.2445 36.3442 46.1082 36.1885 45.9951C36.0378 45.8769 35.8646 45.7844 35.6688 45.7175C35.4779 45.6507 35.2771 45.6173 35.0661 45.6173C34.8753 45.6173 34.6971 45.6379 34.5313 45.679C34.3656 45.7201 34.22 45.7844 34.0945 45.8718C33.9739 45.954 33.876 46.062 33.8007 46.1956C33.7304 46.3293 33.6952 46.4886 33.6952 46.6737C33.6952 46.905 33.7429 47.0901 33.8384 47.2289C33.9388 47.3625 34.0643 47.473 34.215 47.5604C34.3706 47.6478 34.5414 47.7172 34.7272 47.7686C34.913 47.82 35.0938 47.8766 35.2695 47.9383L37.341 48.6476C37.6272 48.7505 37.8959 48.8918 38.1469 49.0717C38.398 49.2517 38.614 49.4701 38.7947 49.7271C38.9805 49.9842 39.1262 50.2798 39.2316 50.6139C39.3371 50.948 39.3898 51.3233 39.3898 51.7397C39.3898 52.3051 39.2869 52.8217 39.081 53.2895C38.8801 53.7573 38.5964 54.1583 38.2298 54.4924C37.8632 54.8265 37.4238 55.0861 36.9116 55.2712C36.3994 55.4563 35.832 55.5488 35.2093 55.5488C34.7724 55.5488 34.3581 55.4974 33.9664 55.3946C33.5797 55.2969 33.2257 55.153 32.9043 54.9628C32.5829 54.7726 32.3017 54.5464 32.0607 54.2842C31.8196 54.0169 31.6313 53.7162 31.4957 53.3821H30.7199V51.0611H33.4467V51.5392C33.4467 51.7705 33.4818 51.9838 33.5521 52.1792C33.6274 52.3745 33.7379 52.5442 33.8835 52.6881C34.0292 52.832 34.2125 52.9451 34.4334 53.0274C34.6544 53.1045 34.913 53.143 35.2093 53.143C35.6612 53.143 36.0052 53.0376 36.2412 52.8269C36.4772 52.611 36.5952 52.3128 36.5952 51.9324C36.5952 51.7371 36.5526 51.5752 36.4672 51.4467C36.3869 51.313 36.2814 51.2025 36.1508 51.1151C36.0203 51.0226 35.8746 50.9455 35.7139 50.8838C35.5533 50.8221 35.3951 50.7655 35.2394 50.7141L33.5145 50.1435C33.188 50.0407 32.8717 49.8968 32.5654 49.7117C32.2641 49.5267 31.9954 49.2953 31.7594 49.0178C31.5284 48.7402 31.3426 48.4163 31.202 48.0462C31.0664 47.6709 30.9986 47.2443 30.9986 46.7662C30.9986 46.211 31.099 45.7175 31.2999 45.2857C31.5008 44.8488 31.782 44.4813 32.1435 44.1831C32.5051 43.885 32.9344 43.6588 33.4316 43.5046C33.9287 43.3503 34.4736 43.2732 35.0661 43.2732C35.5332 43.2732 35.965 43.3298 36.3617 43.4429C36.7585 43.5508 37.1125 43.6973 37.4238 43.8824C37.7402 44.0674 38.0063 44.2808 38.2223 44.5224C38.4432 44.7588 38.6115 45.0056 38.727 45.2626H39.4802V47.5913H36.7534V46.9127Z" fill="black"/>
<path d="M46.5231 53.197H47.6605L47.1483 51.5161H43.6382L43.1259 53.197H44.3311V55.3097H39.9999V53.197H40.8511L43.962 43.6202H46.9826L50.0257 53.197H50.8543V55.3097H46.5231V53.197ZM44.2332 49.5421H46.5382L45.3782 45.7407L44.2332 49.5421Z" fill="black"/>
</svg>
