<svg width="377" height="82" viewBox="0 0 377 82" fill="none" xmlns="http://www.w3.org/2000/svg">
<path d="M15.4048 63.8505C15.2783 63.8505 15.1792 63.8174 15.1075 63.7512C15.0358 63.685 15 63.6012 15 63.5C15 63.3949 15.0401 63.3072 15.1202 63.2371C15.2045 63.1632 15.3078 63.1262 15.4301 63.1262C15.5524 63.1262 15.6473 63.1651 15.7147 63.243C15.7864 63.317 15.8223 63.3929 15.8223 63.4708C15.8223 63.5954 15.7801 63.6908 15.6958 63.757C15.6156 63.8193 15.5187 63.8505 15.4048 63.8505Z" fill="white"/>
<path d="M16.3454 61.035C16.4128 61.0389 16.4972 61.0428 16.5984 61.0467C16.7038 61.0467 16.8134 61.0487 16.9273 61.0526C17.0454 61.0526 17.155 61.0526 17.2562 61.0526C17.3616 61.0526 17.446 61.0526 17.5092 61.0526V64.1484C17.5092 64.2963 17.524 64.4112 17.5535 64.493C17.583 64.5748 17.6399 64.6312 17.7243 64.6624C17.8086 64.6935 17.9246 64.7091 18.0721 64.7091L18.0342 65.0012C17.9161 65.0012 17.777 65.0012 17.6167 65.0012C17.4607 65.0012 17.2984 65.0012 17.1297 65.0012C16.9652 65.0051 16.8134 65.007 16.6743 65.007C16.5351 65.0109 16.4255 65.0148 16.3454 65.0187C16.3454 64.9603 16.3475 64.9077 16.3517 64.861C16.3559 64.8104 16.3644 64.7695 16.377 64.7383C16.4909 64.7305 16.5794 64.7111 16.6427 64.6799C16.7059 64.6449 16.7502 64.5864 16.7755 64.5047C16.8008 64.4229 16.8134 64.3041 16.8134 64.1484V61.847C16.8134 61.7068 16.8008 61.6016 16.7755 61.5315C16.7502 61.4576 16.7059 61.405 16.6427 61.3738C16.5794 61.3427 16.4909 61.3232 16.377 61.3154C16.3644 61.2804 16.3559 61.2375 16.3517 61.1869C16.3475 61.1363 16.3454 61.0857 16.3454 61.035ZM19.2929 63.9673C19.3688 63.9829 19.4321 64.0023 19.4827 64.0257C19.5375 64.0491 19.586 64.0783 19.6281 64.1133C19.5817 64.2457 19.5417 64.3937 19.508 64.5572C19.4784 64.7169 19.4531 64.8688 19.4321 65.0129C19.3435 65.009 19.2254 65.007 19.0778 65.007C18.9345 65.007 18.7721 65.0051 18.5908 65.0012C18.4137 65.0012 18.2282 65.0012 18.0342 65.0012L18.0721 64.7091H18.1227C18.4011 64.7091 18.6119 64.6819 18.7553 64.6273C18.9028 64.5689 19.0146 64.4852 19.0905 64.3762C19.1664 64.2671 19.2339 64.1308 19.2929 63.9673ZM18.8628 62.3668C18.8586 62.4642 18.8544 62.5693 18.8501 62.6822C18.8501 62.7913 18.8501 62.9003 18.8501 63.0093C18.8501 63.1223 18.8501 63.2391 18.8501 63.3598C18.8544 63.4805 18.8586 63.5915 18.8628 63.6928C18.7995 63.6928 18.7405 63.6908 18.6857 63.6869C18.6351 63.6791 18.5845 63.6694 18.5339 63.6577C18.517 63.463 18.4601 63.3306 18.3631 63.2605C18.2703 63.1904 18.0996 63.1554 17.8508 63.1554H17.408V62.875H17.8508C18.1038 62.875 18.2767 62.8438 18.3694 62.7815C18.4664 62.7192 18.517 62.5966 18.5212 62.4136C18.5803 62.3941 18.6372 62.3824 18.692 62.3785C18.7468 62.3707 18.8038 62.3668 18.8628 62.3668ZM19.2739 61.035C19.2824 61.1207 19.2929 61.222 19.3056 61.3388C19.3182 61.4556 19.333 61.5705 19.3498 61.6834C19.3667 61.7924 19.3857 61.8898 19.4068 61.9755C19.3688 62.0027 19.3203 62.0222 19.2613 62.0339C19.2065 62.0456 19.1432 62.0514 19.0715 62.0514C19.0589 61.9268 19.023 61.81 18.964 61.7009C18.905 61.588 18.8038 61.4965 18.6604 61.4264C18.5212 61.3524 18.3209 61.3154 18.0595 61.3154H17.3574L17.5029 61.0526C17.8318 61.0526 18.1143 61.0526 18.3505 61.0526C18.5866 61.0487 18.7806 61.0448 18.9324 61.0409C19.0842 61.037 19.198 61.035 19.2739 61.035Z" fill="white"/>
<path d="M21.5788 65.0537C21.3174 65.0537 21.0833 65.0206 20.8767 64.9544C20.6701 64.8882 20.4635 64.7987 20.2568 64.6857C20.2821 64.5378 20.299 64.3879 20.3074 64.236C20.3159 64.0841 20.3201 63.9498 20.3201 63.8329C20.3749 63.8174 20.4403 63.8076 20.5162 63.8037C20.5921 63.796 20.6617 63.7921 20.7249 63.7921C20.7418 63.9984 20.7797 64.1717 20.8388 64.3119C20.902 64.4521 20.999 64.5592 21.1297 64.6332C21.2647 64.7072 21.4396 64.7442 21.6547 64.7442C21.933 64.7442 22.1312 64.6877 22.2493 64.5748C22.3716 64.4618 22.4327 64.3255 22.4327 64.1659C22.4327 64.0062 22.3821 63.8738 22.2809 63.7687C22.1797 63.6636 22.049 63.574 21.8887 63.5C21.7285 63.4221 21.5598 63.3462 21.3827 63.2722C21.2056 63.1982 21.0369 63.1125 20.8767 63.0152C20.7165 62.9139 20.5858 62.7893 20.4845 62.6414C20.3833 62.4934 20.3327 62.3045 20.3327 62.0748C20.3327 61.845 20.3876 61.6503 20.4972 61.4907C20.6068 61.331 20.7586 61.2103 20.9526 61.1285C21.1508 61.0428 21.3827 61 21.6484 61C21.796 61 21.9393 61.0117 22.0785 61.035C22.2176 61.0584 22.3441 61.0896 22.458 61.1285C22.5761 61.1674 22.6709 61.2103 22.7426 61.257C22.7426 61.3777 22.7447 61.514 22.749 61.6659C22.7532 61.8178 22.7637 61.9443 22.7806 62.0456C22.73 62.065 22.6646 62.0806 22.5845 62.0923C22.5086 62.104 22.4369 62.1098 22.3694 62.1098C22.3273 61.8879 22.2725 61.7185 22.205 61.6016C22.1375 61.4848 22.0553 61.405 21.9583 61.3621C21.8655 61.3154 21.7559 61.2921 21.6294 61.2921C21.4186 61.2921 21.252 61.3388 21.1297 61.4322C21.0116 61.5257 20.9526 61.6581 20.9526 61.8294C20.9526 61.993 21.0032 62.1293 21.1044 62.2383C21.2056 62.3474 21.3363 62.4408 21.4966 62.5187C21.6568 62.5966 21.8255 62.6745 22.0026 62.7523C22.1839 62.8302 22.3547 62.9178 22.5149 63.0152C22.6794 63.1125 22.8122 63.2333 22.9134 63.3773C23.0146 63.5214 23.0652 63.7025 23.0652 63.9206C23.0652 64.1231 23.0125 64.3119 22.9071 64.4871C22.8017 64.6585 22.6393 64.7967 22.42 64.9019C22.205 65.0031 21.9246 65.0537 21.5788 65.0537Z" fill="white"/>
<path d="M24.4416 61.3388C24.2476 61.3388 24.0979 61.368 23.9925 61.4264C23.8913 61.4848 23.8154 61.5685 23.7648 61.6776C23.7184 61.7827 23.6804 61.9093 23.6509 62.0572C23.5919 62.0572 23.5286 62.0533 23.4612 62.0456C23.3937 62.0378 23.3368 62.0222 23.2904 61.9988C23.3241 61.8353 23.3494 61.6678 23.3663 61.4965C23.3874 61.3252 23.3979 61.1713 23.3979 61.035C23.5286 61.0389 23.6783 61.0428 23.847 61.0467C24.0199 61.0506 24.2075 61.0526 24.4099 61.0526C24.6166 61.0526 24.8358 61.0526 25.0678 61.0526C25.2997 61.0526 25.519 61.0526 25.7256 61.0526C25.9322 61.0526 26.122 61.0506 26.2948 61.0467C26.4719 61.0428 26.6216 61.0389 26.7439 61.035C26.7397 61.1791 26.7418 61.3291 26.7503 61.4848C26.7629 61.6406 26.7798 61.8119 26.8009 61.9988C26.7503 62.0183 26.6933 62.0339 26.6301 62.0456C26.571 62.0572 26.5057 62.0611 26.434 62.0572C26.4213 61.8197 26.3581 61.6406 26.2442 61.5199C26.1346 61.3991 25.9596 61.3388 25.7193 61.3388H24.4416ZM24.7136 61.2161H25.4156V64.2068C25.4156 64.3431 25.4283 64.4482 25.4536 64.5222C25.4789 64.5962 25.5274 64.6488 25.5991 64.6799C25.675 64.7111 25.7846 64.7305 25.928 64.7383C25.9406 64.7695 25.9491 64.8104 25.9533 64.861C25.9617 64.9077 25.9659 64.9603 25.9659 65.0187C25.831 65.0109 25.6876 65.0051 25.5358 65.0012C25.384 65.0012 25.2301 65.0012 25.0741 65.0012C24.9687 65.0012 24.859 65.0012 24.7452 65.0012C24.6355 65.0051 24.528 65.007 24.4226 65.007C24.3214 65.0109 24.2286 65.0148 24.1443 65.0187C24.1443 64.9603 24.1464 64.9077 24.1506 64.861C24.159 64.8104 24.1696 64.7695 24.1822 64.7383C24.3256 64.7305 24.4352 64.7111 24.5112 64.6799C24.5871 64.6488 24.6398 64.5962 24.6693 64.5222C24.6988 64.4482 24.7136 64.3431 24.7136 64.2068V61.2161Z" fill="white"/>
<path d="M29.6179 64.2009C29.6179 64.3411 29.6284 64.4502 29.6495 64.528C29.6748 64.602 29.7191 64.6546 29.7823 64.6857C29.8498 64.7169 29.9405 64.7344 30.0543 64.7383C30.067 64.7812 30.0754 64.8259 30.0796 64.8727C30.0838 64.9194 30.0859 64.9681 30.0859 65.0187C30.0227 65.0148 29.9531 65.0109 29.8772 65.007C29.8055 65.007 29.7317 65.0051 29.6558 65.0012C29.5799 65.0012 29.5082 65.0012 29.4408 65.0012C29.3733 65.0012 29.3206 65.0012 29.2826 65.0012C29.2278 65.0012 29.1646 65.0012 29.0929 65.0012C29.0254 65.0012 28.9537 65.0012 28.8778 65.0012C28.8061 65.0051 28.7366 65.007 28.6691 65.007C28.6016 65.0109 28.5384 65.0148 28.4793 65.0187C28.4793 64.9681 28.4815 64.9194 28.4857 64.8727C28.4899 64.822 28.4983 64.7773 28.511 64.7383C28.6206 64.7305 28.707 64.7111 28.7703 64.6799C28.8336 64.6488 28.8778 64.5962 28.9031 64.5222C28.9326 64.4482 28.9474 64.3431 28.9474 64.2068V62.875C28.9474 62.7387 28.9348 62.6336 28.9095 62.5596C28.8842 62.4856 28.8399 62.433 28.7766 62.4019C28.7176 62.3668 28.629 62.3474 28.511 62.3435C28.5025 62.3045 28.4941 62.2617 28.4857 62.215C28.4815 62.1643 28.4793 62.1137 28.4793 62.0631C28.5299 62.067 28.589 62.0709 28.6564 62.0748C28.7281 62.0748 28.8019 62.0767 28.8778 62.0806C28.9579 62.0806 29.0317 62.0806 29.0992 62.0806C29.1709 62.0806 29.232 62.0806 29.2826 62.0806C29.3712 62.0806 29.464 62.0806 29.5609 62.0806C29.6621 62.0767 29.757 62.0748 29.8456 62.0748C29.9383 62.0709 30.0185 62.067 30.0859 62.0631C30.0859 62.1176 30.0817 62.1682 30.0733 62.215C30.0691 62.2617 30.0627 62.3045 30.0543 62.3435C29.9405 62.3474 29.8519 62.3668 29.7886 62.4019C29.7254 62.433 29.6811 62.4856 29.6558 62.5596C29.6305 62.6336 29.6179 62.7387 29.6179 62.875V64.2009Z" fill="white"/>
<path d="M33.0499 64.09C32.8855 64.2224 32.7231 64.3178 32.5629 64.3762C32.4069 64.4307 32.2403 64.4579 32.0632 64.4579C31.8186 64.4579 31.5972 64.4112 31.399 64.3178C31.2051 64.2243 31.0491 64.0958 30.931 63.9322C30.8171 63.7648 30.7602 63.5701 30.7602 63.3481C30.7602 63.1301 30.7982 62.9393 30.8741 62.7757C30.9542 62.6121 31.0617 62.4778 31.1966 62.3727C31.3316 62.2636 31.4855 62.1819 31.6584 62.1273C31.8355 62.0728 32.0189 62.0456 32.2087 62.0456C32.5334 62.0456 32.8011 62.102 33.012 62.215C33.227 62.3279 33.3873 62.4992 33.4927 62.729C33.5981 62.9548 33.6508 63.2371 33.6508 63.5759C33.6508 63.8914 33.5939 64.1737 33.48 64.4229C33.3662 64.6682 33.2165 64.8843 33.0309 65.0713C32.8454 65.2621 32.6388 65.4217 32.4111 65.5502C32.1876 65.6787 31.962 65.778 31.7343 65.8481C31.5066 65.9221 31.2957 65.9708 31.1018 65.9942C31.0722 65.9591 31.0533 65.9221 31.0448 65.8832C31.0364 65.8442 31.0322 65.7995 31.0322 65.7488C31.4749 65.6048 31.8376 65.4334 32.1201 65.2348C32.4068 65.0362 32.6198 64.8045 32.7589 64.5397C32.8981 64.2749 32.9677 63.9712 32.9677 63.6285C32.9677 63.1729 32.8918 62.8438 32.74 62.6414C32.5882 62.4389 32.3858 62.3376 32.1328 62.3376C31.9978 62.3376 31.8776 62.3746 31.7722 62.4486C31.671 62.5187 31.5909 62.616 31.5319 62.7407C31.4771 62.8653 31.4496 63.0016 31.4496 63.1495C31.4496 63.3403 31.4792 63.4961 31.5382 63.6168C31.5972 63.7375 31.6731 63.831 31.7659 63.8972C31.8629 63.9634 31.9662 64.0101 32.0758 64.0374C32.1855 64.0607 32.2909 64.0724 32.3921 64.0724C32.5144 64.0724 32.6346 64.051 32.7526 64.0082C32.8707 63.9653 32.9719 63.9011 33.0562 63.8154L33.0499 64.09Z" fill="white"/>
<path d="M35.7375 62.3668C35.5519 62.3668 35.3959 62.4136 35.2694 62.507C35.1471 62.6005 35.0522 62.727 34.9848 62.8867C34.9173 63.0463 34.8836 63.2235 34.8836 63.4182C34.8836 63.5584 34.911 63.7044 34.9658 63.8563C35.0206 64.0082 35.0986 64.1484 35.1998 64.2769C35.301 64.4015 35.4233 64.5027 35.5667 64.5806C35.7143 64.6585 35.8787 64.6974 36.06 64.6974C36.254 64.6974 36.41 64.6507 36.5281 64.5572C36.6462 64.4599 36.7326 64.3314 36.7874 64.1717C36.8422 64.0082 36.8697 63.8329 36.8697 63.646C36.8697 63.5136 36.8444 63.3734 36.7938 63.2255C36.7474 63.0775 36.6757 62.9393 36.5787 62.8107C36.4817 62.6783 36.3615 62.5713 36.2182 62.4895C36.079 62.4077 35.9188 62.3668 35.7375 62.3668ZM35.9082 62.0456C36.195 62.0456 36.4648 62.102 36.7179 62.215C36.9709 62.3279 37.1733 62.4934 37.3251 62.7114C37.4811 62.9295 37.5591 63.1963 37.5591 63.5117C37.5591 63.8271 37.4832 64.0997 37.3314 64.3294C37.1796 64.5592 36.9793 64.7383 36.7305 64.8668C36.4817 64.9914 36.2076 65.0537 35.9082 65.0537C35.6088 65.0537 35.3305 64.9914 35.0733 64.8668C34.8161 64.7383 34.6074 64.5592 34.4471 64.3294C34.2911 64.0997 34.2131 63.8271 34.2131 63.5117C34.2131 63.278 34.2616 63.0697 34.3586 62.8867C34.4556 62.6998 34.5842 62.546 34.7444 62.4252C34.9046 62.3006 35.086 62.2072 35.2884 62.1449C35.4908 62.0787 35.6974 62.0456 35.9082 62.0456Z" fill="white"/>
<path d="M38.5689 62.0689C38.7165 62.0728 38.8494 62.0767 38.9674 62.0806C39.0855 62.0806 39.2015 62.0806 39.3153 62.0806C39.4334 62.0806 39.5599 62.0806 39.6948 62.0806C39.8129 62.0806 39.8972 62.0533 39.9478 61.9988C39.9984 61.9443 40.0237 61.8762 40.0237 61.7944C40.0659 61.7788 40.1165 61.7691 40.1755 61.7652C40.2388 61.7613 40.2957 61.7593 40.3463 61.7593C40.3294 61.8762 40.3189 62.0027 40.3147 62.139C40.3105 62.2714 40.3084 62.4097 40.3084 62.5537C40.2873 62.5888 40.2535 62.616 40.2072 62.6355C40.165 62.655 40.1017 62.6647 40.0174 62.6647C39.9331 62.6647 39.8298 62.6647 39.7075 62.6647C39.5852 62.6647 39.4587 62.6667 39.328 62.6706C39.2015 62.6706 39.0855 62.6725 38.9801 62.6764C38.8747 62.6764 38.7988 62.6803 38.7524 62.6881L38.6132 63.2313C39.0012 63.3014 39.3322 63.3949 39.6063 63.5117C39.8804 63.6246 40.0891 63.7726 40.2325 63.9556C40.3758 64.1347 40.4475 64.3586 40.4475 64.6273C40.4475 64.8532 40.399 65.0498 40.302 65.2173C40.2051 65.3886 40.0764 65.5327 39.9162 65.6495C39.756 65.7664 39.5831 65.854 39.3975 65.9124C39.212 65.9708 39.0307 66 38.8536 66C38.6849 66 38.5352 65.9825 38.4045 65.9474C38.2738 65.9124 38.1726 65.8695 38.1009 65.8189C38.1009 65.78 38.1072 65.741 38.1199 65.7021C38.1367 65.6671 38.1599 65.632 38.1894 65.597C38.2443 65.6125 38.3265 65.6301 38.4361 65.6495C38.5458 65.669 38.6659 65.6787 38.7967 65.6787C38.9653 65.6787 39.1192 65.6417 39.2584 65.5678C39.4018 65.4977 39.5156 65.3964 39.5999 65.264C39.6843 65.1316 39.7265 64.9739 39.7265 64.7909C39.7265 64.639 39.6864 64.5047 39.6063 64.3879C39.5262 64.2671 39.4186 64.1659 39.2837 64.0841C39.1488 64.0023 38.9948 63.9361 38.822 63.8855C38.6533 63.8349 38.4804 63.7998 38.3033 63.7804C38.2653 63.7531 38.2358 63.72 38.2147 63.6811C38.1937 63.6421 38.1831 63.6032 38.1831 63.5643L38.5689 62.0689Z" fill="white"/>
<path d="M41.5825 63.8505C41.456 63.8505 41.3569 63.8174 41.2853 63.7512C41.2136 63.685 41.1777 63.6012 41.1777 63.5C41.1777 63.3949 41.2178 63.3072 41.2979 63.2371C41.3822 63.1632 41.4856 63.1262 41.6078 63.1262C41.7301 63.1262 41.825 63.1651 41.8925 63.243C41.9642 63.317 42 63.3929 42 63.4708C42 63.5954 41.9578 63.6908 41.8735 63.757C41.7934 63.8193 41.6964 63.8505 41.5825 63.8505Z" fill="white"/>
<path d="M0 16.6643V56.3269L0.428598 57.1815C0.7423 57.8096 8.33956 72.6375 27.3495 81.1249L29 81.8614L30.6505 81.1249C49.6591 72.6381 57.2577 57.8096 57.5714 57.1828L58 56.3269V16.6643H0ZM55.7918 55.8047L55.5969 56.1946C55.2967 56.7923 48.0461 70.9386 29.7507 79.109L29 79.4434L28.25 79.109C9.95326 70.9386 2.70326 56.7923 2.40311 56.1946L2.20818 55.8047V18.8738H55.7918V55.8047Z" fill="white"/>
<path d="M53.7593 20.7147V55.3697C53.7593 55.3697 46.7132 69.4314 28.8077 77.4282C10.9015 69.4314 3.85742 55.3697 3.85742 55.3697V20.7147H53.7593Z" stroke="white" stroke-miterlimit="10"/>
<path d="M33.1665 3.96645L28.9999 1.68599L24.834 3.96645L17.5879 0V15.1029H40.412V0L33.1665 3.96645ZM38.564 13.2536H19.4378V3.11765L24.834 6.07394L28.9999 3.79346L33.1665 6.07394L38.5633 3.11765V13.2536H38.564Z" fill="white"/>
<path d="M33.1666 7.47977L29 5.19931L24.8341 7.47977L20.6682 5.19931V12.022H37.3325V5.19931L33.1666 7.47977Z" fill="white"/>
<path d="M48.5341 5.20707L49.7502 7.6715L52.4689 8.0646L50.5015 9.9836L50.9663 12.6914L48.5341 11.4133L46.1013 12.6914L46.5667 9.9836L44.5986 8.0646L47.3174 7.6715L48.5341 5.20707Z" fill="white"/>
<path d="M9.46657 5.20706L10.6833 7.67149L13.402 8.06459L11.4346 9.98359L11.8987 12.6914L9.46657 11.4133L7.03505 12.6914L7.49915 9.98359L5.53174 8.06459L8.25049 7.67149L9.46657 5.20706Z" fill="white"/>
<path d="M22.7128 29.5832H27.6014V31.7036H26.5695L23.9406 41.2727H20.6866L18.9616 33.9783L17.199 41.2727H13.9751L11.3011 31.7036H10.1486V29.5832H15.0447V31.7036H13.8546L15.5343 38.0034L17.5606 29.6063H20.3627L22.3513 38.0034L24.0385 31.7036H22.7128V29.5832Z" fill="white"/>
<path d="M28.6108 29.5832H37.695V33.5697H35.2394V31.9118H32.3092V34.2174H34.5765V36.4535H32.3092V39.16H35.2394V37.0858H37.695V41.2727H28.6108V39.16H29.8085V31.9118H28.6108V29.5832Z" fill="white"/>
<path d="M44.4969 32.8757C44.4717 32.6958 44.409 32.5261 44.3085 32.3668C44.2131 32.2074 44.0876 32.0712 43.9319 31.9581C43.7813 31.8399 43.608 31.7473 43.4122 31.6805C43.2214 31.6137 43.0205 31.5803 42.8096 31.5803C42.6188 31.5803 42.4405 31.6008 42.2748 31.642C42.1091 31.6831 41.9634 31.7473 41.8379 31.8347C41.7174 31.917 41.6194 32.0249 41.5441 32.1586C41.4738 32.2922 41.4387 32.4516 41.4387 32.6367C41.4387 32.868 41.4864 33.053 41.5818 33.1918C41.6822 33.3255 41.8078 33.436 41.9584 33.5234C42.1141 33.6108 42.2848 33.6802 42.4706 33.7316C42.6564 33.783 42.8372 33.8395 43.013 33.9012L45.0844 34.6106C45.3706 34.7134 45.6393 34.8548 45.8904 35.0347C46.1415 35.2146 46.3574 35.4331 46.5382 35.6901C46.724 35.9471 46.8696 36.2427 46.9751 36.5769C47.0805 36.911 47.1332 37.2862 47.1332 37.7026C47.1332 38.2681 47.0303 38.7847 46.8244 39.2525C46.6235 39.7203 46.3398 40.1212 45.9732 40.4554C45.6066 40.7895 45.1673 41.0491 44.655 41.2342C44.1428 41.4192 43.5754 41.5118 42.9527 41.5118C42.5158 41.5118 42.1015 41.4603 41.7098 41.3575C41.3232 41.2599 40.9691 41.1159 40.6477 40.9257C40.3264 40.7355 40.0451 40.5094 39.8041 40.2472C39.5631 39.9799 39.3747 39.6792 39.2392 39.345H38.4633V37.0241H41.1901V37.5021C41.1901 37.7335 41.2252 37.9468 41.2955 38.1421C41.3709 38.3375 41.4813 38.5071 41.627 38.6511C41.7726 38.795 41.9559 38.9081 42.1768 38.9903C42.3978 39.0674 42.6564 39.106 42.9527 39.106C43.4046 39.106 43.7486 39.0006 43.9846 38.7898C44.2207 38.5739 44.3387 38.2758 44.3387 37.8954C44.3387 37.7001 44.296 37.5381 44.2106 37.4096C44.1303 37.276 44.0248 37.1654 43.8943 37.0781C43.7637 36.9855 43.6181 36.9084 43.4574 36.8467C43.2967 36.785 43.1385 36.7285 42.9828 36.6771L41.2579 36.1065C40.9315 36.0037 40.6151 35.8598 40.3088 35.6747C40.0075 35.4896 39.7388 35.2583 39.5028 34.9807C39.2718 34.7031 39.086 34.3793 38.9454 34.0092C38.8098 33.6339 38.742 33.2072 38.742 32.7292C38.742 32.174 38.8425 31.6805 39.0433 31.2487C39.2442 30.8118 39.5254 30.4442 39.887 30.1461C40.2485 29.8479 40.6779 29.6217 41.175 29.4675C41.6722 29.3133 42.217 29.2362 42.8096 29.2362C43.2766 29.2362 43.7085 29.2927 44.1052 29.4058C44.5019 29.5138 44.8559 29.6603 45.1673 29.8454C45.4836 30.0304 45.7498 30.2437 45.9657 30.4853C46.1867 30.7218 46.3549 30.9686 46.4704 31.2256H47.2236V33.5542H44.4969V32.8757Z" fill="white"/>
<path d="M14.8338 47.1749C14.5526 46.7636 14.299 46.4732 14.073 46.3036C13.8471 46.1288 13.6035 46.0054 13.3424 45.9335C13.0813 45.8563 12.8076 45.8178 12.5213 45.8178C12.0995 45.8178 11.7078 45.9155 11.3463 46.1108C10.9847 46.301 10.6708 46.5632 10.4047 46.8973C10.1436 47.2263 9.93768 47.6118 9.78703 48.0539C9.63638 48.4909 9.56105 48.9561 9.56105 49.4496C9.56105 49.9482 9.63387 50.4186 9.7795 50.8606C9.93015 51.2976 10.136 51.6805 10.3972 52.0095C10.6583 52.3385 10.9696 52.6007 11.3312 52.796C11.6928 52.9862 12.0895 53.0813 12.5213 53.0813C12.8226 53.0813 13.1038 53.0325 13.365 52.9348C13.6261 52.832 13.8621 52.6984 14.073 52.5339C14.289 52.3694 14.4773 52.1817 14.638 51.971C14.7987 51.7551 14.9242 51.5315 15.0146 51.3001L17.4401 51.9941C17.2844 52.4979 17.0559 52.9657 16.7546 53.3975C16.4533 53.8241 16.0892 54.1943 15.6624 54.5078C15.2406 54.8214 14.7635 55.0681 14.2312 55.2481C13.7039 55.428 13.134 55.5179 12.5213 55.5179C12.0041 55.5179 11.5095 55.446 11.0374 55.302C10.5654 55.1581 10.1235 54.9551 9.71171 54.6929C9.30495 54.4307 8.93335 54.1146 8.59689 53.7445C8.26546 53.3743 7.98174 52.9657 7.74572 52.5184C7.5097 52.0661 7.32641 51.5829 7.19585 51.0688C7.06528 50.5496 7 50.0099 7 49.4496C7 48.6117 7.14312 47.8277 7.42935 47.0978C7.71559 46.3627 8.10728 45.7227 8.60443 45.1778C9.10157 44.6278 9.68409 44.196 10.352 43.8824C11.0249 43.5637 11.748 43.4043 12.5213 43.4043C13.139 43.4043 13.6587 43.484 14.0806 43.6434C14.5024 43.7976 14.9669 44.106 15.4741 44.5686H17.1614V47.1749H14.8338Z" fill="white"/>
<path d="M24.2269 55.5179C23.7096 55.5179 23.215 55.446 22.743 55.302C22.2709 55.1581 21.829 54.9551 21.4172 54.6929C21.0105 54.4307 20.6389 54.1171 20.3024 53.7522C19.971 53.3821 19.6873 52.9734 19.4512 52.5262C19.2152 52.0738 19.0319 51.5906 18.9014 51.0765C18.7708 50.5625 18.7055 50.0253 18.7055 49.465C18.7055 48.9047 18.7708 48.3675 18.9014 47.8534C19.0319 47.3342 19.2152 46.851 19.4512 46.4038C19.6873 45.9514 19.971 45.5428 20.3024 45.1778C20.6389 44.8077 21.0105 44.4915 21.4172 44.2294C21.829 43.9672 22.2709 43.7642 22.743 43.6202C23.215 43.4763 23.7096 43.4043 24.2269 43.4043C24.7441 43.4043 25.2387 43.4763 25.7108 43.6202C26.1878 43.7642 26.6297 43.9672 27.0365 44.2294C27.4483 44.4915 27.8199 44.8077 28.1513 45.1778C28.4878 45.5428 28.774 45.9514 29.01 46.4038C29.251 46.851 29.4368 47.3342 29.5674 47.8534C29.698 48.3675 29.7633 48.9047 29.7633 49.465C29.7633 50.0202 29.698 50.5573 29.5674 51.0765C29.4368 51.5906 29.251 52.0738 29.01 52.5262C28.774 52.9734 28.4878 53.3821 28.1513 53.7522C27.8199 54.1171 27.4483 54.4307 27.0365 54.6929C26.6297 54.9551 26.1878 55.1581 25.7108 55.302C25.2387 55.446 24.7441 55.5179 24.2269 55.5179ZM24.2269 53.0968C24.6637 53.0968 25.063 53.0017 25.4245 52.8115C25.7911 52.6161 26.105 52.354 26.3661 52.025C26.6272 51.6908 26.8281 51.3053 26.9687 50.8683C27.1143 50.4263 27.1871 49.9585 27.1871 49.465C27.1871 48.9664 27.1143 48.496 26.9687 48.0539C26.8231 47.6118 26.6172 47.2263 26.351 46.8973C26.0899 46.5632 25.7786 46.301 25.417 46.1108C25.0554 45.9155 24.6587 45.8178 24.2269 45.8178C23.795 45.8178 23.3983 45.9155 23.0367 46.1108C22.6752 46.301 22.3638 46.5632 22.1027 46.8973C21.8416 47.2263 21.6357 47.6118 21.485 48.0539C21.3394 48.496 21.2666 48.9664 21.2666 49.465C21.2666 49.9585 21.3394 50.4263 21.485 50.8683C21.6357 51.3053 21.8416 51.6908 22.1027 52.025C22.3638 52.354 22.6752 52.6161 23.0367 52.8115C23.3983 53.0017 23.795 53.0968 24.2269 53.0968Z" fill="white"/>
<path d="M36.7534 46.9127C36.7283 46.7328 36.6656 46.5632 36.5651 46.4038C36.4697 46.2445 36.3442 46.1082 36.1885 45.9951C36.0378 45.8769 35.8646 45.7844 35.6688 45.7175C35.4779 45.6507 35.2771 45.6173 35.0661 45.6173C34.8753 45.6173 34.6971 45.6379 34.5313 45.679C34.3656 45.7201 34.22 45.7844 34.0945 45.8718C33.9739 45.954 33.876 46.062 33.8007 46.1956C33.7304 46.3293 33.6952 46.4886 33.6952 46.6737C33.6952 46.905 33.7429 47.0901 33.8384 47.2289C33.9388 47.3625 34.0643 47.473 34.215 47.5604C34.3706 47.6478 34.5414 47.7172 34.7272 47.7686C34.913 47.82 35.0938 47.8766 35.2695 47.9383L37.341 48.6476C37.6272 48.7505 37.8959 48.8918 38.1469 49.0717C38.398 49.2517 38.614 49.4701 38.7947 49.7271C38.9805 49.9842 39.1262 50.2798 39.2316 50.6139C39.3371 50.948 39.3898 51.3233 39.3898 51.7397C39.3898 52.3051 39.2869 52.8217 39.081 53.2895C38.8801 53.7573 38.5964 54.1583 38.2298 54.4924C37.8632 54.8265 37.4238 55.0861 36.9116 55.2712C36.3994 55.4563 35.832 55.5488 35.2093 55.5488C34.7724 55.5488 34.3581 55.4974 33.9664 55.3946C33.5797 55.2969 33.2257 55.153 32.9043 54.9628C32.5829 54.7726 32.3017 54.5464 32.0607 54.2842C31.8196 54.0169 31.6313 53.7162 31.4957 53.3821H30.7199V51.0611H33.4467V51.5392C33.4467 51.7705 33.4818 51.9838 33.5521 52.1792C33.6274 52.3745 33.7379 52.5442 33.8835 52.6881C34.0292 52.832 34.2125 52.9451 34.4334 53.0274C34.6544 53.1045 34.913 53.143 35.2093 53.143C35.6612 53.143 36.0052 53.0376 36.2412 52.8269C36.4772 52.611 36.5952 52.3128 36.5952 51.9324C36.5952 51.7371 36.5526 51.5752 36.4672 51.4467C36.3869 51.313 36.2814 51.2025 36.1508 51.1151C36.0203 51.0226 35.8746 50.9455 35.7139 50.8838C35.5533 50.8221 35.3951 50.7655 35.2394 50.7141L33.5145 50.1435C33.188 50.0407 32.8717 49.8968 32.5654 49.7117C32.2641 49.5267 31.9954 49.2953 31.7594 49.0178C31.5284 48.7402 31.3426 48.4163 31.202 48.0462C31.0664 47.6709 30.9986 47.2443 30.9986 46.7662C30.9986 46.211 31.099 45.7175 31.2999 45.2857C31.5008 44.8488 31.782 44.4813 32.1435 44.1831C32.5051 43.885 32.9344 43.6588 33.4316 43.5046C33.9287 43.3503 34.4736 43.2732 35.0661 43.2732C35.5332 43.2732 35.965 43.3298 36.3617 43.4429C36.7585 43.5508 37.1125 43.6973 37.4238 43.8824C37.7402 44.0674 38.0063 44.2808 38.2223 44.5224C38.4432 44.7588 38.6115 45.0056 38.727 45.2626H39.4802V47.5913H36.7534V46.9127Z" fill="white"/>
<path d="M46.5231 53.197H47.6605L47.1483 51.5161H43.6382L43.1259 53.197H44.3311V55.3097H39.9999V53.197H40.8511L43.962 43.6202H46.9826L50.0257 53.197H50.8543V55.3097H46.5231V53.197ZM44.2332 49.5421H46.5382L45.3782 45.7407L44.2332 49.5421Z" fill="white"/>
<path d="M79.4592 29.9989C79.6002 30.4921 79.7334 30.9852 79.8587 31.4784C79.9997 31.9557 80.1328 32.4489 80.2582 32.958C80.3835 32.4489 80.5088 31.9557 80.6341 31.4784C80.7594 30.9852 80.8848 30.4921 81.0101 29.9989L83.5244 20.4534H85.2162L87.9419 29.9989C88.0829 30.4921 88.2161 30.9852 88.3414 31.4784C88.4824 31.9557 88.6155 32.4489 88.7409 32.958C88.8662 32.4489 88.9915 31.9557 89.1168 31.4784C89.2422 30.9852 89.3675 30.4921 89.4928 29.9989L91.4901 22.4341C91.7094 21.6386 91.5449 20.9784 90.9967 20.4534H95.0148C94.7171 20.7239 94.4743 21.0023 94.2864 21.2886C94.0984 21.575 93.9261 21.9807 93.7694 22.5057L89.4928 37.158H87.4955L84.7932 28.3046C84.6679 27.8909 84.5504 27.4932 84.4408 27.1114C84.3311 26.7136 84.2136 26.308 84.0883 25.8943C83.9786 26.308 83.869 26.7136 83.7593 27.1114C83.6653 27.4932 83.5557 27.8909 83.4304 28.3046L80.9866 37.158H78.9893L74.3602 22.5057C74.2192 22.0443 74.0547 21.6705 73.8668 21.3841C73.6788 21.0977 73.4203 20.7875 73.0913 20.4534H77.6264C77.4228 20.692 77.2818 20.9705 77.2034 21.2886C77.1251 21.5909 77.1486 21.9727 77.2739 22.4341L79.4592 29.9989Z" fill="white"/>
<path d="M99.8752 35.2011H103.705C104.301 35.2011 104.802 35.1296 105.209 34.9864C105.616 34.8273 106.047 34.6125 106.502 34.3421L106.032 37.158H96.233C96.4993 36.8239 96.703 36.5137 96.8439 36.2273C96.9849 35.9409 97.0554 35.5671 97.0554 35.1057V22.5057C97.0554 22.0602 96.9771 21.6943 96.8204 21.408C96.6795 21.1057 96.4758 20.7875 96.2095 20.4534H105.797V23.2693C105.483 22.9989 105.194 22.792 104.927 22.6489C104.677 22.4898 104.348 22.4102 103.94 22.4102H99.8752V27.6602H103.329C103.737 27.6602 104.066 27.5886 104.316 27.4455C104.583 27.2864 104.872 27.0716 105.186 26.8011V30.4046C104.872 30.1341 104.583 29.9273 104.316 29.7841C104.066 29.625 103.737 29.5455 103.329 29.5455H99.8752V35.2011Z" fill="white"/>
<path d="M107.686 33.5546C108.406 34.2068 109.166 34.7159 109.965 35.0818C110.764 35.4477 111.586 35.6307 112.432 35.6307C113.372 35.6307 114.085 35.4159 114.571 34.9864C115.072 34.5409 115.323 33.9364 115.323 33.1727C115.323 32.4886 115.135 31.9239 114.759 31.4784C114.383 31.0171 113.913 30.6193 113.349 30.2852C112.785 29.9352 112.174 29.6091 111.516 29.3068C110.858 28.9886 110.247 28.6307 109.683 28.233C109.119 27.8352 108.649 27.358 108.273 26.8011C107.897 26.2284 107.709 25.5205 107.709 24.6773C107.709 24.0091 107.835 23.3966 108.085 22.8398C108.336 22.267 108.696 21.7739 109.166 21.3602C109.652 20.9307 110.239 20.5966 110.929 20.358C111.618 20.1193 112.393 20 113.255 20C113.881 20 114.516 20.0636 115.158 20.1909C115.816 20.3023 116.474 20.4693 117.132 20.692L116.967 23.5557C116.466 23.0625 115.902 22.6807 115.276 22.4102C114.649 22.1239 113.983 21.9807 113.278 21.9807C112.432 21.9807 111.767 22.1795 111.281 22.5773C110.811 22.975 110.576 23.4841 110.576 24.1045C110.576 24.6773 110.764 25.1546 111.14 25.5364C111.516 25.9182 111.986 26.2682 112.55 26.5864C113.114 26.9046 113.725 27.2227 114.383 27.5409C115.041 27.8591 115.652 28.2409 116.216 28.6864C116.779 29.1318 117.249 29.6648 117.625 30.2852C118.001 30.9057 118.189 31.6773 118.189 32.6C118.189 33.3 118.064 33.9523 117.813 34.5568C117.578 35.1614 117.218 35.6943 116.732 36.1557C116.263 36.6012 115.667 36.9512 114.947 37.2057C114.226 37.4762 113.38 37.6114 112.409 37.6114C111.563 37.6114 110.748 37.508 109.965 37.3012C109.182 37.1102 108.461 36.8557 107.803 36.5375L107.686 33.5546Z" fill="white"/>
<path d="M127.456 35.2011C128.051 35.2011 128.552 35.1296 128.959 34.9864C129.367 34.8273 129.797 34.6125 130.252 34.3421L129.782 37.158H119.983C120.25 36.8239 120.453 36.5137 120.594 36.2273C120.735 35.9409 120.806 35.5671 120.806 35.1057V22.5057C120.806 22.0602 120.727 21.6943 120.571 21.408C120.43 21.1057 120.226 20.7875 119.96 20.4534H124.471C124.205 20.7875 123.994 21.1057 123.837 21.408C123.696 21.6943 123.625 22.0602 123.625 22.5057V35.2011H127.456Z" fill="white"/>
<path d="M134.984 35.2011H138.814C139.41 35.2011 139.911 35.1296 140.318 34.9864C140.726 34.8273 141.156 34.6125 141.611 34.3421L141.141 37.158H131.342C131.608 36.8239 131.812 36.5137 131.953 36.2273C132.094 35.9409 132.164 35.5671 132.164 35.1057V22.5057C132.164 22.0602 132.086 21.6943 131.929 21.408C131.789 21.1057 131.585 20.7875 131.319 20.4534H140.906V23.2693C140.592 22.9989 140.303 22.792 140.036 22.6489C139.786 22.4898 139.457 22.4102 139.049 22.4102H134.984V27.6602H138.438C138.846 27.6602 139.175 27.5886 139.425 27.4455C139.692 27.2864 139.981 27.0716 140.295 26.8011V30.4046C139.981 30.1341 139.692 29.9273 139.425 29.7841C139.175 29.625 138.846 29.5455 138.438 29.5455H134.984V35.2011Z" fill="white"/>
<path d="M148.834 26.7057C149.006 27.0398 149.155 27.3659 149.28 27.6841C149.421 27.9864 149.578 28.3205 149.75 28.6864C149.923 28.3205 150.087 27.9705 150.244 27.6364C150.4 27.3023 150.541 26.9921 150.667 26.7057L152.852 22.1C152.977 21.8295 153.048 21.5511 153.063 21.2648C153.079 20.9784 153.016 20.708 152.875 20.4534H156.753C156.439 20.6443 156.181 20.8511 155.977 21.0739C155.789 21.2966 155.601 21.5909 155.413 21.9568L150.831 30.8341V35.1057C150.831 35.5671 150.902 35.9409 151.043 36.2273C151.184 36.5137 151.387 36.8239 151.654 37.158H147.189C147.455 36.8239 147.659 36.5137 147.8 36.2273C147.941 35.9409 148.011 35.5671 148.011 35.1057V31.1921L143.476 22.1239C143.304 21.758 143.116 21.4557 142.912 21.217C142.724 20.9784 142.45 20.7239 142.09 20.4534H146.578C146.406 20.6125 146.32 20.8591 146.32 21.1932C146.32 21.5114 146.398 21.8216 146.554 22.1239L148.834 26.7057Z" fill="white"/>
<path d="M174.899 36.6091C174.241 36.9273 173.512 37.1739 172.713 37.3489C171.914 37.5239 171.1 37.6114 170.269 37.6114C168.938 37.6114 167.755 37.3807 166.721 36.9193C165.687 36.458 164.81 35.8296 164.09 35.0341C163.385 34.2227 162.844 33.2841 162.468 32.2182C162.092 31.1364 161.904 29.9909 161.904 28.7818C161.904 27.5727 162.092 26.4352 162.468 25.3693C162.844 24.3034 163.385 23.3727 164.09 22.5773C164.81 21.7818 165.687 21.1534 166.721 20.692C167.755 20.2307 168.938 20 170.269 20C171.131 20 171.961 20.0955 172.76 20.2864C173.575 20.4773 174.327 20.7318 175.016 21.05L174.523 24.1284C174.053 23.4761 173.473 22.967 172.784 22.6011C172.094 22.2193 171.303 22.0284 170.41 22.0284C169.565 22.0284 168.805 22.2034 168.131 22.5534C167.458 22.9034 166.886 23.3807 166.416 23.9852C165.946 24.5898 165.586 25.3057 165.335 26.133C165.084 26.9602 164.959 27.8432 164.959 28.7818C164.959 29.7364 165.084 30.6273 165.335 31.4546C165.601 32.2659 165.977 32.9818 166.463 33.6023C166.948 34.2068 167.544 34.6841 168.249 35.0341C168.954 35.3841 169.753 35.5591 170.645 35.5591C171.585 35.5591 172.447 35.3762 173.23 35.0102C174.013 34.6443 174.656 34.1591 175.157 33.5546L174.899 36.6091Z" fill="white"/>
<path d="M175.764 28.7818C175.764 27.5727 175.944 26.4352 176.305 25.3693C176.681 24.3034 177.213 23.3727 177.903 22.5773C178.608 21.7818 179.453 21.1534 180.44 20.692C181.443 20.2307 182.563 20 183.801 20C185.054 20 186.174 20.2307 187.161 20.692C188.163 21.1534 189.009 21.7818 189.699 22.5773C190.403 23.3727 190.936 24.3034 191.296 25.3693C191.672 26.4352 191.86 27.5727 191.86 28.7818C191.86 29.9909 191.672 31.1364 191.296 32.2182C190.936 33.2841 190.403 34.2227 189.699 35.0341C189.009 35.8296 188.163 36.458 187.161 36.9193C186.174 37.3807 185.054 37.6114 183.801 37.6114C182.563 37.6114 181.443 37.3807 180.44 36.9193C179.453 36.458 178.608 35.8296 177.903 35.0341C177.213 34.2227 176.681 33.2841 176.305 32.2182C175.944 31.1364 175.764 29.9909 175.764 28.7818ZM178.819 28.7818C178.819 29.7364 178.929 30.6273 179.148 31.4546C179.383 32.2659 179.712 32.9818 180.135 33.6023C180.574 34.2068 181.098 34.6841 181.709 35.0341C182.336 35.3841 183.033 35.5591 183.801 35.5591C184.584 35.5591 185.281 35.3841 185.892 35.0341C186.503 34.6841 187.028 34.2068 187.466 33.6023C187.905 32.9818 188.234 32.2659 188.453 31.4546C188.688 30.6273 188.806 29.7364 188.806 28.7818C188.806 27.8432 188.688 26.9602 188.453 26.133C188.234 25.3057 187.905 24.5898 187.466 23.9852C187.028 23.3807 186.503 22.9034 185.892 22.5534C185.281 22.2034 184.584 22.0284 183.801 22.0284C183.033 22.0284 182.336 22.2034 181.709 22.5534C181.098 22.9034 180.574 23.3807 180.135 23.9852C179.712 24.5898 179.383 25.3057 179.148 26.133C178.929 26.9602 178.819 27.8432 178.819 28.7818Z" fill="white"/>
<path d="M200.886 35.2011C201.482 35.2011 201.983 35.1296 202.39 34.9864C202.797 34.8273 203.228 34.6125 203.682 34.3421L203.213 37.158H193.414C193.68 36.8239 193.884 36.5137 194.025 36.2273C194.166 35.9409 194.236 35.5671 194.236 35.1057V22.5057C194.236 22.0602 194.158 21.6943 194.001 21.408C193.86 21.1057 193.657 20.7875 193.39 20.4534H197.902C197.636 20.7875 197.424 21.1057 197.268 21.408C197.127 21.6943 197.056 22.0602 197.056 22.5057V35.2011H200.886Z" fill="white"/>
<path d="M212.245 35.2011C212.84 35.2011 213.342 35.1296 213.749 34.9864C214.156 34.8273 214.587 34.6125 215.041 34.3421L214.571 37.158H204.773C205.039 36.8239 205.243 36.5137 205.384 36.2273C205.525 35.9409 205.595 35.5671 205.595 35.1057V22.5057C205.595 22.0602 205.517 21.6943 205.36 21.408C205.219 21.1057 205.016 20.7875 204.749 20.4534H209.261C208.994 20.7875 208.783 21.1057 208.626 21.408C208.485 21.6943 208.415 22.0602 208.415 22.5057V35.2011H212.245Z" fill="white"/>
<path d="M219.774 35.2011H223.604C224.199 35.2011 224.7 35.1296 225.108 34.9864C225.515 34.8273 225.946 34.6125 226.4 34.3421L225.93 37.158H216.132C216.398 36.8239 216.601 36.5137 216.742 36.2273C216.883 35.9409 216.954 35.5671 216.954 35.1057V22.5057C216.954 22.0602 216.876 21.6943 216.719 21.408C216.578 21.1057 216.374 20.7875 216.108 20.4534H225.695V23.2693C225.382 22.9989 225.092 22.792 224.826 22.6489C224.575 22.4898 224.246 22.4102 223.839 22.4102H219.774V27.6602H223.228C223.635 27.6602 223.964 27.5886 224.215 27.4455C224.481 27.2864 224.771 27.0716 225.084 26.8011V30.4046C224.771 30.1341 224.481 29.9273 224.215 29.7841C223.964 29.625 223.635 29.5455 223.228 29.5455H219.774V35.2011Z" fill="white"/>
<path d="M241.213 36.1796C240.273 36.6409 239.396 36.9909 238.581 37.2296C237.767 37.4841 236.866 37.6114 235.879 37.6114C234.516 37.6114 233.302 37.3807 232.237 36.9193C231.172 36.458 230.279 35.8296 229.558 35.0341C228.838 34.2227 228.289 33.2841 227.913 32.2182C227.537 31.1364 227.349 29.9909 227.349 28.7818C227.349 27.5727 227.537 26.4352 227.913 25.3693C228.289 24.3034 228.838 23.3727 229.558 22.5773C230.294 21.7818 231.187 21.1534 232.237 20.692C233.302 20.2307 234.516 20 235.879 20C236.756 20 237.602 20.0955 238.417 20.2864C239.247 20.4773 240.007 20.7318 240.696 21.05L240.203 24.1284C239.733 23.4761 239.145 22.967 238.44 22.6011C237.735 22.2193 236.929 22.0284 236.02 22.0284C235.158 22.0284 234.375 22.2034 233.67 22.5534C232.981 22.9034 232.394 23.3807 231.908 23.9852C231.422 24.5898 231.046 25.3057 230.78 26.133C230.529 26.9602 230.404 27.8432 230.404 28.7818C230.404 29.7364 230.529 30.6273 230.78 31.4546C231.046 32.2659 231.422 32.9818 231.908 33.6023C232.394 34.2068 232.989 34.6841 233.694 35.0341C234.399 35.3841 235.205 35.5591 236.114 35.5591C236.929 35.5591 237.688 35.4159 238.393 35.1296V30.3091C238.393 29.8636 238.315 29.4977 238.158 29.2114C238.017 28.9091 237.814 28.5909 237.547 28.2568H242.059C241.793 28.5909 241.581 28.9091 241.425 29.2114C241.284 29.4977 241.213 29.8636 241.213 30.3091V36.1796Z" fill="white"/>
<path d="M247.127 35.2011H250.957C251.552 35.2011 252.053 35.1296 252.461 34.9864C252.868 34.8273 253.299 34.6125 253.753 34.3421L253.283 37.158H243.484C243.751 36.8239 243.954 36.5137 244.095 36.2273C244.236 35.9409 244.307 35.5671 244.307 35.1057V22.5057C244.307 22.0602 244.229 21.6943 244.072 21.408C243.931 21.1057 243.727 20.7875 243.461 20.4534H253.048V23.2693C252.735 22.9989 252.445 22.792 252.179 22.6489C251.928 22.4898 251.599 22.4102 251.192 22.4102H247.127V27.6602H250.581C250.988 27.6602 251.317 27.5886 251.568 27.4455C251.834 27.2864 252.124 27.0716 252.437 26.8011V30.4046C252.124 30.1341 251.834 29.9273 251.568 29.7841C251.317 29.625 250.988 29.5455 250.581 29.5455H247.127V35.2011Z" fill="white"/>
<path d="M258.925 28.7818C258.925 27.5727 259.105 26.4352 259.465 25.3693C259.841 24.3034 260.374 23.3727 261.063 22.5773C261.768 21.7818 262.614 21.1534 263.601 20.692C264.603 20.2307 265.723 20 266.961 20C268.214 20 269.334 20.2307 270.321 20.692C271.324 21.1534 272.169 21.7818 272.859 22.5773C273.564 23.3727 274.096 24.3034 274.457 25.3693C274.833 26.4352 275.021 27.5727 275.021 28.7818C275.021 29.9909 274.833 31.1364 274.457 32.2182C274.096 33.2841 273.564 34.2227 272.859 35.0341C272.169 35.8296 271.324 36.458 270.321 36.9193C269.334 37.3807 268.214 37.6114 266.961 37.6114C265.723 37.6114 264.603 37.3807 263.601 36.9193C262.614 36.458 261.768 35.8296 261.063 35.0341C260.374 34.2227 259.841 33.2841 259.465 32.2182C259.105 31.1364 258.925 29.9909 258.925 28.7818ZM261.979 28.7818C261.979 29.7364 262.089 30.6273 262.308 31.4546C262.543 32.2659 262.872 32.9818 263.295 33.6023C263.734 34.2068 264.259 34.6841 264.869 35.0341C265.496 35.3841 266.193 35.5591 266.961 35.5591C267.744 35.5591 268.441 35.3841 269.052 35.0341C269.663 34.6841 270.188 34.2068 270.626 33.6023C271.065 32.9818 271.394 32.2659 271.613 31.4546C271.848 30.6273 271.966 29.7364 271.966 28.7818C271.966 27.8432 271.848 26.9602 271.613 26.133C271.394 25.3057 271.065 24.5898 270.626 23.9852C270.188 23.3807 269.663 22.9034 269.052 22.5534C268.441 22.2034 267.744 22.0284 266.961 22.0284C266.193 22.0284 265.496 22.2034 264.869 22.5534C264.259 22.9034 263.734 23.3807 263.295 23.9852C262.872 24.5898 262.543 25.3057 262.308 26.133C262.089 26.9602 261.979 27.8432 261.979 28.7818Z" fill="white"/>
<path d="M276.574 37.158C276.84 36.8239 277.044 36.5137 277.185 36.2273C277.326 35.9409 277.397 35.5671 277.397 35.1057V22.5057C277.397 22.0602 277.318 21.6943 277.162 21.408C277.021 21.1057 276.817 20.7875 276.551 20.4534H286.138V23.2693C285.824 22.9989 285.535 22.792 285.268 22.6489C285.018 22.4898 284.689 22.4102 284.281 22.4102H280.216V27.6602H283.506C283.913 27.6602 284.242 27.5886 284.493 27.4455C284.759 27.2864 285.049 27.0716 285.362 26.8011V30.4046C285.049 30.1341 284.759 29.9273 284.493 29.7841C284.242 29.625 283.913 29.5455 283.506 29.5455H280.216V35.1057C280.216 35.5671 280.287 35.9409 280.428 36.2273C280.569 36.5137 280.772 36.8239 281.039 37.158H276.574Z" fill="white"/>
<path d="M291.997 33.5546C292.717 34.2068 293.477 34.7159 294.276 35.0818C295.075 35.4477 295.897 35.6307 296.743 35.6307C297.683 35.6307 298.396 35.4159 298.882 34.9864C299.383 34.5409 299.634 33.9364 299.634 33.1727C299.634 32.4886 299.446 31.9239 299.07 31.4784C298.694 31.0171 298.224 30.6193 297.66 30.2852C297.096 29.9352 296.485 29.6091 295.827 29.3068C295.169 28.9886 294.558 28.6307 293.994 28.233C293.43 27.8352 292.96 27.358 292.584 26.8011C292.208 26.2284 292.02 25.5205 292.02 24.6773C292.02 24.0091 292.146 23.3966 292.396 22.8398C292.647 22.267 293.007 21.7739 293.477 21.3602C293.963 20.9307 294.55 20.5966 295.24 20.358C295.929 20.1193 296.704 20 297.566 20C298.192 20 298.827 20.0636 299.469 20.1909C300.127 20.3023 300.785 20.4693 301.443 20.692L301.278 23.5557C300.777 23.0625 300.213 22.6807 299.587 22.4102C298.96 22.1239 298.294 21.9807 297.589 21.9807C296.743 21.9807 296.078 22.1795 295.592 22.5773C295.122 22.975 294.887 23.4841 294.887 24.1045C294.887 24.6773 295.075 25.1546 295.451 25.5364C295.827 25.9182 296.297 26.2682 296.861 26.5864C297.425 26.9046 298.036 27.2227 298.694 27.5409C299.352 27.8591 299.963 28.2409 300.527 28.6864C301.09 29.1318 301.56 29.6648 301.936 30.2852C302.312 30.9057 302.5 31.6773 302.5 32.6C302.5 33.3 302.375 33.9523 302.124 34.5568C301.889 35.1614 301.529 35.6943 301.043 36.1557C300.574 36.6012 299.978 36.9512 299.258 37.2057C298.537 37.4762 297.691 37.6114 296.72 37.6114C295.874 37.6114 295.059 37.508 294.276 37.3012C293.493 37.1102 292.772 36.8557 292.114 36.5375L291.997 33.5546Z" fill="white"/>
<path d="M317.148 36.6091C316.49 36.9273 315.761 37.1739 314.962 37.3489C314.163 37.5239 313.349 37.6114 312.518 37.6114C311.187 37.6114 310.004 37.3807 308.97 36.9193C307.936 36.458 307.059 35.8296 306.339 35.0341C305.634 34.2227 305.093 33.2841 304.717 32.2182C304.341 31.1364 304.153 29.9909 304.153 28.7818C304.153 27.5727 304.341 26.4352 304.717 25.3693C305.093 24.3034 305.634 23.3727 306.339 22.5773C307.059 21.7818 307.936 21.1534 308.97 20.692C310.004 20.2307 311.187 20 312.518 20C313.38 20 314.21 20.0955 315.009 20.2864C315.824 20.4773 316.576 20.7318 317.265 21.05L316.772 24.1284C316.302 23.4761 315.722 22.967 315.033 22.6011C314.343 22.2193 313.552 22.0284 312.659 22.0284C311.814 22.0284 311.054 22.2034 310.38 22.5534C309.707 22.9034 309.135 23.3807 308.665 23.9852C308.195 24.5898 307.835 25.3057 307.584 26.133C307.333 26.9602 307.208 27.8432 307.208 28.7818C307.208 29.7364 307.333 30.6273 307.584 31.4546C307.85 32.2659 308.226 32.9818 308.712 33.6023C309.197 34.2068 309.793 34.6841 310.498 35.0341C311.203 35.3841 312.002 35.5591 312.894 35.5591C313.834 35.5591 314.696 35.3762 315.479 35.0102C316.262 34.6443 316.905 34.1591 317.406 33.5546L317.148 36.6091Z" fill="white"/>
<path d="M322.118 35.1057C322.118 35.5671 322.188 35.9409 322.329 36.2273C322.47 36.5137 322.674 36.8239 322.94 37.158H318.476C318.742 36.8239 318.945 36.5137 319.086 36.2273C319.227 35.9409 319.298 35.5671 319.298 35.1057V22.5057C319.298 22.0602 319.22 21.6943 319.063 21.408C318.922 21.1057 318.718 20.7875 318.452 20.4534H322.964C322.697 20.7875 322.486 21.1057 322.329 21.408C322.188 21.6943 322.118 22.0602 322.118 22.5057V35.1057Z" fill="white"/>
<path d="M328.268 35.2011H332.098C332.693 35.2011 333.194 35.1296 333.602 34.9864C334.009 34.8273 334.44 34.6125 334.894 34.3421L334.424 37.158H324.625C324.892 36.8239 325.095 36.5137 325.236 36.2273C325.377 35.9409 325.448 35.5671 325.448 35.1057V22.5057C325.448 22.0602 325.369 21.6943 325.213 21.408C325.072 21.1057 324.868 20.7875 324.602 20.4534H334.189V23.2693C333.876 22.9989 333.586 22.792 333.32 22.6489C333.069 22.4898 332.74 22.4102 332.333 22.4102H328.268V27.6602H331.722C332.129 27.6602 332.458 27.5886 332.709 27.4455C332.975 27.2864 333.265 27.0716 333.578 26.8011V30.4046C333.265 30.1341 332.975 29.9273 332.709 29.7841C332.458 29.625 332.129 29.5455 331.722 29.5455H328.268V35.2011Z" fill="white"/>
<path d="M335.984 37.158C336.25 36.8239 336.454 36.5137 336.595 36.2273C336.736 35.9409 336.807 35.5671 336.807 35.1057V22.5057C336.807 22.0602 336.728 21.6943 336.572 21.408C336.431 21.1057 336.227 20.7875 335.961 20.4534H339.133L345.148 28.7102C345.477 29.1557 345.798 29.6011 346.112 30.0466C346.441 30.4921 346.762 30.9455 347.075 31.4068V22.5057C347.075 22.0443 347.005 21.6705 346.864 21.3841C346.723 21.0977 346.519 20.7875 346.253 20.4534H350.036C349.77 20.7875 349.566 21.0977 349.425 21.3841C349.284 21.6705 349.213 22.0443 349.213 22.5057V37.158H347.968L341.342 28.3284C340.919 27.7716 340.511 27.2068 340.12 26.6341C339.728 26.0614 339.337 25.4807 338.945 24.8921V35.1057C338.945 35.5671 339.015 35.9409 339.156 36.2273C339.297 36.5137 339.501 36.8239 339.767 37.158H335.984Z" fill="white"/>
<path d="M364.556 36.6091C363.898 36.9273 363.17 37.1739 362.371 37.3489C361.572 37.5239 360.757 37.6114 359.927 37.6114C358.596 37.6114 357.413 37.3807 356.379 36.9193C355.345 36.458 354.468 35.8296 353.747 35.0341C353.042 34.2227 352.502 33.2841 352.126 32.2182C351.75 31.1364 351.562 29.9909 351.562 28.7818C351.562 27.5727 351.75 26.4352 352.126 25.3693C352.502 24.3034 353.042 23.3727 353.747 22.5773C354.468 21.7818 355.345 21.1534 356.379 20.692C357.413 20.2307 358.596 20 359.927 20C360.789 20 361.619 20.0955 362.418 20.2864C363.233 20.4773 363.984 20.7318 364.674 21.05L364.18 24.1284C363.71 23.4761 363.131 22.967 362.441 22.6011C361.752 22.2193 360.961 22.0284 360.068 22.0284C359.222 22.0284 358.462 22.2034 357.789 22.5534C357.115 22.9034 356.543 23.3807 356.074 23.9852C355.604 24.5898 355.243 25.3057 354.993 26.133C354.742 26.9602 354.617 27.8432 354.617 28.7818C354.617 29.7364 354.742 30.6273 354.993 31.4546C355.259 32.2659 355.635 32.9818 356.121 33.6023C356.606 34.2068 357.201 34.6841 357.906 35.0341C358.611 35.3841 359.41 35.5591 360.303 35.5591C361.243 35.5591 362.105 35.3762 362.888 35.0102C363.671 34.6443 364.313 34.1591 364.815 33.5546L364.556 36.6091Z" fill="white"/>
<path d="M369.526 35.2011H373.357C373.952 35.2011 374.453 35.1296 374.86 34.9864C375.268 34.8273 375.698 34.6125 376.153 34.3421L375.683 37.158H365.884C366.151 36.8239 366.354 36.5137 366.495 36.2273C366.636 35.9409 366.707 35.5671 366.707 35.1057V22.5057C366.707 22.0602 366.628 21.6943 366.472 21.408C366.331 21.1057 366.127 20.7875 365.861 20.4534H375.448V23.2693C375.135 22.9989 374.845 22.792 374.578 22.6489C374.328 22.4898 373.999 22.4102 373.592 22.4102H369.526V27.6602H372.981C373.388 27.6602 373.717 27.5886 373.967 27.4455C374.234 27.2864 374.524 27.0716 374.837 26.8011V30.4046C374.524 30.1341 374.234 29.9273 373.967 29.7841C373.717 29.625 373.388 29.5455 372.981 29.5455H369.526V35.2011Z" fill="white"/>
<path d="M72 54.4553C72 53.2852 72.1743 52.1844 72.523 51.1528C72.8869 50.1213 73.4023 49.2207 74.0693 48.4509C74.7515 47.6811 75.5702 47.0729 76.5252 46.6265C77.4955 46.18 78.5794 45.9567 79.777 45.9567C80.9898 45.9567 82.0737 46.18 83.0288 46.6265C83.999 47.0729 84.8177 47.6811 85.4847 48.4509C86.1669 49.2207 86.6823 50.1213 87.031 51.1528C87.3949 52.1844 87.5768 53.2852 87.5768 54.4553C87.5768 55.6254 87.3949 56.7339 87.031 57.7808C86.6823 58.8123 86.1669 59.7207 85.4847 60.5059C84.8177 61.2757 83.999 61.8838 83.0288 62.3303C82.0737 62.7768 80.9898 63 79.777 63C78.5794 63 77.4955 62.7768 76.5252 62.3303C75.5702 61.8838 74.7515 61.2757 74.0693 60.5059C73.4023 59.7207 72.8869 58.8123 72.523 57.7808C72.1743 56.7339 72 55.6254 72 54.4553ZM74.9562 54.4553C74.9562 55.379 75.0623 56.2412 75.2745 57.0418C75.5019 57.827 75.8203 58.5198 76.2296 59.1202C76.6541 59.7053 77.1619 60.1672 77.7532 60.5059C78.3596 60.8446 79.0342 61.0139 79.777 61.0139C80.535 61.0139 81.2096 60.8446 81.8009 60.5059C82.3921 60.1672 82.9 59.7053 83.3244 59.1202C83.7489 58.5198 84.0673 57.827 84.2795 57.0418C84.5069 56.2412 84.6206 55.379 84.6206 54.4553C84.6206 53.5469 84.5069 52.6924 84.2795 51.8919C84.0673 51.0913 83.7489 50.3984 83.3244 49.8134C82.9 49.2284 82.3921 48.7665 81.8009 48.4278C81.2096 48.0891 80.535 47.9197 79.777 47.9197C79.0342 47.9197 78.3596 48.0891 77.7532 48.4278C77.1619 48.7665 76.6541 49.2284 76.2296 49.8134C75.8203 50.3984 75.5019 51.0913 75.2745 51.8919C75.0623 52.6924 74.9562 53.5469 74.9562 54.4553Z" fill="white"/>
<path d="M96.3115 60.6675C96.8876 60.6675 97.3727 60.5982 97.7669 60.4597C98.161 60.3057 98.5779 60.0979 99.0176 59.8361L98.5628 62.5612H89.0803C89.338 62.2379 89.5351 61.9377 89.6715 61.6606C89.8079 61.3834 89.8762 61.0216 89.8762 60.5751V48.3816C89.8762 47.9505 89.8004 47.5964 89.6488 47.3193C89.5123 47.0267 89.3152 46.7188 89.0575 46.3955H93.4236C93.1659 46.7188 92.9612 47.0267 92.8096 47.3193C92.6732 47.5964 92.6049 47.9505 92.6049 48.3816V60.6675H96.3115Z" fill="white"/>
<path d="M105.257 60.6444C106.197 60.6444 107.001 60.4828 107.668 60.1595C108.335 59.8361 108.873 59.3974 109.282 58.8431C109.707 58.2889 110.018 57.6345 110.215 56.8801C110.412 56.1257 110.51 55.3174 110.51 54.4553C110.51 53.5931 110.419 52.7925 110.237 52.0535C110.055 51.2991 109.76 50.6448 109.351 50.0905C108.956 49.5363 108.441 49.1052 107.804 48.7973C107.167 48.474 106.394 48.3123 105.485 48.3123H103.597V60.6444H105.257ZM100.073 62.5612C100.33 62.2379 100.527 61.9377 100.664 61.6606C100.8 61.3834 100.869 61.0216 100.869 60.5751V48.3816C100.869 47.9505 100.793 47.5964 100.641 47.3193C100.505 47.0267 100.308 46.7188 100.05 46.3955H105.667C107.001 46.3955 108.153 46.6111 109.123 47.0421C110.109 47.4578 110.92 48.0352 111.556 48.7742C112.208 49.4978 112.686 50.3523 112.989 51.3376C113.307 52.3229 113.466 53.3699 113.466 54.4784C113.466 55.5869 113.307 56.6338 112.989 57.6191C112.686 58.5891 112.208 59.4435 111.556 60.1825C110.92 60.9216 110.109 61.5066 109.123 61.9377C108.153 62.3534 107.001 62.5612 105.667 62.5612H100.073Z" fill="white"/>
<path d="M119.15 59.074C119.848 59.7053 120.583 60.1979 121.356 60.5521C122.129 60.9062 122.925 61.0832 123.744 61.0832C124.654 61.0832 125.343 60.8754 125.813 60.4597C126.298 60.0286 126.541 59.4435 126.541 58.7045C126.541 58.0425 126.359 57.496 125.995 57.0649C125.631 56.6184 125.177 56.2335 124.631 55.9102C124.085 55.5715 123.494 55.2559 122.857 54.9633C122.22 54.6554 121.629 54.309 121.083 53.9241C120.538 53.5392 120.083 53.0773 119.719 52.5385C119.355 51.9842 119.173 51.2991 119.173 50.4831C119.173 49.8365 119.295 49.2438 119.537 48.7049C119.78 48.1506 120.128 47.6734 120.583 47.2731C121.053 46.8574 121.622 46.5341 122.289 46.3031C122.956 46.0722 123.706 45.9567 124.54 45.9567C125.146 45.9567 125.76 46.0183 126.382 46.1415C127.018 46.2493 127.655 46.4109 128.292 46.6265L128.133 49.3977C127.648 48.9204 127.102 48.5509 126.495 48.2892C125.889 48.0121 125.245 47.8735 124.563 47.8735C123.744 47.8735 123.1 48.066 122.63 48.4509C122.175 48.8358 121.947 49.3284 121.947 49.9289C121.947 50.4831 122.129 50.945 122.493 51.3145C122.857 51.684 123.312 52.0227 123.858 52.3306C124.403 52.6386 124.995 52.9465 125.631 53.2544C126.268 53.5623 126.859 53.9318 127.405 54.3629C127.951 54.794 128.406 55.3097 128.769 55.9102C129.133 56.5106 129.315 57.2573 129.315 58.1503C129.315 58.8277 129.194 59.4589 128.951 60.044C128.724 60.629 128.375 61.1448 127.905 61.5913C127.451 62.0224 126.874 62.3611 126.177 62.6074C125.48 62.8691 124.661 63 123.721 63C122.903 63 122.114 62.8999 121.356 62.6998C120.598 62.515 119.901 62.2687 119.264 61.9608L119.15 59.074Z" fill="white"/>
<path d="M134.894 62.5612C135.152 62.2533 135.349 61.9531 135.486 61.6606C135.622 61.368 135.69 61.0062 135.69 60.5751V48.3123H132.711C132.317 48.3123 131.991 48.3893 131.733 48.5432C131.491 48.6818 131.218 48.882 130.915 49.1437V46.3955H143.194V49.1437C142.891 48.882 142.611 48.6818 142.353 48.5432C142.11 48.3893 141.792 48.3123 141.398 48.3123H138.419V60.5751C138.419 60.8061 138.434 61.0062 138.464 61.1756C138.495 61.3449 138.54 61.5066 138.601 61.6606C138.677 61.7991 138.76 61.9454 138.851 62.0993C138.957 62.2379 139.078 62.3919 139.215 62.5612H134.894Z" fill="white"/>
<path d="M148.211 57.2265C148.211 57.6422 148.249 58.0656 148.325 58.4967C148.416 58.9124 148.575 59.2973 148.802 59.6514C149.03 59.9901 149.348 60.2672 149.757 60.4828C150.167 60.6983 150.697 60.8061 151.349 60.8061C151.925 60.8061 152.501 60.6983 153.077 60.4828C153.653 60.2672 154.267 59.9131 154.919 59.4205V48.3816C154.919 47.9505 154.843 47.5964 154.692 47.3193C154.555 47.0267 154.358 46.7188 154.101 46.3955H158.467C158.209 46.7188 158.004 47.0267 157.853 47.3193C157.716 47.5964 157.648 47.9505 157.648 48.3816V60.5751C157.648 61.0216 157.716 61.3834 157.853 61.6606C157.989 61.9377 158.186 62.2379 158.444 62.5612H155.101C155.071 62.2995 155.04 62.0608 155.01 61.8453C154.995 61.6144 154.972 61.368 154.942 61.1063C154.26 61.7221 153.57 62.1609 152.873 62.4227C152.175 62.6844 151.417 62.8152 150.599 62.8152C149.674 62.8152 148.886 62.669 148.234 62.3765C147.597 62.0685 147.074 61.6606 146.665 61.1525C146.255 60.6444 145.952 60.0517 145.755 59.3743C145.573 58.6968 145.482 57.9809 145.482 57.2265V48.3816C145.482 47.9505 145.406 47.5964 145.255 47.3193C145.118 47.0267 144.921 46.7188 144.664 46.3955H149.03C148.772 46.7188 148.567 47.0267 148.416 47.3193C148.279 47.5964 148.211 47.9505 148.211 48.3816V57.2265Z" fill="white"/>
<path d="M165.194 60.6444C166.134 60.6444 166.937 60.4828 167.604 60.1595C168.271 59.8361 168.809 59.3974 169.219 58.8431C169.643 58.2889 169.954 57.6345 170.151 56.8801C170.348 56.1257 170.447 55.3174 170.447 54.4553C170.447 53.5931 170.356 52.7925 170.174 52.0535C169.992 51.2991 169.696 50.6448 169.287 50.0905C168.893 49.5363 168.377 49.1052 167.741 48.7973C167.104 48.474 166.331 48.3123 165.421 48.3123H163.534V60.6444H165.194ZM160.009 62.5612C160.267 62.2379 160.464 61.9377 160.6 61.6606C160.737 61.3834 160.805 61.0216 160.805 60.5751V48.3816C160.805 47.9505 160.729 47.5964 160.577 47.3193C160.441 47.0267 160.244 46.7188 159.986 46.3955H165.603C166.937 46.3955 168.089 46.6111 169.059 47.0421C170.045 47.4578 170.856 48.0352 171.493 48.7742C172.144 49.4978 172.622 50.3523 172.925 51.3376C173.244 52.3229 173.403 53.3699 173.403 54.4784C173.403 55.5869 173.244 56.6338 172.925 57.6191C172.622 58.5891 172.144 59.4435 171.493 60.1825C170.856 60.9216 170.045 61.5066 169.059 61.9377C168.089 62.3534 166.937 62.5612 165.603 62.5612H160.009Z" fill="white"/>
<path d="M178.434 60.6675H182.141C182.717 60.6675 183.202 60.5982 183.596 60.4597C183.991 60.3057 184.407 60.0979 184.847 59.8361L184.392 62.5612H174.91C175.167 62.2379 175.365 61.9377 175.501 61.6606C175.637 61.3834 175.706 61.0216 175.706 60.5751V48.3816C175.706 47.9505 175.63 47.5964 175.478 47.3193C175.342 47.0267 175.145 46.7188 174.887 46.3955H184.165V49.1206C183.862 48.8589 183.581 48.6587 183.324 48.5201C183.081 48.3662 182.763 48.2892 182.368 48.2892H178.434V53.3699H181.777C182.171 53.3699 182.49 53.3006 182.732 53.162C182.99 53.0081 183.27 52.8002 183.574 52.5385V56.0257C183.27 55.7639 182.99 55.5638 182.732 55.4252C182.49 55.2713 182.171 55.1943 181.777 55.1943H178.434V60.6675Z" fill="white"/>
<path d="M185.902 62.5612C186.16 62.2379 186.357 61.9377 186.493 61.6606C186.63 61.3834 186.698 61.0216 186.698 60.5751V48.3816C186.698 47.9505 186.622 47.5964 186.471 47.3193C186.334 47.0267 186.137 46.7188 185.879 46.3955H188.949L194.771 54.386C195.089 54.8171 195.4 55.2482 195.703 55.6792C196.021 56.1103 196.332 56.5491 196.635 56.9956V48.3816C196.635 47.9351 196.567 47.5733 196.431 47.2962C196.294 47.019 196.097 46.7188 195.839 46.3955H199.501C199.243 46.7188 199.046 47.019 198.909 47.2962C198.773 47.5733 198.705 47.9351 198.705 48.3816V62.5612H197.499L191.087 54.0165C190.678 53.4776 190.283 52.9311 189.904 52.3768C189.525 51.8226 189.146 51.2606 188.767 50.691V60.5751C188.767 61.0216 188.836 61.3834 188.972 61.6606C189.108 61.9377 189.306 62.2379 189.563 62.5612H185.902Z" fill="white"/>
<path d="M204.957 62.5612C205.215 62.2533 205.412 61.9531 205.548 61.6606C205.685 61.368 205.753 61.0062 205.753 60.5751V48.3123H202.774C202.38 48.3123 202.054 48.3893 201.796 48.5432C201.554 48.6818 201.281 48.882 200.977 49.1437V46.3955H213.257V49.1437C212.954 48.882 212.673 48.6818 212.416 48.5432C212.173 48.3893 211.855 48.3123 211.46 48.3123H208.482V60.5751C208.482 60.8061 208.497 61.0062 208.527 61.1756C208.557 61.3449 208.603 61.5066 208.663 61.6606C208.739 61.7991 208.823 61.9454 208.914 62.0993C209.02 62.2379 209.141 62.3919 209.277 62.5612H204.957Z" fill="white"/>
<path d="M214.84 59.074C215.537 59.7053 216.272 60.1979 217.046 60.5521C217.819 60.9062 218.615 61.0832 219.433 61.0832C220.343 61.0832 221.033 60.8754 221.503 60.4597C221.988 60.0286 222.23 59.4435 222.23 58.7045C222.23 58.0425 222.048 57.496 221.685 57.0649C221.321 56.6184 220.866 56.2335 220.32 55.9102C219.774 55.5715 219.183 55.2559 218.546 54.9633C217.91 54.6554 217.318 54.309 216.773 53.9241C216.227 53.5392 215.772 53.0773 215.408 52.5385C215.045 51.9842 214.863 51.2991 214.863 50.4831C214.863 49.8365 214.984 49.2438 215.226 48.7049C215.469 48.1506 215.818 47.6734 216.272 47.2731C216.742 46.8574 217.311 46.5341 217.978 46.3031C218.645 46.0722 219.395 45.9567 220.229 45.9567C220.836 45.9567 221.45 46.0183 222.071 46.1415C222.708 46.2493 223.345 46.4109 223.981 46.6265L223.822 49.3977C223.337 48.9204 222.791 48.5509 222.185 48.2892C221.578 48.0121 220.934 47.8735 220.252 47.8735C219.433 47.8735 218.789 48.066 218.319 48.4509C217.864 48.8358 217.637 49.3284 217.637 49.9289C217.637 50.4831 217.819 50.945 218.183 51.3145C218.546 51.684 219.001 52.0227 219.547 52.3306C220.093 52.6386 220.684 52.9465 221.321 53.2544C221.957 53.5623 222.549 53.9318 223.094 54.3629C223.64 54.794 224.095 55.3097 224.459 55.9102C224.823 56.5106 225.005 57.2573 225.005 58.1503C225.005 58.8277 224.883 59.4589 224.641 60.044C224.413 60.629 224.065 61.1448 223.595 61.5913C223.14 62.0224 222.564 62.3611 221.866 62.6074C221.169 62.8691 220.35 63 219.411 63C218.592 63 217.804 62.8999 217.046 62.6998C216.288 62.515 215.59 62.2687 214.954 61.9608L214.84 59.074Z" fill="white"/>
<path d="M226.501 47.504C226.501 47.0575 226.66 46.688 226.978 46.3955C227.296 46.103 227.683 45.9567 228.138 45.9567C228.577 45.9567 228.956 46.1184 229.275 46.4417C229.593 46.765 229.752 47.2192 229.752 47.8042C229.752 48.1891 229.677 48.5894 229.525 49.0051C229.389 49.4054 229.207 49.7903 228.979 50.1598C228.752 50.5293 228.487 50.8757 228.183 51.199C227.895 51.507 227.592 51.761 227.274 51.9611H226.046C226.44 51.5762 226.811 51.1375 227.16 50.6448C227.509 50.1367 227.706 49.6133 227.751 49.0744C227.387 48.982 227.084 48.7973 226.842 48.5201C226.614 48.2276 226.501 47.8889 226.501 47.504Z" fill="white"/>
<path d="M238.897 60.5751C238.776 60.9754 238.768 61.3526 238.874 61.7067C238.98 62.0455 239.162 62.3303 239.42 62.5612H235.213C235.562 62.2995 235.842 62.0301 236.054 61.7529C236.282 61.4758 236.479 61.0832 236.646 60.5751L240.716 48.3816C240.822 48.0737 240.845 47.735 240.784 47.3655C240.724 46.9806 240.534 46.6572 240.216 46.3955H244.4L249.152 60.5751C249.304 61.0216 249.486 61.3834 249.698 61.6606C249.926 61.9377 250.229 62.2379 250.608 62.5612H245.764C246.037 62.3149 246.219 62.0378 246.31 61.7298C246.416 61.4219 246.393 61.037 246.242 60.5751L245.264 57.5268H239.852L238.897 60.5751ZM244.695 55.6792L242.558 48.982L240.443 55.6792H244.695Z" fill="white"/>
<path d="M251.881 59.074C252.578 59.7053 253.314 60.1979 254.087 60.5521C254.86 60.9062 255.656 61.0832 256.474 61.0832C257.384 61.0832 258.074 60.8754 258.544 60.4597C259.029 60.0286 259.271 59.4435 259.271 58.7045C259.271 58.0425 259.089 57.496 258.726 57.0649C258.362 56.6184 257.907 56.2335 257.361 55.9102C256.815 55.5715 256.224 55.2559 255.587 54.9633C254.951 54.6554 254.36 54.309 253.814 53.9241C253.268 53.5392 252.813 53.0773 252.449 52.5385C252.086 51.9842 251.904 51.2991 251.904 50.4831C251.904 49.8365 252.025 49.2438 252.267 48.7049C252.51 48.1506 252.859 47.6734 253.313 47.2731C253.783 46.8574 254.352 46.5341 255.019 46.3031C255.686 46.0722 256.436 45.9567 257.27 45.9567C257.877 45.9567 258.491 46.0183 259.112 46.1415C259.749 46.2493 260.386 46.4109 261.022 46.6265L260.863 49.3977C260.378 48.9204 259.832 48.5509 259.226 48.2892C258.619 48.0121 257.975 47.8735 257.293 47.8735C256.474 47.8735 255.83 48.066 255.36 48.4509C254.905 48.8358 254.678 49.3284 254.678 49.9289C254.678 50.4831 254.86 50.945 255.224 51.3145C255.587 51.684 256.042 52.0227 256.588 52.3306C257.134 52.6386 257.725 52.9465 258.362 53.2544C258.998 53.5623 259.59 53.9318 260.135 54.3629C260.681 54.794 261.136 55.3097 261.5 55.9102C261.864 56.5106 262.046 57.2573 262.046 58.1503C262.046 58.8277 261.924 59.4589 261.682 60.044C261.454 60.629 261.106 61.1448 260.636 61.5913C260.181 62.0224 259.605 62.3611 258.908 62.6074C258.21 62.8691 257.392 63 256.452 63C255.633 63 254.845 62.8999 254.087 62.6998C253.329 62.515 252.631 62.2687 251.995 61.9608L251.881 59.074Z" fill="white"/>
<path d="M263.873 59.074C264.57 59.7053 265.305 60.1979 266.078 60.5521C266.852 60.9062 267.647 61.0832 268.466 61.0832C269.376 61.0832 270.065 60.8754 270.535 60.4597C271.02 60.0286 271.263 59.4435 271.263 58.7045C271.263 58.0425 271.081 57.496 270.717 57.0649C270.353 56.6184 269.899 56.2335 269.353 55.9102C268.807 55.5715 268.216 55.2559 267.579 54.9633C266.942 54.6554 266.351 54.309 265.805 53.9241C265.26 53.5392 264.805 53.0773 264.441 52.5385C264.077 51.9842 263.895 51.2991 263.895 50.4831C263.895 49.8365 264.017 49.2438 264.259 48.7049C264.502 48.1506 264.85 47.6734 265.305 47.2731C265.775 46.8574 266.344 46.5341 267.011 46.3031C267.678 46.0722 268.428 45.9567 269.262 45.9567C269.868 45.9567 270.482 46.0183 271.104 46.1415C271.741 46.2493 272.377 46.4109 273.014 46.6265L272.855 49.3977C272.37 48.9204 271.824 48.5509 271.218 48.2892C270.611 48.0121 269.967 47.8735 269.285 47.8735C268.466 47.8735 267.822 48.066 267.352 48.4509C266.897 48.8358 266.67 49.3284 266.67 49.9289C266.67 50.4831 266.852 50.945 267.215 51.3145C267.579 51.684 268.034 52.0227 268.58 52.3306C269.126 52.6386 269.717 52.9465 270.353 53.2544C270.99 53.5623 271.581 53.9318 272.127 54.3629C272.673 54.794 273.128 55.3097 273.492 55.9102C273.855 56.5106 274.037 57.2573 274.037 58.1503C274.037 58.8277 273.916 59.4589 273.673 60.044C273.446 60.629 273.097 61.1448 272.627 61.5913C272.173 62.0224 271.597 62.3611 270.899 62.6074C270.202 62.8691 269.383 63 268.443 63C267.625 63 266.836 62.8999 266.078 62.6998C265.32 62.515 264.623 62.2687 263.986 61.9608L263.873 59.074Z" fill="white"/>
<path d="M275.637 54.4553C275.637 53.2852 275.811 52.1844 276.16 51.1528C276.524 50.1213 277.039 49.2207 277.706 48.4509C278.388 47.6811 279.207 47.0729 280.162 46.6265C281.132 46.18 282.216 45.9567 283.414 45.9567C284.627 45.9567 285.711 46.18 286.666 46.6265C287.636 47.0729 288.455 47.6811 289.122 48.4509C289.804 49.2207 290.319 50.1213 290.668 51.1528C291.032 52.1844 291.214 53.2852 291.214 54.4553C291.214 55.6254 291.032 56.7339 290.668 57.7808C290.319 58.8123 289.804 59.7207 289.122 60.5059C288.455 61.2757 287.636 61.8838 286.666 62.3303C285.711 62.7768 284.627 63 283.414 63C282.216 63 281.132 62.7768 280.162 62.3303C279.207 61.8838 278.388 61.2757 277.706 60.5059C277.039 59.7207 276.524 58.8123 276.16 57.7808C275.811 56.7339 275.637 55.6254 275.637 54.4553ZM278.593 54.4553C278.593 55.379 278.699 56.2412 278.911 57.0418C279.139 57.827 279.457 58.5198 279.866 59.1202C280.291 59.7053 280.799 60.1672 281.39 60.5059C281.996 60.8446 282.671 61.0139 283.414 61.0139C284.172 61.0139 284.847 60.8446 285.438 60.5059C286.029 60.1672 286.537 59.7053 286.961 59.1202C287.386 58.5198 287.704 57.827 287.916 57.0418C288.144 56.2412 288.257 55.379 288.257 54.4553C288.257 53.5469 288.144 52.6924 287.916 51.8919C287.704 51.0913 287.386 50.3984 286.961 49.8134C286.537 49.2284 286.029 48.7665 285.438 48.4278C284.847 48.0891 284.172 47.9197 283.414 47.9197C282.671 47.9197 281.996 48.0891 281.39 48.4278C280.799 48.7665 280.291 49.2284 279.866 49.8134C279.457 50.3984 279.139 51.0913 278.911 51.8919C278.699 52.6924 278.593 53.5469 278.593 54.4553Z" fill="white"/>
<path d="M305.156 62.0301C304.519 62.338 303.814 62.5766 303.041 62.746C302.268 62.9153 301.48 63 300.676 63C299.388 63 298.243 62.7768 297.242 62.3303C296.242 61.8838 295.393 61.2757 294.696 60.5059C294.013 59.7207 293.49 58.8123 293.126 57.7808C292.763 56.7339 292.581 55.6254 292.581 54.4553C292.581 53.2852 292.763 52.1844 293.126 51.1528C293.49 50.1213 294.013 49.2207 294.696 48.4509C295.393 47.6811 296.242 47.0729 297.242 46.6265C298.243 46.18 299.388 45.9567 300.676 45.9567C301.51 45.9567 302.313 46.0491 303.087 46.2339C303.875 46.4186 304.603 46.6649 305.27 46.9729L304.792 49.952C304.337 49.3207 303.776 48.8281 303.109 48.474C302.442 48.1045 301.677 47.9197 300.813 47.9197C299.994 47.9197 299.259 48.0891 298.607 48.4278C297.955 48.7665 297.402 49.2284 296.947 49.8134C296.492 50.3984 296.143 51.0913 295.901 51.8919C295.658 52.6924 295.537 53.5469 295.537 54.4553C295.537 55.379 295.658 56.2412 295.901 57.0418C296.158 57.827 296.522 58.5198 296.992 59.1202C297.462 59.7053 298.038 60.1672 298.72 60.5059C299.403 60.8446 300.176 61.0139 301.04 61.0139C301.95 61.0139 302.783 60.8369 303.541 60.4828C304.299 60.1287 304.921 59.6591 305.406 59.074L305.156 62.0301Z" fill="white"/>
<path d="M309.966 60.5751C309.966 61.0216 310.034 61.3834 310.17 61.6606C310.307 61.9377 310.504 62.2379 310.762 62.5612H306.441C306.699 62.2379 306.896 61.9377 307.032 61.6606C307.169 61.3834 307.237 61.0216 307.237 60.5751V48.3816C307.237 47.9505 307.161 47.5964 307.009 47.3193C306.873 47.0267 306.676 46.7188 306.418 46.3955H310.784C310.527 46.7188 310.322 47.0267 310.17 47.3193C310.034 47.5964 309.966 47.9505 309.966 48.3816V60.5751Z" fill="white"/>
<path d="M315.622 60.5751C315.5 60.9754 315.493 61.3526 315.599 61.7067C315.705 62.0455 315.887 62.3303 316.145 62.5612H311.938C312.286 62.2995 312.567 62.0301 312.779 61.7529C313.006 61.4758 313.203 61.0832 313.37 60.5751L317.441 48.3816C317.547 48.0737 317.57 47.735 317.509 47.3655C317.448 46.9806 317.259 46.6572 316.94 46.3955H321.125L325.877 60.5751C326.029 61.0216 326.211 61.3834 326.423 61.6606C326.65 61.9377 326.954 62.2379 327.333 62.5612H322.489C322.762 62.3149 322.944 62.0378 323.035 61.7298C323.141 61.4219 323.118 61.037 322.966 60.5751L321.989 57.5268H316.577L315.622 60.5751ZM321.42 55.6792L319.283 48.982L317.168 55.6792H321.42Z" fill="white"/>
<path d="M330.714 62.5612C330.972 62.2533 331.169 61.9531 331.306 61.6606C331.442 61.368 331.51 61.0062 331.51 60.5751V48.3123H328.531C328.137 48.3123 327.811 48.3893 327.553 48.5432C327.311 48.6818 327.038 48.882 326.735 49.1437V46.3955H339.014V49.1437C338.711 48.882 338.431 48.6818 338.173 48.5432C337.93 48.3893 337.612 48.3123 337.218 48.3123H334.239V60.5751C334.239 60.8061 334.254 61.0062 334.284 61.1756C334.315 61.3449 334.36 61.5066 334.421 61.6606C334.497 61.7991 334.58 61.9454 334.671 62.0993C334.777 62.2379 334.898 62.3919 335.035 62.5612H330.714Z" fill="white"/>
<path d="M344.031 60.5751C344.031 61.0216 344.099 61.3834 344.236 61.6606C344.372 61.9377 344.569 62.2379 344.827 62.5612H340.506C340.764 62.2379 340.961 61.9377 341.098 61.6606C341.234 61.3834 341.302 61.0216 341.302 60.5751V48.3816C341.302 47.9505 341.226 47.5964 341.075 47.3193C340.938 47.0267 340.741 46.7188 340.484 46.3955H344.85C344.592 46.7188 344.387 47.0267 344.236 47.3193C344.099 47.5964 344.031 47.9505 344.031 48.3816V60.5751Z" fill="white"/>
<path d="M346.321 54.4553C346.321 53.2852 346.496 52.1844 346.844 51.1528C347.208 50.1213 347.724 49.2207 348.391 48.4509C349.073 47.6811 349.891 47.0729 350.847 46.6265C351.817 46.18 352.901 45.9567 354.098 45.9567C355.311 45.9567 356.395 46.18 357.35 46.6265C358.32 47.0729 359.139 47.6811 359.806 48.4509C360.488 49.2207 361.004 50.1213 361.352 51.1528C361.716 52.1844 361.898 53.2852 361.898 54.4553C361.898 55.6254 361.716 56.7339 361.352 57.7808C361.004 58.8123 360.488 59.7207 359.806 60.5059C359.139 61.2757 358.32 61.8838 357.35 62.3303C356.395 62.7768 355.311 63 354.098 63C352.901 63 351.817 62.7768 350.847 62.3303C349.891 61.8838 349.073 61.2757 348.391 60.5059C347.724 59.7207 347.208 58.8123 346.844 57.7808C346.496 56.7339 346.321 55.6254 346.321 54.4553ZM349.277 54.4553C349.277 55.379 349.384 56.2412 349.596 57.0418C349.823 57.827 350.142 58.5198 350.551 59.1202C350.975 59.7053 351.483 60.1672 352.074 60.5059C352.681 60.8446 353.356 61.0139 354.098 61.0139C354.856 61.0139 355.531 60.8446 356.122 60.5059C356.713 60.1672 357.221 59.7053 357.646 59.1202C358.07 58.5198 358.389 57.827 358.601 57.0418C358.828 56.2412 358.942 55.379 358.942 54.4553C358.942 53.5469 358.828 52.6924 358.601 51.8919C358.389 51.0913 358.07 50.3984 357.646 49.8134C357.221 49.2284 356.713 48.7665 356.122 48.4278C355.531 48.0891 354.856 47.9197 354.098 47.9197C353.356 47.9197 352.681 48.0891 352.074 48.4278C351.483 48.7665 350.975 49.2284 350.551 49.8134C350.142 50.3984 349.823 51.0913 349.596 51.8919C349.384 52.6924 349.277 53.5469 349.277 54.4553Z" fill="white"/>
<path d="M363.402 62.5612C363.659 62.2379 363.856 61.9377 363.993 61.6606C364.129 61.3834 364.198 61.0216 364.198 60.5751V48.3816C364.198 47.9505 364.122 47.5964 363.97 47.3193C363.834 47.0267 363.637 46.7188 363.379 46.3955H366.449L372.27 54.386C372.589 54.8171 372.899 55.2482 373.202 55.6792C373.521 56.1103 373.832 56.5491 374.135 56.9956V48.3816C374.135 47.9351 374.067 47.5733 373.93 47.2962C373.794 47.019 373.597 46.7188 373.339 46.3955H377C376.742 46.7188 376.545 47.019 376.409 47.2962C376.272 47.5733 376.204 47.9351 376.204 48.3816V62.5612H374.999L368.586 54.0165C368.177 53.4776 367.783 52.9311 367.404 52.3768C367.025 51.8226 366.646 51.2606 366.267 50.691V60.5751C366.267 61.0216 366.335 61.3834 366.471 61.6606C366.608 61.9377 366.805 62.2379 367.063 62.5612H363.402Z" fill="white"/>
</svg>
