<svg width="377" height="82" viewBox="0 0 377 82" fill="none" xmlns="http://www.w3.org/2000/svg">
<path d="M17.7499 64.612C17.6521 64.612 17.5755 64.5843 17.5201 64.5289C17.4647 64.4735 17.437 64.4034 17.437 64.3187C17.437 64.2307 17.468 64.1574 17.5299 64.0987C17.5951 64.0368 17.6749 64.0058 17.7694 64.0058C17.8639 64.0058 17.9372 64.0384 17.9894 64.1036C18.0448 64.1655 18.0725 64.2291 18.0725 64.2942C18.0725 64.3985 18.0399 64.4784 17.9747 64.5338C17.9128 64.5859 17.8378 64.612 17.7499 64.612Z" fill="black"/>
<path d="M18.4767 62.2559C18.5289 62.2592 18.594 62.2624 18.6723 62.2657C18.7537 62.2657 18.8384 62.2673 18.9264 62.2706C19.0177 62.2706 19.1024 62.2706 19.1806 62.2706C19.2621 62.2706 19.3273 62.2706 19.3761 62.2706V64.8613C19.3761 64.9851 19.3875 65.0812 19.4104 65.1497C19.4332 65.2181 19.4772 65.2653 19.5423 65.2914C19.6075 65.3175 19.6971 65.3305 19.8112 65.3305L19.7819 65.5749C19.6906 65.5749 19.5831 65.5749 19.4592 65.5749C19.3387 65.5749 19.2132 65.5749 19.0829 65.5749C18.9558 65.5782 18.8384 65.5798 18.7309 65.5798C18.6234 65.5831 18.5386 65.5863 18.4767 65.5896C18.4767 65.5407 18.4784 65.4967 18.4816 65.4576C18.4849 65.4152 18.4914 65.381 18.5012 65.355C18.5892 65.3484 18.6576 65.3321 18.7065 65.3061C18.7554 65.2767 18.7896 65.2279 18.8091 65.1594C18.8287 65.091 18.8384 64.9916 18.8384 64.8613V62.9353C18.8384 62.818 18.8287 62.73 18.8091 62.6714C18.7896 62.6095 18.7554 62.5655 18.7065 62.5394C18.6576 62.5133 18.5892 62.497 18.5012 62.4905C18.4914 62.4612 18.4849 62.4253 18.4816 62.383C18.4784 62.3406 18.4767 62.2983 18.4767 62.2559ZM20.7546 64.7097C20.8132 64.7228 20.8621 64.7391 20.9012 64.7586C20.9436 64.7782 20.9811 64.8026 21.0137 64.8319C20.9778 64.9427 20.9469 65.0666 20.9208 65.2034C20.898 65.337 20.8784 65.4641 20.8621 65.5847C20.7937 65.5814 20.7024 65.5798 20.5884 65.5798C20.4776 65.5798 20.3521 65.5782 20.212 65.5749C20.0751 65.5749 19.9318 65.5749 19.7819 65.5749L19.8112 65.3305H19.8503C20.0654 65.3305 20.2283 65.3077 20.3391 65.2621C20.4532 65.2132 20.5395 65.1431 20.5982 65.0519C20.6568 64.9606 20.709 64.8466 20.7546 64.7097ZM20.4222 63.3704C20.4189 63.4518 20.4157 63.5398 20.4124 63.6343C20.4124 63.7256 20.4124 63.8168 20.4124 63.9081C20.4124 64.0026 20.4124 64.1003 20.4124 64.2014C20.4157 64.3024 20.4189 64.3953 20.4222 64.48C20.3733 64.48 20.3277 64.4784 20.2853 64.4751C20.2462 64.4686 20.2071 64.4604 20.168 64.4507C20.155 64.2877 20.111 64.1769 20.036 64.1183C19.9643 64.0596 19.8324 64.0303 19.6401 64.0303H19.2979V63.7956H19.6401C19.8356 63.7956 19.9692 63.7696 20.0409 63.7174C20.1159 63.6653 20.155 63.5626 20.1582 63.4095C20.2039 63.3932 20.2479 63.3834 20.2902 63.3802C20.3326 63.3736 20.3766 63.3704 20.4222 63.3704ZM20.7399 62.2559C20.7464 62.3276 20.7546 62.4123 20.7644 62.5101C20.7741 62.6078 20.7855 62.704 20.7986 62.7985C20.8116 62.8897 20.8263 62.9712 20.8426 63.0429C20.8132 63.0657 20.7758 63.082 20.7301 63.0918C20.6878 63.1015 20.6389 63.1064 20.5835 63.1064C20.5737 63.0021 20.546 62.9044 20.5004 62.8131C20.4548 62.7186 20.3766 62.6421 20.2658 62.5834C20.1582 62.5215 20.0034 62.4905 19.8014 62.4905H19.2588L19.3713 62.2706C19.6254 62.2706 19.8438 62.2706 20.0263 62.2706C20.2087 62.2673 20.3586 62.264 20.476 62.2608C20.5933 62.2575 20.6813 62.2559 20.7399 62.2559Z" fill="black"/>
<path d="M22.5211 65.6189C22.3191 65.6189 22.1382 65.5912 21.9786 65.5358C21.8189 65.4804 21.6592 65.4055 21.4995 65.311C21.5191 65.1871 21.5321 65.0617 21.5386 64.9346C21.5451 64.8075 21.5484 64.6951 21.5484 64.5973C21.5908 64.5843 21.6413 64.5761 21.6999 64.5729C21.7586 64.5663 21.8124 64.5631 21.8612 64.5631C21.8743 64.7358 21.9036 64.8808 21.9492 64.9981C21.9981 65.1154 22.0731 65.2051 22.1741 65.267C22.2784 65.3289 22.4136 65.3598 22.5798 65.3598C22.7949 65.3598 22.948 65.3126 23.0393 65.2181C23.1338 65.1236 23.181 65.0095 23.181 64.8759C23.181 64.7423 23.1419 64.6315 23.0637 64.5435C22.9855 64.4555 22.8845 64.3806 22.7607 64.3187C22.6368 64.2535 22.5065 64.19 22.3696 64.128C22.2327 64.0661 22.1024 63.9944 21.9786 63.913C21.8547 63.8282 21.7537 63.724 21.6755 63.6001C21.5973 63.4763 21.5582 63.3182 21.5582 63.126C21.5582 62.9337 21.6005 62.7708 21.6853 62.6372C21.77 62.5036 21.8873 62.4025 22.0372 62.3341C22.1904 62.2624 22.3696 62.2266 22.5749 62.2266C22.689 62.2266 22.7998 62.2363 22.9073 62.2559C23.0148 62.2754 23.1126 62.3015 23.2006 62.3341C23.2918 62.3667 23.3652 62.4025 23.4206 62.4416C23.4206 62.5427 23.4222 62.6567 23.4254 62.7838C23.4287 62.9109 23.4368 63.0168 23.4499 63.1015C23.4108 63.1178 23.3603 63.1309 23.2984 63.1406C23.2397 63.1504 23.1843 63.1553 23.1322 63.1553C23.0996 62.9696 23.0572 62.8278 23.0051 62.73C22.9529 62.6323 22.8894 62.5655 22.8144 62.5296C22.7427 62.4905 22.658 62.471 22.5602 62.471C22.3973 62.471 22.2686 62.5101 22.1741 62.5883C22.0828 62.6665 22.0372 62.7773 22.0372 62.9207C22.0372 63.0575 22.0763 63.1716 22.1545 63.2628C22.2327 63.3541 22.3338 63.4323 22.4576 63.4975C22.5814 63.5626 22.7118 63.6278 22.8486 63.693C22.9888 63.7582 23.1207 63.8315 23.2446 63.913C23.3717 63.9944 23.4743 64.0954 23.5525 64.216C23.6307 64.3366 23.6698 64.4881 23.6698 64.6706C23.6698 64.8401 23.6291 64.9981 23.5476 65.1448C23.4662 65.2881 23.3407 65.4038 23.1713 65.4918C23.0051 65.5765 22.7884 65.6189 22.5211 65.6189Z" fill="black"/>
<path d="M24.7335 62.5101C24.5836 62.5101 24.4679 62.5345 24.3865 62.5834C24.3082 62.6323 24.2496 62.7023 24.2105 62.7936C24.1746 62.8816 24.1453 62.9875 24.1225 63.1113C24.0769 63.1113 24.028 63.1081 23.9759 63.1015C23.9237 63.095 23.8797 63.082 23.8439 63.0624C23.8699 62.9256 23.8895 62.7854 23.9025 62.6421C23.9188 62.4987 23.927 62.3699 23.927 62.2559C24.028 62.2592 24.1437 62.2624 24.274 62.2657C24.4076 62.2689 24.5526 62.2706 24.7091 62.2706C24.8687 62.2706 25.0382 62.2706 25.2174 62.2706C25.3967 62.2706 25.5661 62.2706 25.7258 62.2706C25.8855 62.2706 26.0321 62.2689 26.1657 62.2657C26.3026 62.2624 26.4183 62.2592 26.5128 62.2559C26.5095 62.3765 26.5112 62.5019 26.5177 62.6323C26.5274 62.7626 26.5405 62.906 26.5568 63.0624C26.5177 63.0787 26.4737 63.0918 26.4248 63.1015C26.3792 63.1113 26.3287 63.1146 26.2733 63.1113C26.2635 62.9125 26.2146 62.7626 26.1266 62.6616C26.0419 62.5606 25.9067 62.5101 25.7209 62.5101H24.7335ZM24.9437 62.4074H25.4863V64.9101C25.4863 65.0242 25.4961 65.1122 25.5156 65.1741C25.5352 65.236 25.5726 65.28 25.628 65.3061C25.6867 65.3321 25.7714 65.3484 25.8822 65.355C25.892 65.381 25.8985 65.4152 25.9018 65.4576C25.9083 65.4967 25.9115 65.5407 25.9115 65.5896C25.8073 65.5831 25.6965 65.5782 25.5792 65.5749C25.4618 65.5749 25.3429 65.5749 25.2223 65.5749C25.1409 65.5749 25.0561 65.5749 24.9681 65.5749C24.8834 65.5782 24.8003 65.5798 24.7188 65.5798C24.6406 65.5831 24.5689 65.5863 24.5038 65.5896C24.5038 65.5407 24.5054 65.4967 24.5087 65.4576C24.5152 65.4152 24.5233 65.381 24.5331 65.355C24.6439 65.3484 24.7286 65.3321 24.7873 65.3061C24.8459 65.28 24.8867 65.236 24.9095 65.1741C24.9323 65.1122 24.9437 65.0242 24.9437 64.9101V62.4074Z" fill="black"/>
<path d="M28.7338 64.9052C28.7338 65.0226 28.7419 65.1138 28.7582 65.179C28.7778 65.2409 28.812 65.2849 28.8609 65.311C28.913 65.337 28.9831 65.3517 29.0711 65.355C29.0808 65.3908 29.0873 65.4283 29.0906 65.4674C29.0939 65.5065 29.0955 65.5472 29.0955 65.5896C29.0466 65.5863 28.9928 65.5831 28.9342 65.5798C28.8788 65.5798 28.8218 65.5782 28.7631 65.5749C28.7044 65.5749 28.649 65.5749 28.5969 65.5749C28.5448 65.5749 28.504 65.5749 28.4747 65.5749C28.4323 65.5749 28.3835 65.5749 28.3281 65.5749C28.2759 65.5749 28.2205 65.5749 28.1619 65.5749C28.1065 65.5782 28.0527 65.5798 28.0006 65.5798C27.9484 65.5831 27.8995 65.5863 27.8539 65.5896C27.8539 65.5472 27.8555 65.5065 27.8588 65.4674C27.8621 65.425 27.8686 65.3875 27.8784 65.355C27.9631 65.3484 28.0299 65.3321 28.0788 65.3061C28.1277 65.28 28.1619 65.236 28.1814 65.1741C28.2042 65.1122 28.2156 65.0242 28.2156 64.9101V63.7956C28.2156 63.6816 28.2059 63.5936 28.1863 63.5317C28.1668 63.4698 28.1325 63.4258 28.0837 63.3997C28.038 63.3704 27.9696 63.3541 27.8784 63.3508C27.8718 63.3182 27.8653 63.2824 27.8588 63.2433C27.8555 63.2009 27.8539 63.1586 27.8539 63.1162C27.893 63.1195 27.9386 63.1227 27.9908 63.126C28.0462 63.126 28.1032 63.1276 28.1619 63.1309C28.2238 63.1309 28.2808 63.1309 28.333 63.1309C28.3883 63.1309 28.4356 63.1309 28.4747 63.1309C28.5431 63.1309 28.6148 63.1309 28.6898 63.1309C28.768 63.1276 28.8413 63.126 28.9097 63.126C28.9814 63.1227 29.0434 63.1195 29.0955 63.1162C29.0955 63.1618 29.0922 63.2042 29.0857 63.2433C29.0825 63.2824 29.0776 63.3182 29.0711 63.3508C28.9831 63.3541 28.9146 63.3704 28.8658 63.3997C28.8169 63.4258 28.7827 63.4698 28.7631 63.5317C28.7436 63.5936 28.7338 63.6816 28.7338 63.7956V64.9052Z" fill="black"/>
<path d="M31.3861 64.8124C31.259 64.9232 31.1335 65.003 31.0097 65.0519C30.8891 65.0975 30.7604 65.1203 30.6235 65.1203C30.4345 65.1203 30.2634 65.0812 30.1103 65.003C29.9604 64.9248 29.8398 64.8173 29.7486 64.6804C29.6606 64.5403 29.6166 64.3773 29.6166 64.1916C29.6166 64.0091 29.6459 63.8494 29.7046 63.7125C29.7665 63.5757 29.8496 63.4633 29.9539 63.3753C30.0581 63.284 30.1771 63.2156 30.3107 63.17C30.4476 63.1243 30.5893 63.1015 30.736 63.1015C30.9869 63.1015 31.1938 63.1488 31.3567 63.2433C31.5229 63.3378 31.6468 63.4812 31.7282 63.6734C31.8097 63.8624 31.8504 64.0987 31.8504 64.3822C31.8504 64.6462 31.8064 64.8824 31.7185 65.091C31.6305 65.2963 31.5148 65.4772 31.3714 65.6336C31.228 65.7933 31.0683 65.9269 30.8924 66.0344C30.7197 66.1419 30.5453 66.225 30.3693 66.2837C30.1934 66.3456 30.0304 66.3863 29.8805 66.4059C29.8577 66.3766 29.8431 66.3456 29.8365 66.313C29.83 66.2804 29.8268 66.243 29.8268 66.2006C30.1689 66.08 30.4492 65.9366 30.6675 65.7704C30.8891 65.6042 31.0537 65.4104 31.1612 65.1888C31.2688 64.9672 31.3225 64.713 31.3225 64.4262C31.3225 64.0449 31.2639 63.7696 31.1466 63.6001C31.0292 63.4307 30.8728 63.3459 30.6773 63.3459C30.573 63.3459 30.4801 63.3769 30.3987 63.4388C30.3205 63.4975 30.2585 63.5789 30.2129 63.6832C30.1706 63.7875 30.1494 63.9016 30.1494 64.0254C30.1494 64.1851 30.1722 64.3154 30.2178 64.4164C30.2634 64.5175 30.3221 64.5957 30.3938 64.6511C30.4687 64.7065 30.5486 64.7456 30.6333 64.7684C30.718 64.7879 30.7995 64.7977 30.8777 64.7977C30.9722 64.7977 31.0651 64.7798 31.1563 64.7439C31.2476 64.7081 31.3258 64.6543 31.391 64.5826L31.3861 64.8124Z" fill="black"/>
<path d="M33.463 63.3704C33.3196 63.3704 33.1991 63.4095 33.1013 63.4877C33.0068 63.5659 32.9335 63.6718 32.8813 63.8054C32.8292 63.939 32.8031 64.0873 32.8031 64.2502C32.8031 64.3676 32.8243 64.4898 32.8667 64.6168C32.909 64.7439 32.9693 64.8613 33.0475 64.9688C33.1257 65.0731 33.2202 65.1578 33.331 65.223C33.4451 65.2881 33.5722 65.3207 33.7123 65.3207C33.8622 65.3207 33.9828 65.2816 34.074 65.2034C34.1653 65.122 34.2321 65.0144 34.2744 64.8808C34.3168 64.7439 34.338 64.5973 34.338 64.4409C34.338 64.3301 34.3184 64.2128 34.2793 64.0889C34.2435 63.9651 34.1881 63.8494 34.1131 63.7419C34.0382 63.6311 33.9453 63.5415 33.8345 63.473C33.727 63.4046 33.6031 63.3704 33.463 63.3704ZM33.595 63.1015C33.8166 63.1015 34.0252 63.1488 34.2207 63.2433C34.4162 63.3378 34.5726 63.4763 34.6899 63.6588C34.8105 63.8413 34.8708 64.0645 34.8708 64.3284C34.8708 64.5924 34.8121 64.8205 34.6948 65.0128C34.5775 65.2051 34.4227 65.355 34.2305 65.4625C34.0382 65.5668 33.8264 65.6189 33.595 65.6189C33.3636 65.6189 33.1486 65.5668 32.9498 65.4625C32.751 65.355 32.5897 65.2051 32.4658 65.0128C32.3453 64.8205 32.285 64.5924 32.285 64.3284C32.285 64.1329 32.3225 63.9586 32.3974 63.8054C32.4724 63.649 32.5718 63.5203 32.6956 63.4193C32.8194 63.315 32.9595 63.2368 33.116 63.1846C33.2724 63.1292 33.4321 63.1015 33.595 63.1015Z" fill="black"/>
<path d="M35.6512 63.1211C35.7653 63.1243 35.8679 63.1276 35.9592 63.1309C36.0504 63.1309 36.14 63.1309 36.228 63.1309C36.3193 63.1309 36.417 63.1309 36.5213 63.1309C36.6125 63.1309 36.6777 63.1081 36.7168 63.0624C36.7559 63.0168 36.7755 62.9598 36.7755 62.8913C36.8081 62.8783 36.8472 62.8702 36.8928 62.8669C36.9417 62.8636 36.9857 62.862 37.0248 62.862C37.0117 62.9598 37.0036 63.0657 37.0003 63.1797C36.9971 63.2905 36.9954 63.4062 36.9954 63.5268C36.9792 63.5561 36.9531 63.5789 36.9172 63.5952C36.8846 63.6115 36.8358 63.6197 36.7706 63.6197C36.7054 63.6197 36.6256 63.6197 36.5311 63.6197C36.4366 63.6197 36.3388 63.6213 36.2378 63.6246C36.14 63.6246 36.0504 63.6262 35.9689 63.6295C35.8875 63.6295 35.8288 63.6327 35.793 63.6392L35.6854 64.0938C35.9852 64.1525 36.241 64.2307 36.4529 64.3284C36.6647 64.423 36.826 64.5468 36.9368 64.6999C37.0476 64.8498 37.103 65.0372 37.103 65.2621C37.103 65.4511 37.0655 65.6157 36.9906 65.7558C36.9156 65.8992 36.8162 66.0197 36.6924 66.1175C36.5685 66.2153 36.4349 66.2886 36.2916 66.3375C36.1482 66.3863 36.008 66.4108 35.8712 66.4108C35.7408 66.4108 35.6251 66.3961 35.5241 66.3668C35.4231 66.3375 35.3449 66.3016 35.2895 66.2593C35.2895 66.2267 35.2944 66.1941 35.3042 66.1615C35.3172 66.1322 35.3351 66.1028 35.3579 66.0735C35.4003 66.0865 35.4638 66.1012 35.5486 66.1175C35.6333 66.1338 35.7262 66.1419 35.8272 66.1419C35.9575 66.1419 36.0765 66.111 36.184 66.0491C36.2948 65.9904 36.3828 65.9057 36.448 65.7949C36.5132 65.6841 36.5457 65.5521 36.5457 65.3989C36.5457 65.2719 36.5148 65.1594 36.4529 65.0617C36.3909 64.9606 36.3078 64.8759 36.2036 64.8075C36.0993 64.7391 35.9803 64.6837 35.8467 64.6413C35.7164 64.5989 35.5828 64.5696 35.4459 64.5533C35.4166 64.5305 35.3938 64.5028 35.3775 64.4702C35.3612 64.4376 35.353 64.405 35.353 64.3724L35.6512 63.1211Z" fill="black"/>
<path d="M37.9801 64.612C37.8824 64.612 37.8058 64.5843 37.7504 64.5289C37.695 64.4735 37.6673 64.4034 37.6673 64.3187C37.6673 64.2307 37.6982 64.1574 37.7602 64.0987C37.8253 64.0368 37.9052 64.0058 37.9997 64.0058C38.0942 64.0058 38.1675 64.0384 38.2196 64.1036C38.275 64.1655 38.3027 64.2291 38.3027 64.2942C38.3027 64.3985 38.2702 64.4784 38.205 64.5338C38.1431 64.5859 38.0681 64.612 37.9801 64.612Z" fill="black"/>
<path d="M0 16.6643V56.3269L0.428598 57.1816C0.7423 57.8096 8.33956 72.6375 27.3495 81.1249L29 81.8614L30.6505 81.1249C49.6591 72.6381 57.2577 57.8096 57.5714 57.1829L58 56.3269V16.6643H0ZM55.7918 55.8048L55.5969 56.1946C55.2967 56.7923 48.0461 70.9386 29.7507 79.1091L29 79.4434L28.25 79.1091C9.95326 70.9386 2.70326 56.7923 2.40311 56.1946L2.20818 55.8048V18.8738H55.7918V55.8048Z" fill="#EE3300"/>
<path d="M53.7593 20.7146V55.3696C53.7593 55.3696 46.7132 69.4314 28.8077 77.4282C10.9015 69.4314 3.85742 55.3696 3.85742 55.3696V20.7146H53.7593Z" stroke="#EE3300" stroke-miterlimit="10"/>
<path d="M33.1665 3.96645L28.9999 1.68599L24.834 3.96645L17.5879 0V15.1029H40.412V0L33.1665 3.96645ZM38.564 13.2536H19.4378V3.11765L24.834 6.07394L28.9999 3.79346L33.1665 6.07394L38.5633 3.11765V13.2536H38.564Z" fill="black"/>
<path d="M33.1666 7.47968L29 5.19922L24.8341 7.47968L20.6682 5.19922V12.0219H37.3325V5.19922L33.1666 7.47968Z" fill="#EE3300"/>
<path d="M48.5341 5.20703L49.7502 7.67146L52.4689 8.06456L50.5015 9.98356L50.9663 12.6913L48.5341 11.4133L46.1013 12.6913L46.5667 9.98356L44.5986 8.06456L47.3174 7.67146L48.5341 5.20703Z" fill="#EE3300"/>
<path d="M9.46657 5.20703L10.6833 7.67146L13.402 8.06456L11.4346 9.98356L11.8987 12.6913L9.46657 11.4133L7.03505 12.6913L7.49915 9.98356L5.53174 8.06456L8.25049 7.67146L9.46657 5.20703Z" fill="#EE3300"/>
<path d="M22.5346 29.5831H27.4232V31.7035H26.3913L23.7624 41.2726H20.5084L18.7834 33.9782L17.0208 41.2726H13.7969L11.1228 31.7035H9.97037V29.5831H14.8665V31.7035H13.6764L15.3561 38.0032L17.3824 29.6062H20.1845L22.173 38.0032L23.8603 31.7035H22.5346V29.5831Z" fill="black"/>
<path d="M28.4326 29.5831H37.5168V33.5695H35.0612V31.9117H32.131V34.2172H34.3983V36.4534H32.131V39.1598H35.0612V37.0856H37.5168V41.2726H28.4326V39.1598H29.6302V31.9117H28.4326V29.5831Z" fill="black"/>
<path d="M44.3186 32.8756C44.2935 32.6957 44.2308 32.526 44.1303 32.3667C44.0349 32.2073 43.9094 32.0711 43.7537 31.958C43.603 31.8398 43.4298 31.7472 43.234 31.6804C43.0431 31.6136 42.8423 31.5802 42.6314 31.5802C42.4405 31.5802 42.2623 31.6007 42.0965 31.6418C41.9308 31.683 41.7852 31.7472 41.6597 31.8346C41.5391 31.9169 41.4412 32.0248 41.3659 32.1585C41.2956 32.2921 41.2604 32.4515 41.2604 32.6365C41.2604 32.8679 41.3081 33.0529 41.4036 33.1917C41.504 33.3254 41.6295 33.4359 41.7802 33.5233C41.9358 33.6107 42.1066 33.6801 42.2924 33.7315C42.4782 33.7829 42.659 33.8394 42.8347 33.9011L44.9062 34.6105C45.1924 34.7133 45.4611 34.8547 45.7122 35.0346C45.9632 35.2145 46.1792 35.433 46.3599 35.69C46.5457 35.947 46.6914 36.2426 46.7968 36.5767C46.9023 36.9109 46.955 37.2861 46.955 37.7025C46.955 38.268 46.8521 38.7846 46.6462 39.2524C46.4453 39.7202 46.1616 40.1211 45.795 40.4553C45.4284 40.7894 44.989 41.049 44.4768 41.234C43.9646 41.4191 43.3972 41.5116 42.7745 41.5116C42.3376 41.5116 41.9233 41.4602 41.5316 41.3574C41.1449 41.2597 40.7909 41.1158 40.4695 40.9256C40.1481 40.7354 39.8669 40.5092 39.6259 40.2471C39.3848 39.9798 39.1965 39.679 39.0609 39.3449H38.2851V37.024H41.0119V37.502C41.0119 37.7334 41.047 37.9467 41.1173 38.142C41.1926 38.3374 41.3031 38.507 41.4487 38.6509C41.5944 38.7949 41.7777 38.908 41.9986 38.9902C42.2196 39.0673 42.4782 39.1059 42.7745 39.1059C43.2264 39.1059 43.5704 39.0005 43.8064 38.7897C44.0424 38.5738 44.1605 38.2757 44.1605 37.8953C44.1605 37.6999 44.1178 37.538 44.0324 37.4095C43.9521 37.2758 43.8466 37.1653 43.716 37.0779C43.5855 36.9854 43.4398 36.9083 43.2791 36.8466C43.1185 36.7849 42.9603 36.7284 42.8046 36.677L41.0797 36.1064C40.7532 36.0036 40.4369 35.8596 40.1306 35.6746C39.8293 35.4895 39.5606 35.2582 39.3246 34.9806C39.0936 34.703 38.9078 34.3792 38.7672 34.0091C38.6316 33.6338 38.5638 33.2071 38.5638 32.7291C38.5638 32.1739 38.6642 31.6804 38.8651 31.2486C39.066 30.8117 39.3472 30.4441 39.7087 30.146C40.0703 29.8478 40.4996 29.6216 40.9968 29.4674C41.4939 29.3132 42.0388 29.2361 42.6314 29.2361C43.0984 29.2361 43.5302 29.2926 43.9269 29.4057C44.3237 29.5137 44.6777 29.6602 44.989 29.8452C45.3054 30.0303 45.5715 30.2436 45.7875 30.4852C46.0084 30.7217 46.1767 30.9684 46.2922 31.2255H47.0454V33.5541H44.3186V32.8756Z" fill="black"/>
<path d="M14.6556 47.1748C14.3744 46.7635 14.1208 46.4731 13.8948 46.3034C13.6688 46.1287 13.4253 46.0053 13.1642 45.9333C12.903 45.8562 12.6293 45.8177 12.3431 45.8177C11.9213 45.8177 11.5296 45.9153 11.168 46.1107C10.8065 46.3009 10.4926 46.563 10.2265 46.8972C9.96535 47.2262 9.75946 47.6117 9.60881 48.0538C9.45816 48.4907 9.38283 48.956 9.38283 49.4494C9.38283 49.9481 9.45565 50.4184 9.60128 50.8605C9.75193 51.2975 9.95781 51.6804 10.2189 52.0094C10.4801 52.3384 10.7914 52.6006 11.153 52.7959C11.5145 52.9861 11.9112 53.0812 12.3431 53.0812C12.6444 53.0812 12.9256 53.0324 13.1868 52.9347C13.4479 52.8319 13.6839 52.6982 13.8948 52.5338C14.1107 52.3693 14.2991 52.1816 14.4597 51.9709C14.6204 51.755 14.746 51.5314 14.8364 51.3L17.2618 51.994C17.1062 52.4978 16.8777 52.9656 16.5764 53.3974C16.2751 53.824 15.911 54.1941 15.4842 54.5077C15.0623 54.8213 14.5853 55.068 14.053 55.2479C13.5257 55.4279 12.9558 55.5178 12.3431 55.5178C11.8259 55.5178 11.3312 55.4459 10.8592 55.3019C10.3872 55.158 9.94526 54.9549 9.53348 54.6928C9.12673 54.4306 8.75512 54.1145 8.41867 53.7443C8.08724 53.3742 7.80352 52.9656 7.5675 52.5183C7.33148 52.066 7.14819 51.5828 7.01762 51.0687C6.88706 50.5495 6.82178 50.0098 6.82178 49.4494C6.82178 48.6115 6.9649 47.8276 7.25113 47.0977C7.53737 46.3626 7.92906 45.7226 8.4262 45.1777C8.92335 44.6276 9.50586 44.1958 10.1737 43.8823C10.8467 43.5636 11.5698 43.4042 12.3431 43.4042C12.9608 43.4042 13.4805 43.4839 13.9023 43.6432C14.3242 43.7974 14.7887 44.1059 15.2959 44.5685H16.9831V47.1748H14.6556Z" fill="black"/>
<path d="M24.0486 55.5178C23.5314 55.5178 23.0368 55.4459 22.5647 55.3019C22.0927 55.158 21.6508 54.9549 21.239 54.6928C20.8323 54.4306 20.4607 54.117 20.1242 53.7521C19.7928 53.3819 19.509 52.9733 19.273 52.526C19.037 52.0737 18.8537 51.5905 18.7232 51.0764C18.5926 50.5624 18.5273 50.0252 18.5273 49.4649C18.5273 48.9046 18.5926 48.3674 18.7232 47.8533C18.8537 47.3341 19.037 46.8509 19.273 46.4037C19.509 45.9513 19.7928 45.5427 20.1242 45.1777C20.4607 44.8076 20.8323 44.4914 21.239 44.2293C21.6508 43.9671 22.0927 43.764 22.5647 43.6201C23.0368 43.4762 23.5314 43.4042 24.0486 43.4042C24.5659 43.4042 25.0605 43.4762 25.5325 43.6201C26.0096 43.764 26.4515 43.9671 26.8583 44.2293C27.27 44.4914 27.6416 44.8076 27.9731 45.1777C28.3095 45.5427 28.5958 45.9513 28.8318 46.4037C29.0728 46.8509 29.2586 47.3341 29.3892 47.8533C29.5198 48.3674 29.585 48.9046 29.585 49.4649C29.585 50.02 29.5198 50.5572 29.3892 51.0764C29.2586 51.5905 29.0728 52.0737 28.8318 52.526C28.5958 52.9733 28.3095 53.3819 27.9731 53.7521C27.6416 54.117 27.27 54.4306 26.8583 54.6928C26.4515 54.9549 26.0096 55.158 25.5325 55.3019C25.0605 55.4459 24.5659 55.5178 24.0486 55.5178ZM24.0486 53.0966C24.4855 53.0966 24.8847 53.0015 25.2463 52.8113C25.6129 52.616 25.9267 52.3538 26.1879 52.0248C26.449 51.6907 26.6499 51.3052 26.7905 50.8682C26.9361 50.4261 27.0089 49.9584 27.0089 49.4649C27.0089 48.9662 26.9361 48.4959 26.7905 48.0538C26.6448 47.6117 26.439 47.2262 26.1728 46.8972C25.9117 46.563 25.6003 46.3009 25.2388 46.1107C24.8772 45.9153 24.4805 45.8177 24.0486 45.8177C23.6168 45.8177 23.2201 45.9153 22.8585 46.1107C22.4969 46.3009 22.1856 46.563 21.9245 46.8972C21.6633 47.2262 21.4575 47.6117 21.3068 48.0538C21.1612 48.4959 21.0884 48.9662 21.0884 49.4649C21.0884 49.9584 21.1612 50.4261 21.3068 50.8682C21.4575 51.3052 21.6633 51.6907 21.9245 52.0248C22.1856 52.3538 22.4969 52.616 22.8585 52.8113C23.2201 53.0015 23.6168 53.0966 24.0486 53.0966Z" fill="black"/>
<path d="M36.5752 46.9126C36.5501 46.7327 36.4873 46.563 36.3869 46.4037C36.2915 46.2443 36.1659 46.1081 36.0103 45.995C35.8596 45.8768 35.6864 45.7843 35.4905 45.7174C35.2997 45.6506 35.0988 45.6172 34.8879 45.6172C34.6971 45.6172 34.5188 45.6378 34.3531 45.6789C34.1874 45.72 34.0418 45.7843 33.9162 45.8716C33.7957 45.9539 33.6978 46.0618 33.6225 46.1955C33.5522 46.3292 33.517 46.4885 33.517 46.6736C33.517 46.9049 33.5647 47.0899 33.6601 47.2287C33.7606 47.3624 33.8861 47.4729 34.0368 47.5603C34.1924 47.6477 34.3632 47.7171 34.549 47.7685C34.7348 47.8199 34.9155 47.8764 35.0913 47.9381L37.1627 48.6475C37.449 48.7503 37.7176 48.8917 37.9687 49.0716C38.2198 49.2515 38.4357 49.47 38.6165 49.727C38.8023 49.9841 38.948 50.2796 39.0534 50.6138C39.1589 50.9479 39.2116 51.3232 39.2116 51.7395C39.2116 52.305 39.1086 52.8216 38.9028 53.2894C38.7019 53.7572 38.4182 54.1582 38.0516 54.4923C37.685 54.8264 37.2456 55.086 36.7334 55.2711C36.2212 55.4561 35.6537 55.5487 35.031 55.5487C34.5942 55.5487 34.1799 55.4973 33.7882 55.3944C33.4015 55.2968 33.0475 55.1528 32.7261 54.9626C32.4047 54.7724 32.1235 54.5463 31.8825 54.2841C31.6414 54.0168 31.4531 53.7161 31.3175 53.3819H30.5417V51.061H33.2684V51.5391C33.2684 51.7704 33.3036 51.9837 33.3739 52.1791C33.4492 52.3744 33.5597 52.544 33.7053 52.688C33.851 52.8319 34.0342 52.945 34.2552 53.0272C34.4761 53.1044 34.7348 53.1429 35.031 53.1429C35.483 53.1429 35.827 53.0375 36.063 52.8268C36.299 52.6109 36.417 52.3127 36.417 51.9323C36.417 51.737 36.3743 51.575 36.289 51.4465C36.2086 51.3129 36.1032 51.2024 35.9726 51.115C35.842 51.0224 35.6964 50.9453 35.5357 50.8836C35.375 50.822 35.2168 50.7654 35.0612 50.714L33.3362 50.1434C33.0098 50.0406 32.6935 49.8967 32.3871 49.7116C32.0858 49.5266 31.8172 49.2952 31.5812 49.0176C31.3502 48.7401 31.1644 48.4162 31.0237 48.0461C30.8882 47.6708 30.8204 47.2442 30.8204 46.7661C30.8204 46.2109 30.9208 45.7174 31.1217 45.2856C31.3225 44.8487 31.6038 44.4811 31.9653 44.183C32.3269 43.8848 32.7562 43.6587 33.2534 43.5044C33.7505 43.3502 34.2954 43.2731 34.8879 43.2731C35.3549 43.2731 35.7868 43.3297 36.1835 43.4428C36.5802 43.5507 36.9343 43.6972 37.2456 43.8823C37.562 44.0673 37.8281 44.2807 38.0441 44.5223C38.265 44.7587 38.4332 45.0055 38.5487 45.2625H39.302V47.5911H36.5752V46.9126Z" fill="black"/>
<path d="M46.3449 53.1969H47.4823L46.9701 51.5159H43.4599L42.9477 53.1969H44.1529V55.3096H39.8217V53.1969H40.6729L43.7838 43.6201H46.8044L49.8475 53.1969H50.6761V55.3096H46.3449V53.1969ZM44.055 49.542H46.3599L45.1999 45.7406L44.055 49.542Z" fill="black"/>
<path d="M79.4592 26.8849C79.6002 27.378 79.7334 27.8712 79.8587 28.3644C79.9997 28.8417 80.1328 29.3349 80.2582 29.844C80.3835 29.3349 80.5088 28.8417 80.6341 28.3644C80.7594 27.8712 80.8848 27.378 81.0101 26.8849L83.5244 17.3394H85.2162L87.9419 26.8849C88.0829 27.378 88.2161 27.8712 88.3414 28.3644C88.4824 28.8417 88.6155 29.3349 88.7409 29.844C88.8662 29.3349 88.9915 28.8417 89.1168 28.3644C89.2422 27.8712 89.3675 27.378 89.4928 26.8849L91.4901 19.3201C91.7094 18.5246 91.5449 17.8644 90.9967 17.3394H95.0148C94.7171 17.6099 94.4743 17.8883 94.2864 18.1746C94.0984 18.461 93.9261 18.8667 93.7694 19.3917L89.4928 34.044H87.4955L84.7932 25.1905C84.6679 24.7769 84.5504 24.3792 84.4408 23.9974C84.3311 23.5996 84.2136 23.1939 84.0883 22.7803C83.9786 23.1939 83.869 23.5996 83.7593 23.9974C83.6653 24.3792 83.5557 24.7769 83.4304 25.1905L80.9866 34.044H78.9893L74.3602 19.3917C74.2192 18.9303 74.0547 18.5564 73.8668 18.2701C73.6788 17.9837 73.4203 17.6735 73.0913 17.3394H77.6264C77.4228 17.578 77.2818 17.8564 77.2034 18.1746C77.1251 18.4769 77.1486 18.8587 77.2739 19.3201L79.4592 26.8849Z" fill="black"/>
<path d="M99.8752 32.0871H103.705C104.301 32.0871 104.802 32.0155 105.209 31.8724C105.616 31.7133 106.047 31.4985 106.502 31.228L106.032 34.044H96.233C96.4993 33.7099 96.703 33.3996 96.8439 33.1133C96.9849 32.8269 97.0554 32.453 97.0554 31.9917V19.3917C97.0554 18.9462 96.9771 18.5803 96.8204 18.2939C96.6795 17.9917 96.4758 17.6735 96.2095 17.3394H105.797V20.1553C105.483 19.8849 105.194 19.678 104.927 19.5349C104.677 19.3758 104.348 19.2962 103.94 19.2962H99.8752V24.5462H103.329C103.737 24.5462 104.066 24.4746 104.316 24.3314C104.583 24.1724 104.872 23.9576 105.186 23.6871V27.2905C104.872 27.0201 104.583 26.8133 104.316 26.6701C104.066 26.511 103.737 26.4314 103.329 26.4314H99.8752V32.0871Z" fill="black"/>
<path d="M107.686 30.4405C108.406 31.0928 109.166 31.6019 109.965 31.9678C110.764 32.3337 111.586 32.5167 112.432 32.5167C113.372 32.5167 114.085 32.3019 114.571 31.8724C115.072 31.4269 115.323 30.8224 115.323 30.0587C115.323 29.3746 115.135 28.8099 114.759 28.3644C114.383 27.903 113.913 27.5053 113.349 27.1712C112.785 26.8212 112.174 26.4951 111.516 26.1928C110.858 25.8746 110.247 25.5167 109.683 25.1189C109.119 24.7212 108.649 24.2439 108.273 23.6871C107.897 23.1144 107.709 22.4064 107.709 21.5633C107.709 20.8951 107.835 20.2826 108.085 19.7258C108.336 19.153 108.696 18.6599 109.166 18.2462C109.652 17.8167 110.239 17.4826 110.929 17.2439C111.618 17.0053 112.393 16.886 113.255 16.886C113.881 16.886 114.516 16.9496 115.158 17.0769C115.816 17.1883 116.474 17.3553 117.132 17.578L116.967 20.4417C116.466 19.9485 115.902 19.5667 115.276 19.2962C114.649 19.0099 113.983 18.8667 113.278 18.8667C112.432 18.8667 111.767 19.0655 111.281 19.4633C110.811 19.861 110.576 20.3701 110.576 20.9905C110.576 21.5633 110.764 22.0405 111.14 22.4224C111.516 22.8042 111.986 23.1542 112.55 23.4724C113.114 23.7905 113.725 24.1087 114.383 24.4269C115.041 24.7451 115.652 25.1269 116.216 25.5724C116.779 26.0178 117.249 26.5508 117.625 27.1712C118.001 27.7917 118.189 28.5633 118.189 29.486C118.189 30.186 118.064 30.8383 117.813 31.4428C117.578 32.0474 117.218 32.5803 116.732 33.0417C116.263 33.4871 115.667 33.8371 114.947 34.0917C114.226 34.3621 113.38 34.4974 112.409 34.4974C111.563 34.4974 110.748 34.394 109.965 34.1871C109.182 33.9962 108.461 33.7417 107.803 33.4235L107.686 30.4405Z" fill="black"/>
<path d="M127.456 32.0871C128.051 32.0871 128.552 32.0155 128.959 31.8724C129.367 31.7133 129.797 31.4985 130.252 31.228L129.782 34.044H119.983C120.25 33.7099 120.453 33.3996 120.594 33.1133C120.735 32.8269 120.806 32.453 120.806 31.9917V19.3917C120.806 18.9462 120.727 18.5803 120.571 18.2939C120.43 17.9917 120.226 17.6735 119.96 17.3394H124.471C124.205 17.6735 123.994 17.9917 123.837 18.2939C123.696 18.5803 123.625 18.9462 123.625 19.3917V32.0871H127.456Z" fill="black"/>
<path d="M134.984 32.0871H138.814C139.41 32.0871 139.911 32.0155 140.318 31.8724C140.726 31.7133 141.156 31.4985 141.611 31.228L141.141 34.044H131.342C131.608 33.7099 131.812 33.3996 131.953 33.1133C132.094 32.8269 132.164 32.453 132.164 31.9917V19.3917C132.164 18.9462 132.086 18.5803 131.929 18.2939C131.789 17.9917 131.585 17.6735 131.319 17.3394H140.906V20.1553C140.592 19.8849 140.303 19.678 140.036 19.5349C139.786 19.3758 139.457 19.2962 139.049 19.2962H134.984V24.5462H138.438C138.846 24.5462 139.175 24.4746 139.425 24.3314C139.692 24.1724 139.981 23.9576 140.295 23.6871V27.2905C139.981 27.0201 139.692 26.8133 139.425 26.6701C139.175 26.511 138.846 26.4314 138.438 26.4314H134.984V32.0871Z" fill="black"/>
<path d="M148.834 23.5917C149.006 23.9258 149.155 24.2519 149.28 24.5701C149.421 24.8724 149.578 25.2064 149.75 25.5724C149.923 25.2064 150.087 24.8564 150.244 24.5224C150.4 24.1883 150.541 23.878 150.667 23.5917L152.852 18.986C152.977 18.7155 153.048 18.4371 153.063 18.1508C153.079 17.8644 153.016 17.5939 152.875 17.3394H156.753C156.439 17.5303 156.181 17.7371 155.977 17.9599C155.789 18.1826 155.601 18.4769 155.413 18.8428L150.831 27.7201V31.9917C150.831 32.453 150.902 32.8269 151.043 33.1133C151.184 33.3996 151.387 33.7099 151.654 34.044H147.189C147.455 33.7099 147.659 33.3996 147.8 33.1133C147.941 32.8269 148.011 32.453 148.011 31.9917V28.078L143.476 19.0099C143.304 18.6439 143.116 18.3417 142.912 18.103C142.724 17.8644 142.45 17.6099 142.09 17.3394H146.578C146.406 17.4985 146.32 17.7451 146.32 18.0792C146.32 18.3974 146.398 18.7076 146.554 19.0099L148.834 23.5917Z" fill="black"/>
<path d="M174.899 33.4951C174.241 33.8133 173.512 34.0599 172.713 34.2349C171.914 34.4099 171.1 34.4974 170.269 34.4974C168.938 34.4974 167.755 34.2667 166.721 33.8053C165.687 33.344 164.81 32.7155 164.09 31.9201C163.385 31.1087 162.844 30.1701 162.468 29.1042C162.092 28.0224 161.904 26.8769 161.904 25.6678C161.904 24.4587 162.092 23.3212 162.468 22.2553C162.844 21.1894 163.385 20.2587 164.09 19.4633C164.81 18.6678 165.687 18.0394 166.721 17.578C167.755 17.1167 168.938 16.886 170.269 16.886C171.131 16.886 171.961 16.9814 172.76 17.1724C173.575 17.3633 174.327 17.6178 175.016 17.936L174.523 21.0144C174.053 20.3621 173.473 19.853 172.784 19.4871C172.094 19.1053 171.303 18.9144 170.41 18.9144C169.565 18.9144 168.805 19.0894 168.131 19.4394C167.458 19.7894 166.886 20.2667 166.416 20.8712C165.946 21.4758 165.586 22.1917 165.335 23.0189C165.084 23.8462 164.959 24.7292 164.959 25.6678C164.959 26.6224 165.084 27.5133 165.335 28.3405C165.601 29.1519 165.977 29.8678 166.463 30.4883C166.948 31.0928 167.544 31.5701 168.249 31.9201C168.954 32.2701 169.753 32.4451 170.645 32.4451C171.585 32.4451 172.447 32.2621 173.23 31.8962C174.013 31.5303 174.656 31.0451 175.157 30.4405L174.899 33.4951Z" fill="black"/>
<path d="M175.764 25.6678C175.764 24.4587 175.944 23.3212 176.305 22.2553C176.681 21.1894 177.213 20.2587 177.903 19.4633C178.608 18.6678 179.453 18.0394 180.44 17.578C181.443 17.1167 182.563 16.886 183.801 16.886C185.054 16.886 186.174 17.1167 187.161 17.578C188.163 18.0394 189.009 18.6678 189.699 19.4633C190.403 20.2587 190.936 21.1894 191.296 22.2553C191.672 23.3212 191.86 24.4587 191.86 25.6678C191.86 26.8769 191.672 28.0224 191.296 29.1042C190.936 30.1701 190.403 31.1087 189.699 31.9201C189.009 32.7155 188.163 33.344 187.161 33.8053C186.174 34.2667 185.054 34.4974 183.801 34.4974C182.563 34.4974 181.443 34.2667 180.44 33.8053C179.453 33.344 178.608 32.7155 177.903 31.9201C177.213 31.1087 176.681 30.1701 176.305 29.1042C175.944 28.0224 175.764 26.8769 175.764 25.6678ZM178.819 25.6678C178.819 26.6224 178.929 27.5133 179.148 28.3405C179.383 29.1519 179.712 29.8678 180.135 30.4883C180.574 31.0928 181.098 31.5701 181.709 31.9201C182.336 32.2701 183.033 32.4451 183.801 32.4451C184.584 32.4451 185.281 32.2701 185.892 31.9201C186.503 31.5701 187.028 31.0928 187.466 30.4883C187.905 29.8678 188.234 29.1519 188.453 28.3405C188.688 27.5133 188.806 26.6224 188.806 25.6678C188.806 24.7292 188.688 23.8462 188.453 23.0189C188.234 22.1917 187.905 21.4758 187.466 20.8712C187.028 20.2667 186.503 19.7894 185.892 19.4394C185.281 19.0894 184.584 18.9144 183.801 18.9144C183.033 18.9144 182.336 19.0894 181.709 19.4394C181.098 19.7894 180.574 20.2667 180.135 20.8712C179.712 21.4758 179.383 22.1917 179.148 23.0189C178.929 23.8462 178.819 24.7292 178.819 25.6678Z" fill="black"/>
<path d="M200.886 32.0871C201.482 32.0871 201.983 32.0155 202.39 31.8724C202.797 31.7133 203.228 31.4985 203.682 31.228L203.213 34.044H193.414C193.68 33.7099 193.884 33.3996 194.025 33.1133C194.166 32.8269 194.236 32.453 194.236 31.9917V19.3917C194.236 18.9462 194.158 18.5803 194.001 18.2939C193.86 17.9917 193.657 17.6735 193.39 17.3394H197.902C197.636 17.6735 197.424 17.9917 197.268 18.2939C197.127 18.5803 197.056 18.9462 197.056 19.3917V32.0871H200.886Z" fill="black"/>
<path d="M212.245 32.0871C212.84 32.0871 213.342 32.0155 213.749 31.8724C214.156 31.7133 214.587 31.4985 215.041 31.228L214.571 34.044H204.773C205.039 33.7099 205.243 33.3996 205.384 33.1133C205.525 32.8269 205.595 32.453 205.595 31.9917V19.3917C205.595 18.9462 205.517 18.5803 205.36 18.2939C205.219 17.9917 205.016 17.6735 204.749 17.3394H209.261C208.994 17.6735 208.783 17.9917 208.626 18.2939C208.485 18.5803 208.415 18.9462 208.415 19.3917V32.0871H212.245Z" fill="black"/>
<path d="M219.774 32.0871H223.604C224.199 32.0871 224.7 32.0155 225.108 31.8724C225.515 31.7133 225.946 31.4985 226.4 31.228L225.93 34.044H216.132C216.398 33.7099 216.601 33.3996 216.742 33.1133C216.883 32.8269 216.954 32.453 216.954 31.9917V19.3917C216.954 18.9462 216.876 18.5803 216.719 18.2939C216.578 17.9917 216.374 17.6735 216.108 17.3394H225.695V20.1553C225.382 19.8849 225.092 19.678 224.826 19.5349C224.575 19.3758 224.246 19.2962 223.839 19.2962H219.774V24.5462H223.228C223.635 24.5462 223.964 24.4746 224.215 24.3314C224.481 24.1724 224.771 23.9576 225.084 23.6871V27.2905C224.771 27.0201 224.481 26.8133 224.215 26.6701C223.964 26.511 223.635 26.4314 223.228 26.4314H219.774V32.0871Z" fill="black"/>
<path d="M241.213 33.0655C240.273 33.5269 239.396 33.8769 238.581 34.1155C237.767 34.3701 236.866 34.4974 235.879 34.4974C234.516 34.4974 233.302 34.2667 232.237 33.8053C231.172 33.344 230.279 32.7155 229.558 31.9201C228.838 31.1087 228.289 30.1701 227.913 29.1042C227.537 28.0224 227.349 26.8769 227.349 25.6678C227.349 24.4587 227.537 23.3212 227.913 22.2553C228.289 21.1894 228.838 20.2587 229.558 19.4633C230.294 18.6678 231.187 18.0394 232.237 17.578C233.302 17.1167 234.516 16.886 235.879 16.886C236.756 16.886 237.602 16.9814 238.417 17.1724C239.247 17.3633 240.007 17.6178 240.696 17.936L240.203 21.0144C239.733 20.3621 239.145 19.853 238.44 19.4871C237.735 19.1053 236.929 18.9144 236.02 18.9144C235.158 18.9144 234.375 19.0894 233.67 19.4394C232.981 19.7894 232.394 20.2667 231.908 20.8712C231.422 21.4758 231.046 22.1917 230.78 23.0189C230.529 23.8462 230.404 24.7292 230.404 25.6678C230.404 26.6224 230.529 27.5133 230.78 28.3405C231.046 29.1519 231.422 29.8678 231.908 30.4883C232.394 31.0928 232.989 31.5701 233.694 31.9201C234.399 32.2701 235.205 32.4451 236.114 32.4451C236.929 32.4451 237.688 32.3019 238.393 32.0155V27.1951C238.393 26.7496 238.315 26.3837 238.158 26.0974C238.017 25.7951 237.814 25.4769 237.547 25.1428H242.059C241.793 25.4769 241.581 25.7951 241.425 26.0974C241.284 26.3837 241.213 26.7496 241.213 27.1951V33.0655Z" fill="black"/>
<path d="M247.127 32.0871H250.957C251.552 32.0871 252.053 32.0155 252.461 31.8724C252.868 31.7133 253.299 31.4985 253.753 31.228L253.283 34.044H243.484C243.751 33.7099 243.954 33.3996 244.095 33.1133C244.236 32.8269 244.307 32.453 244.307 31.9917V19.3917C244.307 18.9462 244.229 18.5803 244.072 18.2939C243.931 17.9917 243.727 17.6735 243.461 17.3394H253.048V20.1553C252.735 19.8849 252.445 19.678 252.179 19.5349C251.928 19.3758 251.599 19.2962 251.192 19.2962H247.127V24.5462H250.581C250.988 24.5462 251.317 24.4746 251.568 24.3314C251.834 24.1724 252.124 23.9576 252.437 23.6871V27.2905C252.124 27.0201 251.834 26.8133 251.568 26.6701C251.317 26.511 250.988 26.4314 250.581 26.4314H247.127V32.0871Z" fill="black"/>
<path d="M258.925 25.6678C258.925 24.4587 259.105 23.3212 259.465 22.2553C259.841 21.1894 260.374 20.2587 261.063 19.4633C261.768 18.6678 262.614 18.0394 263.601 17.578C264.603 17.1167 265.723 16.886 266.961 16.886C268.214 16.886 269.334 17.1167 270.321 17.578C271.324 18.0394 272.169 18.6678 272.859 19.4633C273.564 20.2587 274.096 21.1894 274.457 22.2553C274.833 23.3212 275.021 24.4587 275.021 25.6678C275.021 26.8769 274.833 28.0224 274.457 29.1042C274.096 30.1701 273.564 31.1087 272.859 31.9201C272.169 32.7155 271.324 33.344 270.321 33.8053C269.334 34.2667 268.214 34.4974 266.961 34.4974C265.723 34.4974 264.603 34.2667 263.601 33.8053C262.614 33.344 261.768 32.7155 261.063 31.9201C260.374 31.1087 259.841 30.1701 259.465 29.1042C259.105 28.0224 258.925 26.8769 258.925 25.6678ZM261.979 25.6678C261.979 26.6224 262.089 27.5133 262.308 28.3405C262.543 29.1519 262.872 29.8678 263.295 30.4883C263.734 31.0928 264.259 31.5701 264.869 31.9201C265.496 32.2701 266.193 32.4451 266.961 32.4451C267.744 32.4451 268.441 32.2701 269.052 31.9201C269.663 31.5701 270.188 31.0928 270.626 30.4883C271.065 29.8678 271.394 29.1519 271.613 28.3405C271.848 27.5133 271.966 26.6224 271.966 25.6678C271.966 24.7292 271.848 23.8462 271.613 23.0189C271.394 22.1917 271.065 21.4758 270.626 20.8712C270.188 20.2667 269.663 19.7894 269.052 19.4394C268.441 19.0894 267.744 18.9144 266.961 18.9144C266.193 18.9144 265.496 19.0894 264.869 19.4394C264.259 19.7894 263.734 20.2667 263.295 20.8712C262.872 21.4758 262.543 22.1917 262.308 23.0189C262.089 23.8462 261.979 24.7292 261.979 25.6678Z" fill="black"/>
<path d="M276.574 34.044C276.84 33.7099 277.044 33.3996 277.185 33.1133C277.326 32.8269 277.397 32.453 277.397 31.9917V19.3917C277.397 18.9462 277.318 18.5803 277.162 18.2939C277.021 17.9917 276.817 17.6735 276.551 17.3394H286.138V20.1553C285.824 19.8849 285.535 19.678 285.268 19.5349C285.018 19.3758 284.689 19.2962 284.281 19.2962H280.216V24.5462H283.506C283.913 24.5462 284.242 24.4746 284.493 24.3314C284.759 24.1724 285.049 23.9576 285.362 23.6871V27.2905C285.049 27.0201 284.759 26.8133 284.493 26.6701C284.242 26.511 283.913 26.4314 283.506 26.4314H280.216V31.9917C280.216 32.453 280.287 32.8269 280.428 33.1133C280.569 33.3996 280.772 33.7099 281.039 34.044H276.574Z" fill="black"/>
<path d="M291.997 30.4405C292.717 31.0928 293.477 31.6019 294.276 31.9678C295.075 32.3337 295.897 32.5167 296.743 32.5167C297.683 32.5167 298.396 32.3019 298.882 31.8724C299.383 31.4269 299.634 30.8224 299.634 30.0587C299.634 29.3746 299.446 28.8099 299.07 28.3644C298.694 27.903 298.224 27.5053 297.66 27.1712C297.096 26.8212 296.485 26.4951 295.827 26.1928C295.169 25.8746 294.558 25.5167 293.994 25.1189C293.43 24.7212 292.96 24.2439 292.584 23.6871C292.208 23.1144 292.02 22.4064 292.02 21.5633C292.02 20.8951 292.146 20.2826 292.396 19.7258C292.647 19.153 293.007 18.6599 293.477 18.2462C293.963 17.8167 294.55 17.4826 295.24 17.2439C295.929 17.0053 296.704 16.886 297.566 16.886C298.192 16.886 298.827 16.9496 299.469 17.0769C300.127 17.1883 300.785 17.3553 301.443 17.578L301.278 20.4417C300.777 19.9485 300.213 19.5667 299.587 19.2962C298.96 19.0099 298.294 18.8667 297.589 18.8667C296.743 18.8667 296.078 19.0655 295.592 19.4633C295.122 19.861 294.887 20.3701 294.887 20.9905C294.887 21.5633 295.075 22.0405 295.451 22.4224C295.827 22.8042 296.297 23.1542 296.861 23.4724C297.425 23.7905 298.036 24.1087 298.694 24.4269C299.352 24.7451 299.963 25.1269 300.527 25.5724C301.09 26.0178 301.56 26.5508 301.936 27.1712C302.312 27.7917 302.5 28.5633 302.5 29.486C302.5 30.186 302.375 30.8383 302.124 31.4428C301.889 32.0474 301.529 32.5803 301.043 33.0417C300.574 33.4871 299.978 33.8371 299.258 34.0917C298.537 34.3621 297.691 34.4974 296.72 34.4974C295.874 34.4974 295.059 34.394 294.276 34.1871C293.493 33.9962 292.772 33.7417 292.114 33.4235L291.997 30.4405Z" fill="black"/>
<path d="M317.148 33.4951C316.49 33.8133 315.761 34.0599 314.962 34.2349C314.163 34.4099 313.349 34.4974 312.518 34.4974C311.187 34.4974 310.004 34.2667 308.97 33.8053C307.936 33.344 307.059 32.7155 306.339 31.9201C305.634 31.1087 305.093 30.1701 304.717 29.1042C304.341 28.0224 304.153 26.8769 304.153 25.6678C304.153 24.4587 304.341 23.3212 304.717 22.2553C305.093 21.1894 305.634 20.2587 306.339 19.4633C307.059 18.6678 307.936 18.0394 308.97 17.578C310.004 17.1167 311.187 16.886 312.518 16.886C313.38 16.886 314.21 16.9814 315.009 17.1724C315.824 17.3633 316.576 17.6178 317.265 17.936L316.772 21.0144C316.302 20.3621 315.722 19.853 315.033 19.4871C314.343 19.1053 313.552 18.9144 312.659 18.9144C311.814 18.9144 311.054 19.0894 310.38 19.4394C309.707 19.7894 309.135 20.2667 308.665 20.8712C308.195 21.4758 307.835 22.1917 307.584 23.0189C307.333 23.8462 307.208 24.7292 307.208 25.6678C307.208 26.6224 307.333 27.5133 307.584 28.3405C307.85 29.1519 308.226 29.8678 308.712 30.4883C309.197 31.0928 309.793 31.5701 310.498 31.9201C311.203 32.2701 312.002 32.4451 312.894 32.4451C313.834 32.4451 314.696 32.2621 315.479 31.8962C316.262 31.5303 316.905 31.0451 317.406 30.4405L317.148 33.4951Z" fill="black"/>
<path d="M322.118 31.9917C322.118 32.453 322.188 32.8269 322.329 33.1133C322.47 33.3996 322.674 33.7099 322.94 34.044H318.476C318.742 33.7099 318.945 33.3996 319.086 33.1133C319.227 32.8269 319.298 32.453 319.298 31.9917V19.3917C319.298 18.9462 319.22 18.5803 319.063 18.2939C318.922 17.9917 318.718 17.6735 318.452 17.3394H322.964C322.697 17.6735 322.486 17.9917 322.329 18.2939C322.188 18.5803 322.118 18.9462 322.118 19.3917V31.9917Z" fill="black"/>
<path d="M328.268 32.0871H332.098C332.693 32.0871 333.194 32.0155 333.602 31.8724C334.009 31.7133 334.44 31.4985 334.894 31.228L334.424 34.044H324.625C324.892 33.7099 325.095 33.3996 325.236 33.1133C325.377 32.8269 325.448 32.453 325.448 31.9917V19.3917C325.448 18.9462 325.369 18.5803 325.213 18.2939C325.072 17.9917 324.868 17.6735 324.602 17.3394H334.189V20.1553C333.876 19.8849 333.586 19.678 333.32 19.5349C333.069 19.3758 332.74 19.2962 332.333 19.2962H328.268V24.5462H331.722C332.129 24.5462 332.458 24.4746 332.709 24.3314C332.975 24.1724 333.265 23.9576 333.578 23.6871V27.2905C333.265 27.0201 332.975 26.8133 332.709 26.6701C332.458 26.511 332.129 26.4314 331.722 26.4314H328.268V32.0871Z" fill="black"/>
<path d="M335.984 34.044C336.25 33.7099 336.454 33.3996 336.595 33.1133C336.736 32.8269 336.807 32.453 336.807 31.9917V19.3917C336.807 18.9462 336.728 18.5803 336.572 18.2939C336.431 17.9917 336.227 17.6735 335.961 17.3394H339.133L345.148 25.5962C345.477 26.0417 345.798 26.4871 346.112 26.9326C346.441 27.378 346.762 27.8315 347.075 28.2928V19.3917C347.075 18.9303 347.005 18.5564 346.864 18.2701C346.723 17.9837 346.519 17.6735 346.253 17.3394H350.036C349.77 17.6735 349.566 17.9837 349.425 18.2701C349.284 18.5564 349.213 18.9303 349.213 19.3917V34.044H347.968L341.342 25.2144C340.919 24.6576 340.511 24.0928 340.12 23.5201C339.728 22.9474 339.337 22.3667 338.945 21.778V31.9917C338.945 32.453 339.015 32.8269 339.156 33.1133C339.297 33.3996 339.501 33.7099 339.767 34.044H335.984Z" fill="black"/>
<path d="M364.556 33.4951C363.898 33.8133 363.17 34.0599 362.371 34.2349C361.572 34.4099 360.757 34.4974 359.927 34.4974C358.596 34.4974 357.413 34.2667 356.379 33.8053C355.345 33.344 354.468 32.7155 353.747 31.9201C353.042 31.1087 352.502 30.1701 352.126 29.1042C351.75 28.0224 351.562 26.8769 351.562 25.6678C351.562 24.4587 351.75 23.3212 352.126 22.2553C352.502 21.1894 353.042 20.2587 353.747 19.4633C354.468 18.6678 355.345 18.0394 356.379 17.578C357.413 17.1167 358.596 16.886 359.927 16.886C360.789 16.886 361.619 16.9814 362.418 17.1724C363.233 17.3633 363.984 17.6178 364.674 17.936L364.18 21.0144C363.71 20.3621 363.131 19.853 362.441 19.4871C361.752 19.1053 360.961 18.9144 360.068 18.9144C359.222 18.9144 358.462 19.0894 357.789 19.4394C357.115 19.7894 356.543 20.2667 356.074 20.8712C355.604 21.4758 355.243 22.1917 354.993 23.0189C354.742 23.8462 354.617 24.7292 354.617 25.6678C354.617 26.6224 354.742 27.5133 354.993 28.3405C355.259 29.1519 355.635 29.8678 356.121 30.4883C356.606 31.0928 357.201 31.5701 357.906 31.9201C358.611 32.2701 359.41 32.4451 360.303 32.4451C361.243 32.4451 362.105 32.2621 362.888 31.8962C363.671 31.5303 364.313 31.0451 364.815 30.4405L364.556 33.4951Z" fill="black"/>
<path d="M369.526 32.0871H373.357C373.952 32.0871 374.453 32.0155 374.86 31.8724C375.268 31.7133 375.698 31.4985 376.153 31.228L375.683 34.044H365.884C366.151 33.7099 366.354 33.3996 366.495 33.1133C366.636 32.8269 366.707 32.453 366.707 31.9917V19.3917C366.707 18.9462 366.628 18.5803 366.472 18.2939C366.331 17.9917 366.127 17.6735 365.861 17.3394H375.448V20.1553C375.135 19.8849 374.845 19.678 374.578 19.5349C374.328 19.3758 373.999 19.2962 373.592 19.2962H369.526V24.5462H372.981C373.388 24.5462 373.717 24.4746 373.967 24.3314C374.234 24.1724 374.524 23.9576 374.837 23.6871V27.2905C374.524 27.0201 374.234 26.8133 373.967 26.6701C373.717 26.511 373.388 26.4314 372.981 26.4314H369.526V32.0871Z" fill="black"/>
<path d="M72 51.3413C72 50.1712 72.1743 49.0704 72.523 48.0388C72.8869 47.0073 73.4023 46.1066 74.0693 45.3369C74.7515 44.5671 75.5702 43.9589 76.5252 43.5124C77.4955 43.066 78.5794 42.8427 79.777 42.8427C80.9898 42.8427 82.0737 43.066 83.0288 43.5124C83.999 43.9589 84.8177 44.5671 85.4847 45.3369C86.1669 46.1066 86.6823 47.0073 87.031 48.0388C87.3949 49.0704 87.5768 50.1712 87.5768 51.3413C87.5768 52.5113 87.3949 53.6199 87.031 54.6668C86.6823 55.6983 86.1669 56.6067 85.4847 57.3918C84.8177 58.1616 83.999 58.7698 83.0288 59.2163C82.0737 59.6627 80.9898 59.886 79.777 59.886C78.5794 59.886 77.4955 59.6627 76.5252 59.2163C75.5702 58.7698 74.7515 58.1616 74.0693 57.3918C73.4023 56.6067 72.8869 55.6983 72.523 54.6668C72.1743 53.6199 72 52.5113 72 51.3413ZM74.9562 51.3413C74.9562 52.265 75.0623 53.1272 75.2745 53.9278C75.5019 54.713 75.8203 55.4058 76.2296 56.0062C76.6541 56.5913 77.1619 57.0531 77.7532 57.3918C78.3596 57.7306 79.0342 57.8999 79.777 57.8999C80.535 57.8999 81.2096 57.7306 81.8009 57.3918C82.3921 57.0531 82.9 56.5913 83.3244 56.0062C83.7489 55.4058 84.0673 54.713 84.2795 53.9278C84.5069 53.1272 84.6206 52.265 84.6206 51.3413C84.6206 50.4329 84.5069 49.5784 84.2795 48.7778C84.0673 47.9773 83.7489 47.2844 83.3244 46.6994C82.9 46.1143 82.3921 45.6525 81.8009 45.3138C81.2096 44.975 80.535 44.8057 79.777 44.8057C79.0342 44.8057 78.3596 44.975 77.7532 45.3138C77.1619 45.6525 76.6541 46.1143 76.2296 46.6994C75.8203 47.2844 75.5019 47.9773 75.2745 48.7778C75.0623 49.5784 74.9562 50.4329 74.9562 51.3413Z" fill="black"/>
<path d="M96.3115 57.5535C96.8876 57.5535 97.3727 57.4842 97.7669 57.3457C98.161 57.1917 98.5779 56.9839 99.0176 56.7221L98.5628 59.4472H89.0803C89.338 59.1239 89.5351 58.8237 89.6715 58.5465C89.8079 58.2694 89.8762 57.9076 89.8762 57.4611V45.2676C89.8762 44.8365 89.8004 44.4824 89.6488 44.2053C89.5123 43.9127 89.3152 43.6048 89.0575 43.2815H93.4236C93.1659 43.6048 92.9612 43.9127 92.8096 44.2053C92.6732 44.4824 92.6049 44.8365 92.6049 45.2676V57.5535H96.3115Z" fill="black"/>
<path d="M105.257 57.5304C106.197 57.5304 107.001 57.3688 107.668 57.0454C108.335 56.7221 108.873 56.2833 109.282 55.7291C109.707 55.1748 110.018 54.5205 110.215 53.7661C110.412 53.0117 110.51 52.2034 110.51 51.3413C110.51 50.4791 110.419 49.6785 110.237 48.9395C110.055 48.1851 109.76 47.5308 109.351 46.9765C108.956 46.4223 108.441 45.9912 107.804 45.6833C107.167 45.3599 106.394 45.1983 105.485 45.1983H103.597V57.5304H105.257ZM100.073 59.4472C100.33 59.1239 100.527 58.8237 100.664 58.5465C100.8 58.2694 100.869 57.9076 100.869 57.4611V45.2676C100.869 44.8365 100.793 44.4824 100.641 44.2053C100.505 43.9127 100.308 43.6048 100.05 43.2815H105.667C107.001 43.2815 108.153 43.497 109.123 43.9281C110.109 44.3438 110.92 44.9212 111.556 45.6602C112.208 46.3838 112.686 47.2382 112.989 48.2236C113.307 49.2089 113.466 50.2558 113.466 51.3644C113.466 52.4729 113.307 53.5198 112.989 54.5051C112.686 55.4751 112.208 56.3295 111.556 57.0685C110.92 57.8075 110.109 58.3926 109.123 58.8237C108.153 59.2394 107.001 59.4472 105.667 59.4472H100.073Z" fill="black"/>
<path d="M119.15 55.96C119.848 56.5913 120.583 57.0839 121.356 57.438C122.129 57.7921 122.925 57.9692 123.744 57.9692C124.654 57.9692 125.343 57.7614 125.813 57.3457C126.298 56.9146 126.541 56.3295 126.541 55.5905C126.541 54.9285 126.359 54.3819 125.995 53.9509C125.631 53.5044 125.177 53.1195 124.631 52.7962C124.085 52.4575 123.494 52.1418 122.857 51.8493C122.22 51.5414 121.629 51.195 121.083 50.8101C120.538 50.4252 120.083 49.9633 119.719 49.4245C119.355 48.8702 119.173 48.1851 119.173 47.3691C119.173 46.7225 119.295 46.1297 119.537 45.5909C119.78 45.0366 120.128 44.5594 120.583 44.1591C121.053 43.7434 121.622 43.4201 122.289 43.1891C122.956 42.9582 123.706 42.8427 124.54 42.8427C125.146 42.8427 125.76 42.9043 126.382 43.0275C127.018 43.1352 127.655 43.2969 128.292 43.5124L128.133 46.2837C127.648 45.8064 127.102 45.4369 126.495 45.1752C125.889 44.8981 125.245 44.7595 124.563 44.7595C123.744 44.7595 123.1 44.952 122.63 45.3369C122.175 45.7218 121.947 46.2144 121.947 46.8149C121.947 47.3691 122.129 47.831 122.493 48.2005C122.857 48.57 123.312 48.9087 123.858 49.2166C124.403 49.5245 124.995 49.8325 125.631 50.1404C126.268 50.4483 126.859 50.8178 127.405 51.2489C127.951 51.68 128.406 52.1957 128.769 52.7962C129.133 53.3966 129.315 54.1433 129.315 55.0363C129.315 55.7137 129.194 56.3449 128.951 56.93C128.724 57.515 128.375 58.0308 127.905 58.4773C127.451 58.9083 126.874 59.2471 126.177 59.4934C125.48 59.7551 124.661 59.886 123.721 59.886C122.903 59.886 122.114 59.7859 121.356 59.5858C120.598 59.401 119.901 59.1547 119.264 58.8468L119.15 55.96Z" fill="black"/>
<path d="M134.894 59.4472C135.152 59.1393 135.349 58.8391 135.486 58.5465C135.622 58.254 135.69 57.8922 135.69 57.4611V45.1983H132.711C132.317 45.1983 131.991 45.2753 131.733 45.4292C131.491 45.5678 131.218 45.7679 130.915 46.0297V43.2815H143.194V46.0297C142.891 45.7679 142.611 45.5678 142.353 45.4292C142.11 45.2753 141.792 45.1983 141.398 45.1983H138.419V57.4611C138.419 57.6921 138.434 57.8922 138.464 58.0616C138.495 58.2309 138.54 58.3926 138.601 58.5465C138.677 58.6851 138.76 58.8314 138.851 58.9853C138.957 59.1239 139.078 59.2779 139.215 59.4472H134.894Z" fill="black"/>
<path d="M148.211 54.1125C148.211 54.5282 148.249 54.9516 148.325 55.3827C148.416 55.7984 148.575 56.1833 148.802 56.5374C149.03 56.8761 149.348 57.1532 149.757 57.3688C150.167 57.5843 150.697 57.6921 151.349 57.6921C151.925 57.6921 152.501 57.5843 153.077 57.3688C153.653 57.1532 154.267 56.7991 154.919 56.3064V45.2676C154.919 44.8365 154.843 44.4824 154.692 44.2053C154.555 43.9127 154.358 43.6048 154.101 43.2815H158.467C158.209 43.6048 158.004 43.9127 157.853 44.2053C157.716 44.4824 157.648 44.8365 157.648 45.2676V57.4611C157.648 57.9076 157.716 58.2694 157.853 58.5465C157.989 58.8237 158.186 59.1239 158.444 59.4472H155.101C155.071 59.1855 155.04 58.9468 155.01 58.7313C154.995 58.5004 154.972 58.254 154.942 57.9923C154.26 58.6081 153.57 59.0469 152.873 59.3086C152.175 59.5704 151.417 59.7012 150.599 59.7012C149.674 59.7012 148.886 59.555 148.234 59.2625C147.597 58.9545 147.074 58.5465 146.665 58.0385C146.255 57.5304 145.952 56.9377 145.755 56.2603C145.573 55.5828 145.482 54.8669 145.482 54.1125V45.2676C145.482 44.8365 145.406 44.4824 145.255 44.2053C145.118 43.9127 144.921 43.6048 144.664 43.2815H149.03C148.772 43.6048 148.567 43.9127 148.416 44.2053C148.279 44.4824 148.211 44.8365 148.211 45.2676V54.1125Z" fill="black"/>
<path d="M165.194 57.5304C166.134 57.5304 166.937 57.3688 167.604 57.0454C168.271 56.7221 168.809 56.2833 169.219 55.7291C169.643 55.1748 169.954 54.5205 170.151 53.7661C170.348 53.0117 170.447 52.2034 170.447 51.3413C170.447 50.4791 170.356 49.6785 170.174 48.9395C169.992 48.1851 169.696 47.5308 169.287 46.9765C168.893 46.4223 168.377 45.9912 167.741 45.6833C167.104 45.3599 166.331 45.1983 165.421 45.1983H163.534V57.5304H165.194ZM160.009 59.4472C160.267 59.1239 160.464 58.8237 160.6 58.5465C160.737 58.2694 160.805 57.9076 160.805 57.4611V45.2676C160.805 44.8365 160.729 44.4824 160.577 44.2053C160.441 43.9127 160.244 43.6048 159.986 43.2815H165.603C166.937 43.2815 168.089 43.497 169.059 43.9281C170.045 44.3438 170.856 44.9212 171.493 45.6602C172.144 46.3838 172.622 47.2382 172.925 48.2236C173.244 49.2089 173.403 50.2558 173.403 51.3644C173.403 52.4729 173.244 53.5198 172.925 54.5051C172.622 55.4751 172.144 56.3295 171.493 57.0685C170.856 57.8075 170.045 58.3926 169.059 58.8237C168.089 59.2394 166.937 59.4472 165.603 59.4472H160.009Z" fill="black"/>
<path d="M178.434 57.5535H182.141C182.717 57.5535 183.202 57.4842 183.596 57.3457C183.991 57.1917 184.407 56.9839 184.847 56.7221L184.392 59.4472H174.91C175.167 59.1239 175.365 58.8237 175.501 58.5465C175.637 58.2694 175.706 57.9076 175.706 57.4611V45.2676C175.706 44.8365 175.63 44.4824 175.478 44.2053C175.342 43.9127 175.145 43.6048 174.887 43.2815H184.165V46.0066C183.862 45.7448 183.581 45.5447 183.324 45.4061C183.081 45.2522 182.763 45.1752 182.368 45.1752H178.434V50.2558H181.777C182.171 50.2558 182.49 50.1866 182.732 50.048C182.99 49.894 183.27 49.6862 183.574 49.4245V52.9116C183.27 52.6499 182.99 52.4498 182.732 52.3112C182.49 52.1572 182.171 52.0803 181.777 52.0803H178.434V57.5535Z" fill="black"/>
<path d="M185.902 59.4472C186.16 59.1239 186.357 58.8237 186.493 58.5465C186.63 58.2694 186.698 57.9076 186.698 57.4611V45.2676C186.698 44.8365 186.622 44.4824 186.471 44.2053C186.334 43.9127 186.137 43.6048 185.879 43.2815H188.949L194.771 51.272C195.089 51.7031 195.4 52.1342 195.703 52.5652C196.021 52.9963 196.332 53.4351 196.635 53.8816V45.2676C196.635 44.8211 196.567 44.4593 196.431 44.1822C196.294 43.905 196.097 43.6048 195.839 43.2815H199.501C199.243 43.6048 199.046 43.905 198.909 44.1822C198.773 44.4593 198.705 44.8211 198.705 45.2676V59.4472H197.499L191.087 50.9025C190.678 50.3636 190.283 49.8171 189.904 49.2628C189.525 48.7086 189.146 48.1466 188.767 47.577V57.4611C188.767 57.9076 188.836 58.2694 188.972 58.5465C189.108 58.8237 189.306 59.1239 189.563 59.4472H185.902Z" fill="black"/>
<path d="M204.957 59.4472C205.215 59.1393 205.412 58.8391 205.548 58.5465C205.685 58.254 205.753 57.8922 205.753 57.4611V45.1983H202.774C202.38 45.1983 202.054 45.2753 201.796 45.4292C201.554 45.5678 201.281 45.7679 200.977 46.0297V43.2815H213.257V46.0297C212.954 45.7679 212.673 45.5678 212.416 45.4292C212.173 45.2753 211.855 45.1983 211.46 45.1983H208.482V57.4611C208.482 57.6921 208.497 57.8922 208.527 58.0616C208.557 58.2309 208.603 58.3926 208.663 58.5465C208.739 58.6851 208.823 58.8314 208.914 58.9853C209.02 59.1239 209.141 59.2779 209.277 59.4472H204.957Z" fill="black"/>
<path d="M214.84 55.96C215.537 56.5913 216.272 57.0839 217.046 57.438C217.819 57.7921 218.615 57.9692 219.433 57.9692C220.343 57.9692 221.033 57.7614 221.503 57.3457C221.988 56.9146 222.23 56.3295 222.23 55.5905C222.23 54.9285 222.048 54.3819 221.685 53.9509C221.321 53.5044 220.866 53.1195 220.32 52.7962C219.774 52.4575 219.183 52.1418 218.546 51.8493C217.91 51.5414 217.318 51.195 216.773 50.8101C216.227 50.4252 215.772 49.9633 215.408 49.4245C215.045 48.8702 214.863 48.1851 214.863 47.3691C214.863 46.7225 214.984 46.1297 215.226 45.5909C215.469 45.0366 215.818 44.5594 216.272 44.1591C216.742 43.7434 217.311 43.4201 217.978 43.1891C218.645 42.9582 219.395 42.8427 220.229 42.8427C220.836 42.8427 221.45 42.9043 222.071 43.0275C222.708 43.1352 223.345 43.2969 223.981 43.5124L223.822 46.2837C223.337 45.8064 222.791 45.4369 222.185 45.1752C221.578 44.8981 220.934 44.7595 220.252 44.7595C219.433 44.7595 218.789 44.952 218.319 45.3369C217.864 45.7218 217.637 46.2144 217.637 46.8149C217.637 47.3691 217.819 47.831 218.183 48.2005C218.546 48.57 219.001 48.9087 219.547 49.2166C220.093 49.5245 220.684 49.8325 221.321 50.1404C221.957 50.4483 222.549 50.8178 223.094 51.2489C223.64 51.68 224.095 52.1957 224.459 52.7962C224.823 53.3966 225.005 54.1433 225.005 55.0363C225.005 55.7137 224.883 56.3449 224.641 56.93C224.413 57.515 224.065 58.0308 223.595 58.4773C223.14 58.9083 222.564 59.2471 221.866 59.4934C221.169 59.7551 220.35 59.886 219.411 59.886C218.592 59.886 217.804 59.7859 217.046 59.5858C216.288 59.401 215.59 59.1547 214.954 58.8468L214.84 55.96Z" fill="black"/>
<path d="M226.501 44.39C226.501 43.9435 226.66 43.574 226.978 43.2815C227.296 42.989 227.683 42.8427 228.138 42.8427C228.577 42.8427 228.956 43.0044 229.275 43.3277C229.593 43.651 229.752 44.1052 229.752 44.6902C229.752 45.0751 229.677 45.4754 229.525 45.8911C229.389 46.2914 229.207 46.6763 228.979 47.0458C228.752 47.4153 228.487 47.7617 228.183 48.085C227.895 48.3929 227.592 48.647 227.274 48.8471H226.046C226.44 48.4622 226.811 48.0234 227.16 47.5308C227.509 47.0227 227.706 46.4992 227.751 45.9604C227.387 45.868 227.084 45.6833 226.842 45.4061C226.614 45.1136 226.501 44.7749 226.501 44.39Z" fill="black"/>
<path d="M238.897 57.4611C238.776 57.8614 238.768 58.2386 238.874 58.5927C238.98 58.9314 239.162 59.2163 239.42 59.4472H235.213C235.562 59.1855 235.842 58.916 236.054 58.6389C236.282 58.3618 236.479 57.9692 236.646 57.4611L240.716 45.2676C240.822 44.9597 240.845 44.6209 240.784 44.2514C240.724 43.8665 240.534 43.5432 240.216 43.2815H244.4L249.152 57.4611C249.304 57.9076 249.486 58.2694 249.698 58.5465C249.926 58.8237 250.229 59.1239 250.608 59.4472H245.764C246.037 59.2009 246.219 58.9237 246.31 58.6158C246.416 58.3079 246.393 57.923 246.242 57.4611L245.264 54.4127H239.852L238.897 57.4611ZM244.695 52.5652L242.558 45.868L240.443 52.5652H244.695Z" fill="black"/>
<path d="M251.881 55.96C252.578 56.5913 253.314 57.0839 254.087 57.438C254.86 57.7921 255.656 57.9692 256.474 57.9692C257.384 57.9692 258.074 57.7614 258.544 57.3457C259.029 56.9146 259.271 56.3295 259.271 55.5905C259.271 54.9285 259.089 54.3819 258.726 53.9509C258.362 53.5044 257.907 53.1195 257.361 52.7962C256.815 52.4575 256.224 52.1418 255.587 51.8493C254.951 51.5414 254.36 51.195 253.814 50.8101C253.268 50.4252 252.813 49.9633 252.449 49.4245C252.086 48.8702 251.904 48.1851 251.904 47.3691C251.904 46.7225 252.025 46.1297 252.267 45.5909C252.51 45.0366 252.859 44.5594 253.313 44.1591C253.783 43.7434 254.352 43.4201 255.019 43.1891C255.686 42.9582 256.436 42.8427 257.27 42.8427C257.877 42.8427 258.491 42.9043 259.112 43.0275C259.749 43.1352 260.386 43.2969 261.022 43.5124L260.863 46.2837C260.378 45.8064 259.832 45.4369 259.226 45.1752C258.619 44.8981 257.975 44.7595 257.293 44.7595C256.474 44.7595 255.83 44.952 255.36 45.3369C254.905 45.7218 254.678 46.2144 254.678 46.8149C254.678 47.3691 254.86 47.831 255.224 48.2005C255.587 48.57 256.042 48.9087 256.588 49.2166C257.134 49.5245 257.725 49.8325 258.362 50.1404C258.998 50.4483 259.59 50.8178 260.135 51.2489C260.681 51.68 261.136 52.1957 261.5 52.7962C261.864 53.3966 262.046 54.1433 262.046 55.0363C262.046 55.7137 261.924 56.3449 261.682 56.93C261.454 57.515 261.106 58.0308 260.636 58.4773C260.181 58.9083 259.605 59.2471 258.908 59.4934C258.21 59.7551 257.392 59.886 256.452 59.886C255.633 59.886 254.845 59.7859 254.087 59.5858C253.329 59.401 252.631 59.1547 251.995 58.8468L251.881 55.96Z" fill="black"/>
<path d="M263.873 55.96C264.57 56.5913 265.305 57.0839 266.078 57.438C266.852 57.7921 267.647 57.9692 268.466 57.9692C269.376 57.9692 270.065 57.7614 270.535 57.3457C271.02 56.9146 271.263 56.3295 271.263 55.5905C271.263 54.9285 271.081 54.3819 270.717 53.9509C270.353 53.5044 269.899 53.1195 269.353 52.7962C268.807 52.4575 268.216 52.1418 267.579 51.8493C266.942 51.5414 266.351 51.195 265.805 50.8101C265.26 50.4252 264.805 49.9633 264.441 49.4245C264.077 48.8702 263.895 48.1851 263.895 47.3691C263.895 46.7225 264.017 46.1297 264.259 45.5909C264.502 45.0366 264.85 44.5594 265.305 44.1591C265.775 43.7434 266.344 43.4201 267.011 43.1891C267.678 42.9582 268.428 42.8427 269.262 42.8427C269.868 42.8427 270.482 42.9043 271.104 43.0275C271.741 43.1352 272.377 43.2969 273.014 43.5124L272.855 46.2837C272.37 45.8064 271.824 45.4369 271.218 45.1752C270.611 44.8981 269.967 44.7595 269.285 44.7595C268.466 44.7595 267.822 44.952 267.352 45.3369C266.897 45.7218 266.67 46.2144 266.67 46.8149C266.67 47.3691 266.852 47.831 267.215 48.2005C267.579 48.57 268.034 48.9087 268.58 49.2166C269.126 49.5245 269.717 49.8325 270.353 50.1404C270.99 50.4483 271.581 50.8178 272.127 51.2489C272.673 51.68 273.128 52.1957 273.492 52.7962C273.855 53.3966 274.037 54.1433 274.037 55.0363C274.037 55.7137 273.916 56.3449 273.673 56.93C273.446 57.515 273.097 58.0308 272.627 58.4773C272.173 58.9083 271.597 59.2471 270.899 59.4934C270.202 59.7551 269.383 59.886 268.443 59.886C267.625 59.886 266.836 59.7859 266.078 59.5858C265.32 59.401 264.623 59.1547 263.986 58.8468L263.873 55.96Z" fill="black"/>
<path d="M275.637 51.3413C275.637 50.1712 275.811 49.0704 276.16 48.0388C276.524 47.0073 277.039 46.1066 277.706 45.3369C278.388 44.5671 279.207 43.9589 280.162 43.5124C281.132 43.066 282.216 42.8427 283.414 42.8427C284.627 42.8427 285.711 43.066 286.666 43.5124C287.636 43.9589 288.455 44.5671 289.122 45.3369C289.804 46.1066 290.319 47.0073 290.668 48.0388C291.032 49.0704 291.214 50.1712 291.214 51.3413C291.214 52.5113 291.032 53.6199 290.668 54.6668C290.319 55.6983 289.804 56.6067 289.122 57.3918C288.455 58.1616 287.636 58.7698 286.666 59.2163C285.711 59.6627 284.627 59.886 283.414 59.886C282.216 59.886 281.132 59.6627 280.162 59.2163C279.207 58.7698 278.388 58.1616 277.706 57.3918C277.039 56.6067 276.524 55.6983 276.16 54.6668C275.811 53.6199 275.637 52.5113 275.637 51.3413ZM278.593 51.3413C278.593 52.265 278.699 53.1272 278.911 53.9278C279.139 54.713 279.457 55.4058 279.866 56.0062C280.291 56.5913 280.799 57.0531 281.39 57.3918C281.996 57.7306 282.671 57.8999 283.414 57.8999C284.172 57.8999 284.847 57.7306 285.438 57.3918C286.029 57.0531 286.537 56.5913 286.961 56.0062C287.386 55.4058 287.704 54.713 287.916 53.9278C288.144 53.1272 288.257 52.265 288.257 51.3413C288.257 50.4329 288.144 49.5784 287.916 48.7778C287.704 47.9773 287.386 47.2844 286.961 46.6994C286.537 46.1143 286.029 45.6525 285.438 45.3138C284.847 44.975 284.172 44.8057 283.414 44.8057C282.671 44.8057 281.996 44.975 281.39 45.3138C280.799 45.6525 280.291 46.1143 279.866 46.6994C279.457 47.2844 279.139 47.9773 278.911 48.7778C278.699 49.5784 278.593 50.4329 278.593 51.3413Z" fill="black"/>
<path d="M305.156 58.916C304.519 59.224 303.814 59.4626 303.041 59.632C302.268 59.8013 301.48 59.886 300.676 59.886C299.388 59.886 298.243 59.6627 297.242 59.2163C296.242 58.7698 295.393 58.1616 294.696 57.3918C294.013 56.6067 293.49 55.6983 293.126 54.6668C292.763 53.6199 292.581 52.5113 292.581 51.3413C292.581 50.1712 292.763 49.0704 293.126 48.0388C293.49 47.0073 294.013 46.1066 294.696 45.3369C295.393 44.5671 296.242 43.9589 297.242 43.5124C298.243 43.066 299.388 42.8427 300.676 42.8427C301.51 42.8427 302.313 42.9351 303.087 43.1198C303.875 43.3046 304.603 43.5509 305.27 43.8588L304.792 46.838C304.337 46.2067 303.776 45.7141 303.109 45.3599C302.442 44.9904 301.677 44.8057 300.813 44.8057C299.994 44.8057 299.259 44.975 298.607 45.3138C297.955 45.6525 297.402 46.1143 296.947 46.6994C296.492 47.2844 296.143 47.9773 295.901 48.7778C295.658 49.5784 295.537 50.4329 295.537 51.3413C295.537 52.265 295.658 53.1272 295.901 53.9278C296.158 54.713 296.522 55.4058 296.992 56.0062C297.462 56.5913 298.038 57.0531 298.72 57.3918C299.403 57.7306 300.176 57.8999 301.04 57.8999C301.95 57.8999 302.783 57.7229 303.541 57.3688C304.299 57.0146 304.921 56.5451 305.406 55.96L305.156 58.916Z" fill="black"/>
<path d="M309.966 57.4611C309.966 57.9076 310.034 58.2694 310.17 58.5465C310.307 58.8237 310.504 59.1239 310.762 59.4472H306.441C306.699 59.1239 306.896 58.8237 307.032 58.5465C307.169 58.2694 307.237 57.9076 307.237 57.4611V45.2676C307.237 44.8365 307.161 44.4824 307.009 44.2053C306.873 43.9127 306.676 43.6048 306.418 43.2815H310.784C310.527 43.6048 310.322 43.9127 310.17 44.2053C310.034 44.4824 309.966 44.8365 309.966 45.2676V57.4611Z" fill="black"/>
<path d="M315.622 57.4611C315.5 57.8614 315.493 58.2386 315.599 58.5927C315.705 58.9314 315.887 59.2163 316.145 59.4472H311.938C312.286 59.1855 312.567 58.916 312.779 58.6389C313.006 58.3618 313.203 57.9692 313.37 57.4611L317.441 45.2676C317.547 44.9597 317.57 44.6209 317.509 44.2514C317.448 43.8665 317.259 43.5432 316.94 43.2815H321.125L325.877 57.4611C326.029 57.9076 326.211 58.2694 326.423 58.5465C326.65 58.8237 326.954 59.1239 327.333 59.4472H322.489C322.762 59.2009 322.944 58.9237 323.035 58.6158C323.141 58.3079 323.118 57.923 322.966 57.4611L321.989 54.4127H316.577L315.622 57.4611ZM321.42 52.5652L319.283 45.868L317.168 52.5652H321.42Z" fill="black"/>
<path d="M330.714 59.4472C330.972 59.1393 331.169 58.8391 331.306 58.5465C331.442 58.254 331.51 57.8922 331.51 57.4611V45.1983H328.531C328.137 45.1983 327.811 45.2753 327.553 45.4292C327.311 45.5678 327.038 45.7679 326.735 46.0297V43.2815H339.014V46.0297C338.711 45.7679 338.431 45.5678 338.173 45.4292C337.93 45.2753 337.612 45.1983 337.218 45.1983H334.239V57.4611C334.239 57.6921 334.254 57.8922 334.284 58.0616C334.315 58.2309 334.36 58.3926 334.421 58.5465C334.497 58.6851 334.58 58.8314 334.671 58.9853C334.777 59.1239 334.898 59.2779 335.035 59.4472H330.714Z" fill="black"/>
<path d="M344.031 57.4611C344.031 57.9076 344.099 58.2694 344.236 58.5465C344.372 58.8237 344.569 59.1239 344.827 59.4472H340.506C340.764 59.1239 340.961 58.8237 341.098 58.5465C341.234 58.2694 341.302 57.9076 341.302 57.4611V45.2676C341.302 44.8365 341.226 44.4824 341.075 44.2053C340.938 43.9127 340.741 43.6048 340.484 43.2815H344.85C344.592 43.6048 344.387 43.9127 344.236 44.2053C344.099 44.4824 344.031 44.8365 344.031 45.2676V57.4611Z" fill="black"/>
<path d="M346.321 51.3413C346.321 50.1712 346.496 49.0704 346.844 48.0388C347.208 47.0073 347.724 46.1066 348.391 45.3369C349.073 44.5671 349.891 43.9589 350.847 43.5124C351.817 43.066 352.901 42.8427 354.098 42.8427C355.311 42.8427 356.395 43.066 357.35 43.5124C358.32 43.9589 359.139 44.5671 359.806 45.3369C360.488 46.1066 361.004 47.0073 361.352 48.0388C361.716 49.0704 361.898 50.1712 361.898 51.3413C361.898 52.5113 361.716 53.6199 361.352 54.6668C361.004 55.6983 360.488 56.6067 359.806 57.3918C359.139 58.1616 358.32 58.7698 357.35 59.2163C356.395 59.6627 355.311 59.886 354.098 59.886C352.901 59.886 351.817 59.6627 350.847 59.2163C349.891 58.7698 349.073 58.1616 348.391 57.3918C347.724 56.6067 347.208 55.6983 346.844 54.6668C346.496 53.6199 346.321 52.5113 346.321 51.3413ZM349.277 51.3413C349.277 52.265 349.384 53.1272 349.596 53.9278C349.823 54.713 350.142 55.4058 350.551 56.0062C350.975 56.5913 351.483 57.0531 352.074 57.3918C352.681 57.7306 353.356 57.8999 354.098 57.8999C354.856 57.8999 355.531 57.7306 356.122 57.3918C356.713 57.0531 357.221 56.5913 357.646 56.0062C358.07 55.4058 358.389 54.713 358.601 53.9278C358.828 53.1272 358.942 52.265 358.942 51.3413C358.942 50.4329 358.828 49.5784 358.601 48.7778C358.389 47.9773 358.07 47.2844 357.646 46.6994C357.221 46.1143 356.713 45.6525 356.122 45.3138C355.531 44.975 354.856 44.8057 354.098 44.8057C353.356 44.8057 352.681 44.975 352.074 45.3138C351.483 45.6525 350.975 46.1143 350.551 46.6994C350.142 47.2844 349.823 47.9773 349.596 48.7778C349.384 49.5784 349.277 50.4329 349.277 51.3413Z" fill="black"/>
<path d="M363.402 59.4472C363.659 59.1239 363.856 58.8237 363.993 58.5465C364.129 58.2694 364.198 57.9076 364.198 57.4611V45.2676C364.198 44.8365 364.122 44.4824 363.97 44.2053C363.834 43.9127 363.637 43.6048 363.379 43.2815H366.449L372.27 51.272C372.589 51.7031 372.899 52.1342 373.202 52.5652C373.521 52.9963 373.832 53.4351 374.135 53.8816V45.2676C374.135 44.8211 374.067 44.4593 373.93 44.1822C373.794 43.905 373.597 43.6048 373.339 43.2815H377C376.742 43.6048 376.545 43.905 376.409 44.1822C376.272 44.4593 376.204 44.8211 376.204 45.2676V59.4472H374.999L368.586 50.9025C368.177 50.3636 367.783 49.8171 367.404 49.2628C367.025 48.7086 366.646 48.1466 366.267 47.577V57.4611C366.267 57.9076 366.335 58.2694 366.471 58.5465C366.608 58.8237 366.805 59.1239 367.063 59.4472H363.402Z" fill="black"/>
</svg>
